<svg width="218" height="600" viewBox="0 0 218 600" fill="none" xmlns="http://www.w3.org/2000/svg">
<g clip-path="url(#clip0_459_27375)">
<path d="M3.1802 23.196L14.9353 48.9992L26.5757 74.5665L38.1075 99.9043L49.5428 125.006L47.1893 129.296" stroke="#F4F4F6" stroke-width="0.604486" stroke-linecap="round" stroke-linejoin="round"/>
<path d="M20.6258 16.1206L30.8058 42.5676L40.8411 68.6512L50.7436 94.3715L60.5134 119.748L63.0237 126.269" stroke="#F4F4F6" stroke-width="0.604486" stroke-linecap="round" stroke-linejoin="round"/>
<path d="M51.2385 8.41408L58.2928 35.4602L65.2203 62.0347L72.0272 88.1502L78.7194 113.82L81.0668 122.807" stroke="#F4F4F6" stroke-width="0.604486" stroke-linecap="round" stroke-linejoin="round"/>
<path d="M91.1502 0.318707L93.8838 27.8238L96.0622 49.6622L96.5751 54.7999L98.4639 73.8144L99.2061 81.2532L100.89 98.1706L101.789 107.203L102.923 118.607" stroke="#F4F4F6" stroke-width="0.604486" stroke-linecap="round" stroke-linejoin="round"/>
<path d="M46.8031 129.373L35.3679 104.825L23.7275 79.8379L12.0388 54.7487L0.30178 29.5384L3.18021 23.1959L20.6258 16.1205L51.2385 8.41391L91.1502 0.318543" stroke="#F4F4F6" stroke-width="0.604486" stroke-linecap="round" stroke-linejoin="round"/>
<path d="M196.198 67.1403L188.872 91.8726L186.736 99.0883" stroke="#F4F4F6" stroke-width="0.604486" stroke-linecap="round" stroke-linejoin="round"/>
<path d="M115.572 116.178L115.909 141.822L116.247 167.038L116.573 191.834L116.899 216.229L117.116 232.483" stroke="#F4F4F6" stroke-width="0.604486" stroke-linecap="round" stroke-linejoin="round"/>
<path d="M201.671 222.916L194.315 247.036L182.276 257.471L176.181 281.272L157.221 291.057L132.643 299.751L105.868 306.891L80.8072 312.27L60.96 315.923L48.9273 318.211L45.9886 319.633" stroke="#F4F4F6" stroke-width="0.604486" stroke-linecap="round" stroke-linejoin="round"/>
<path d="M194.315 247.036L187.019 270.984L180.556 277.123L176.181 281.272L170.147 304.832L153.317 314.387L149.461 337.417L144.688 339.482" stroke="#F4F4F6" stroke-width="0.604486" stroke-linecap="round" stroke-linejoin="round"/>
<path d="M200.886 178.99L194.285 203.085L192.384 210.02" stroke="#F4F4F6" stroke-width="0.604486" stroke-linecap="round" stroke-linejoin="round"/>
<path d="M169.435 60.9L164.644 85.3199L160.546 106.157" stroke="#F4F4F6" stroke-width="0.604486" stroke-linecap="round" stroke-linejoin="round"/>
<path d="M169.236 219.263L165.181 243.505L161.174 267.434L157.221 291.057L153.317 314.387L131.49 322.871L107.66 329.857L85.2787 335.154L67.4409 338.807L56.5065 341.152L53.6824 342.67" stroke="#F4F4F6" stroke-width="0.604486" stroke-linecap="round" stroke-linejoin="round"/>
<path d="M136.119 55.3097L134.405 79.5001L132.679 103.869L132.058 112.634" stroke="#F4F4F6" stroke-width="0.604486" stroke-linecap="round" stroke-linejoin="round"/>
<path d="M99.876 50.1912L101.511 74.2797L103.159 98.553L104.498 118.307" stroke="#F4F4F6" stroke-width="0.604486" stroke-linecap="round" stroke-linejoin="round"/>
<path d="M136.203 228.429L135.002 252.537L133.814 276.313L132.643 299.751L131.49 322.871L130.47 343.224" stroke="#F4F4F6" stroke-width="0.604486" stroke-linecap="round" stroke-linejoin="round"/>
<path d="M207.929 302.537L201.961 325.746L194.888 337.8L177.449 349.484L151.736 359.944L121.31 368.454L90.577 374.535L64.0677 378.168L45.3851 379.666L36.774 379.717" stroke="#F4F4F6" stroke-width="0.604486" stroke-linecap="round" stroke-linejoin="round"/>
<path d="M203.855 290.916L198.219 314.151L197.688 316.331" stroke="#F4F4F6" stroke-width="0.604486" stroke-linecap="round" stroke-linejoin="round"/>
<path d="M201.961 325.746L196.023 348.834L190.115 371.8L184.111 383.516L179.32 403.837L178.783 406.107L165.398 417.134L145.684 426.97L122.306 434.982L98.5426 440.783L77.8204 444.352L62.9334 445.971L55.7705 446.258" stroke="#F4F4F6" stroke-width="0.604486" stroke-linecap="round" stroke-linejoin="round"/>
<path d="M189.174 280.437L184.593 303.652L180.013 326.88L179.977 327.072" stroke="#F4F4F6" stroke-width="0.604486" stroke-linecap="round" stroke-linejoin="round"/>
<path d="M153.8 337.079L151.736 359.944L149.696 382.547L147.681 404.883L145.683 426.97L143.716 448.802L143.481 451.415" stroke="#F4F4F6" stroke-width="0.604486" stroke-linecap="round" stroke-linejoin="round"/>
<path d="M196.849 389.916L192.74 412.258L199.511 421.953" stroke="#F4F4F6" stroke-width="0.604486" stroke-linecap="round" stroke-linejoin="round"/>
<path d="M120.966 345.729L121.31 368.454L121.642 390.897L121.98 413.074L122.306 434.982L122.632 456.636L122.951 478.034L123.271 499.178" stroke="#F4F4F6" stroke-width="0.604486" stroke-linecap="round" stroke-linejoin="round"/>
<path d="M204.803 416.254L200.168 438.399L195.564 460.409L184.43 473.668L180.617 495.308L176.833 516.771L173.08 538.067L169.35 559.192L154.946 570.187L136.022 579.322" stroke="#F4F4F6" stroke-width="0.604486" stroke-linecap="round" stroke-linejoin="round"/>
<path d="M195.564 460.409L190.99 482.292L186.44 504.041L181.914 525.663L177.418 547.157L169.35 559.192L165.657 580.157L152.593 590.796" stroke="#F4F4F6" stroke-width="0.604486" stroke-linecap="round" stroke-linejoin="round"/>
<path d="M192.154 429.87L188.28 451.861L167.039 464.17L139.202 474.337" stroke="#F4F4F6" stroke-width="0.604486" stroke-linecap="round" stroke-linejoin="round"/>
<path d="M80.0829 510.747L74.4105 489.323L68.6959 467.727L62.933 445.971L57.1339 424.044L51.2805 401.938L45.3849 379.666L39.4409 357.216" stroke="#F4F4F6" stroke-width="0.604486" stroke-linecap="round" stroke-linejoin="round"/>
<path d="M177.418 547.157L172.947 568.524L165.657 580.157" stroke="#F4F4F6" stroke-width="0.604486" stroke-linecap="round" stroke-linejoin="round"/>
<path d="M91.1683 508.599L86.7632 487.392L82.3158 465.98L77.8201 444.352L73.2822 422.508L68.7021 400.453L64.0676 378.168L59.397 355.66" stroke="#F4F4F6" stroke-width="0.604486" stroke-linecap="round" stroke-linejoin="round"/>
<path d="M106.242 504.813L103.708 483.707L101.137 462.372L98.5425 440.783L95.9176 418.957L93.2624 396.877L90.5771 374.535L87.8616 351.944" stroke="#F4F4F6" stroke-width="0.604486" stroke-linecap="round" stroke-linejoin="round"/>
<path d="M192.74 412.258L189.198 431.502" stroke="#F4F4F6" stroke-width="0.604486" stroke-linecap="round" stroke-linejoin="round"/>
<path d="M183.833 172.061L200.887 178.99L211.024 188.412" stroke="#F4F4F6" stroke-width="0.604486" stroke-linecap="round" stroke-linejoin="round"/>
<path d="M139.287 471.398L122.952 478.034L103.708 483.707L86.7632 487.392L74.4107 489.323L68.2676 490.037" stroke="#F4F4F6" stroke-width="0.604486" stroke-linecap="round" stroke-linejoin="round"/>
<path d="M200.168 438.399L188.28 451.861L184.43 473.668L164.577 485.779L138.551 495.767" stroke="#F4F4F6" stroke-width="0.604486" stroke-linecap="round" stroke-linejoin="round"/>
<path d="M109.072 347.96L107.66 329.857L105.868 306.891L104.046 283.605L102.205 259.995L100.334 236.047" stroke="#F4F4F6" stroke-width="0.604486" stroke-linecap="round" stroke-linejoin="round"/>
<path d="M213.118 74.1649L207.065 91.0186" stroke="#F4F4F6" stroke-width="0.604486" stroke-linecap="round" stroke-linejoin="round"/>
<path d="M138.659 492.268L125.112 498.355L124.889 498.451L124.852 498.47L123.271 499.178L107.135 504.519L106.242 504.813L92.0553 508.376L91.1683 508.599L80.9399 510.581L80.083 510.747L74.8391 511.684L74.471 511.754" stroke="#F4F4F6" stroke-width="0.604486" stroke-linecap="round" stroke-linejoin="round"/>
<path d="M88.5313 351.817L85.2788 335.154L80.8073 312.271L76.2814 289.094L71.7013 265.623L67.0608 241.854" stroke="#F4F4F6" stroke-width="0.604486" stroke-linecap="round" stroke-linejoin="round"/>
<path d="M190.99 482.292L180.617 495.308L162.133 507.184L137.911 516.981" stroke="#F4F4F6" stroke-width="0.604486" stroke-linecap="round" stroke-linejoin="round"/>
<path d="M186.44 504.041L176.833 516.771L159.713 528.378L137.271 537.972" stroke="#F4F4F6" stroke-width="0.604486" stroke-linecap="round" stroke-linejoin="round"/>
<path d="M206.245 402.62L202.95 418.25" stroke="#F4F4F6" stroke-width="0.604486" stroke-linecap="round" stroke-linejoin="round"/>
<path d="M71.7555 354.048L67.4409 338.807L60.9599 315.923L54.4125 292.803L47.7988 269.448L41.1187 245.844" stroke="#F4F4F6" stroke-width="0.604486" stroke-linecap="round" stroke-linejoin="round"/>
<path d="M181.914 525.663L173.08 538.067L157.318 549.382L136.644 558.752" stroke="#F4F4F6" stroke-width="0.604486" stroke-linecap="round" stroke-linejoin="round"/>
<path d="M61.2192 355.425L56.5063 341.153L48.9271 318.211L41.2935 295.105L33.6057 271.826L25.8574 248.375" stroke="#F4F4F6" stroke-width="0.604486" stroke-linecap="round" stroke-linejoin="round"/>
<path d="M138.334 503.009L125.112 498.527L124.853 498.47" stroke="#F4F4F6" stroke-width="0.604486" stroke-linecap="round" stroke-linejoin="round"/>
<path d="M95.4708 236.894L93.1897 222.75L89.2915 198.534L85.3329 173.935L81.3079 148.942L77.2166 123.547" stroke="#F4F4F6" stroke-width="0.604486" stroke-linecap="round" stroke-linejoin="round"/>
<path d="M58.0632 355.762L53.6822 342.67L45.9883 319.633L38.2582 296.507L30.4979 273.279L22.7014 249.962" stroke="#F4F4F6" stroke-width="0.604486" stroke-linecap="round" stroke-linejoin="round"/>
<path d="M192.74 412.258L181.522 405.221" stroke="#F4F4F6" stroke-width="0.604486" stroke-linecap="round" stroke-linejoin="round"/>
<path d="M196.023 348.833L189.475 360.747L184.111 383.516L169.374 394.811L147.681 404.883L121.98 413.074L95.9173 418.957L73.2821 422.508L57.134 424.044L49.4702 424.197" stroke="#F4F4F6" stroke-width="0.604486" stroke-linecap="round" stroke-linejoin="round"/>
<path d="M137.646 525.752L125.341 521.214L108.24 516.834L93.0148 514.164L81.4468 512.8L74.9779 512.207L74.471 511.754L68.2676 490.037L62.034 468.205L55.7703 446.258L49.4703 424.197L43.1402 402.014L36.7739 379.717L30.3714 357.298" stroke="#F4F4F6" stroke-width="0.604486" stroke-linecap="round" stroke-linejoin="round"/>
<path d="M186.38 433.057L176.115 426.237" stroke="#F4F4F6" stroke-width="0.604486" stroke-linecap="round" stroke-linejoin="round"/>
<path d="M49.5428 125.006L60.5134 119.748L78.7192 113.819L101.789 107.203" stroke="#F4F4F6" stroke-width="0.604486" stroke-linecap="round" stroke-linejoin="round"/>
<path d="M76.1126 240.273L72.6368 228.085L65.7696 204.009L58.8058 179.602L51.7456 154.87L44.5947 129.793" stroke="#F4F4F6" stroke-width="0.604486" stroke-linecap="round" stroke-linejoin="round"/>
<path d="M108.24 516.834L107.136 504.519" stroke="#F4F4F6" stroke-width="0.604486" stroke-linecap="round" stroke-linejoin="round"/>
<path d="M186.959 384.064L196.849 389.916L206.245 402.62L204.803 416.254L202.95 418.25L199.511 421.953L192.155 429.87L189.198 431.502L186.38 433.057L172.374 440.789L172.229 440.866L170.346 441.905L169.531 442.357L167.039 464.17L164.577 485.779L162.133 507.184L159.713 528.378L157.318 549.382L154.946 570.187L152.593 590.796L135.407 599.681" stroke="#F4F4F6" stroke-width="0.604486" stroke-linecap="round" stroke-linejoin="round"/>
<path d="M211.024 188.412L207.512 199.751" stroke="#F4F4F6" stroke-width="0.604486" stroke-linecap="round" stroke-linejoin="round"/>
<path d="M156.672 222.75L165.645 216.114L174.075 191.477L179.844 182.675L183.833 172.061L189.222 157.719" stroke="#F4F4F6" stroke-width="0.604486" stroke-linecap="round" stroke-linejoin="round"/>
<path d="M61.835 242.657L58.0393 232.33L49.2169 208.338L40.3041 184.102L31.3007 159.619L22.2068 134.893" stroke="#F4F4F6" stroke-width="0.604486" stroke-linecap="round" stroke-linejoin="round"/>
<path d="M12.5515 139.017L22.2066 134.893L44.5944 129.793L46.803 129.373L47.1892 129.296L51.1478 128.538L63.0236 126.268L77.2166 123.547L81.0665 122.807L102.923 118.607L104.498 118.307L115.571 116.178L132.058 112.634L152.478 108.248L153.963 107.93L160.546 106.158L186.512 99.1777" stroke="#F4F4F6" stroke-width="0.604486" stroke-linecap="round" stroke-linejoin="round"/>
<path d="M22.2971 163.418L31.3005 159.619L51.7452 154.87L81.3079 148.942L115.909 141.822L150.493 133.714L179.838 124.968L186.512 99.1777L186.736 99.0885L196.107 95.3723L207.066 91.0186L208.665 90.3876" stroke="#F4F4F6" stroke-width="0.604486" stroke-linecap="round" stroke-linejoin="round"/>
<path d="M171.197 322.916L180.013 326.88L180.164 327.001" stroke="#F4F4F6" stroke-width="0.604486" stroke-linecap="round" stroke-linejoin="round"/>
<path d="M31.9886 187.672L40.304 184.102L58.8056 179.602L85.333 173.935L116.247 167.038L147.083 159.09L173.261 150.414L191.189 141.446L198.66 132.617L205.889 113.373L208.152 107.362" stroke="#F4F4F6" stroke-width="0.604486" stroke-linecap="round" stroke-linejoin="round"/>
<path d="M54.4124 243.798L51.19 235.728L41.6194 211.773L31.9885 187.672L22.2972 163.418L12.5515 139.017" stroke="#F4F4F6" stroke-width="0.604486" stroke-linecap="round" stroke-linejoin="round"/>
<path d="M54.3824 243.804L51.1902 235.728" stroke="#F4F4F6" stroke-width="0.604486" stroke-linecap="round" stroke-linejoin="round"/>
<path d="M41.6197 211.773L49.217 208.338L65.7695 204.009L89.2917 198.534L116.573 191.834L143.722 184.064L166.768 175.51L182.59 166.586L191.189 141.446L199.885 116.05L208.665 90.3875L217.698 81.9543" stroke="#F4F4F6" stroke-width="0.604486" stroke-linecap="round" stroke-linejoin="round"/>
<path d="M51.1902 235.728L58.0393 232.33L72.6366 228.085L93.1899 222.75L116.899 216.229L140.421 208.643L160.365 200.268L166.768 175.51L173.261 150.414L179.838 124.968L199.885 116.05L208.152 107.362L217.698 81.9543L213.118 74.1649L196.198 67.1404L169.435 60.9L136.119 55.3097L99.876 50.1912L96.0623 49.6621" stroke="#F4F4F6" stroke-width="0.604486" stroke-linecap="round" stroke-linejoin="round"/>
<path d="M177.913 300.88L184.593 303.652L198.219 314.151L198.714 315.687" stroke="#F4F4F6" stroke-width="0.604486" stroke-linecap="round" stroke-linejoin="round"/>
<path d="M12.0386 54.7488L14.9351 48.9993L30.8057 42.5676L58.2925 35.4602L93.8837 27.8238" stroke="#F4F4F6" stroke-width="0.604486" stroke-linecap="round" stroke-linejoin="round"/>
<path d="M23.7273 79.8381L26.5756 74.5666L40.841 68.6512L65.2201 62.0347L96.575 54.7999" stroke="#F4F4F6" stroke-width="0.604486" stroke-linecap="round" stroke-linejoin="round"/>
<path d="M93.0149 514.164L92.0554 508.376" stroke="#F4F4F6" stroke-width="0.604486" stroke-linecap="round" stroke-linejoin="round"/>
<path d="M35.3679 104.825L38.1076 99.9043L50.7437 94.3714L72.0271 88.1501L99.2062 81.2531" stroke="#F4F4F6" stroke-width="0.604486" stroke-linecap="round" stroke-linejoin="round"/>
<path d="M184.666 278.703L189.174 280.437L203.855 290.917L207.929 302.537L200.343 314.667L198.714 315.687L197.688 316.331L181.546 326.472L180.231 326.976L180.164 327.001L179.977 327.072L168.608 331.419L162.767 333.65L153.8 337.079L149.322 338.258L144.688 339.482L130.471 343.224L120.966 345.729L109.072 347.96L88.5313 351.817L87.8614 351.944L71.7555 354.048L61.2194 355.424L59.397 355.66L58.0634 355.762L49.0359 356.47L45.7049 356.725L39.4411 357.216L32.8938 357.273L30.3714 357.298" stroke="#F4F4F6" stroke-width="0.604486" stroke-linecap="round" stroke-linejoin="round"/>
<path d="M166.78 217.434L170.642 218.632L170.714 218.67" stroke="#F4F4F6" stroke-width="0.604486" stroke-linecap="round" stroke-linejoin="round"/>
<path d="M49.5428 125.006L51.1479 128.538" stroke="#F4F4F6" stroke-width="0.604486" stroke-linecap="round" stroke-linejoin="round"/>
<path d="M22.7014 249.962L25.8575 248.374L41.1185 245.844L54.3822 243.804L54.4124 243.798L61.8348 242.657L67.0606 241.854L76.1122 240.273L95.4707 236.894L100.334 236.047L117.116 232.483L136.203 228.429L137.82 227.977L154.385 223.381L156.672 222.75L164.076 220.697L165.724 220.238L169.236 219.263L170.624 218.709L170.738 218.664L192.384 210.02L194.659 209.109L197.857 206.782L207.512 199.751L209.075 198.617L211.024 188.411" stroke="#F4F4F6" stroke-width="0.604486" stroke-linecap="round" stroke-linejoin="round"/>
<path d="M49.0359 356.47L45.6264 356.368L32.7489 356.725L30.3714 357.298" stroke="#F4F4F6" stroke-width="0.604486" stroke-linecap="round" stroke-linejoin="round"/>
<path d="M30.4981 273.279L33.6058 271.826L47.7988 269.448L71.7012 265.623L102.205 259.995L135.002 252.537L165.181 243.505L188.437 233.42L201.671 222.916L209.075 198.617" stroke="#F4F4F6" stroke-width="0.604486" stroke-linecap="round" stroke-linejoin="round"/>
<path d="M38.2583 296.507L41.2936 295.104L54.4125 292.803L76.2813 289.094L104.046 283.605L133.814 276.313L161.174 267.434L182.276 257.471L188.437 233.42L194.659 209.109" stroke="#F4F4F6" stroke-width="0.604486" stroke-linecap="round" stroke-linejoin="round"/>
<path d="M98.4641 73.8144L101.512 74.2797L134.405 79.5002L164.644 85.32L188.872 91.8727L196.107 95.3723" stroke="#F4F4F6" stroke-width="0.604486" stroke-linecap="round" stroke-linejoin="round"/>
<path d="M100.89 98.1706L103.159 98.5531L132.679 103.869L152.478 108.248" stroke="#F4F4F6" stroke-width="0.604486" stroke-linecap="round" stroke-linejoin="round"/>
<path d="M81.4466 512.799L80.9397 510.581" stroke="#F4F4F6" stroke-width="0.604486" stroke-linecap="round" stroke-linejoin="round"/>
<path d="M175.753 193.549L175.536 194.626L170.642 218.632L170.624 218.709" stroke="#F4F4F6" stroke-width="0.604486" stroke-linecap="round" stroke-linejoin="round"/>
<path d="M172.573 439.999L172.374 440.789" stroke="#F4F4F6" stroke-width="0.604486" stroke-linecap="round" stroke-linejoin="round"/>
<path d="M175.367 194.582L175.536 194.626L194.285 203.085L197.857 206.782" stroke="#F4F4F6" stroke-width="0.604486" stroke-linecap="round" stroke-linejoin="round"/>
<path d="M125.112 498.355L125.112 498.528L125.341 521.214" stroke="#F4F4F6" stroke-width="0.604486" stroke-linecap="round" stroke-linejoin="round"/>
<path d="M187.019 270.984L184.666 278.703L179.778 294.76L175.059 299.694L170.147 304.832L164.173 328.149L154.029 334.542L149.461 337.417L149.322 338.258" stroke="#F4F4F6" stroke-width="0.604486" stroke-linecap="round" stroke-linejoin="round"/>
<path d="M190.115 371.8L186.959 384.064L184.237 394.652L179.736 404.099L178.782 406.107L174.317 425.045L173.496 428.519L161.464 439.234L160.341 445.551" stroke="#F4F4F6" stroke-width="0.604486" stroke-linecap="round" stroke-linejoin="round"/>
<path d="M198.66 132.617L196.3 138.896L189.222 157.719L182.59 166.586L174.075 191.477L160.365 200.268L154.385 223.381" stroke="#F4F4F6" stroke-width="0.604486" stroke-linecap="round" stroke-linejoin="round"/>
<path d="M179.844 182.675L175.753 193.549L175.367 194.582L170.515 207.483L165.645 216.114L164.076 220.697" stroke="#F4F4F6" stroke-width="0.604486" stroke-linecap="round" stroke-linejoin="round"/>
<path d="M153.962 107.93L153.878 108.554L150.493 133.714L147.083 159.09L143.722 184.064L140.421 208.643L137.82 227.977" stroke="#F4F4F6" stroke-width="0.604486" stroke-linecap="round" stroke-linejoin="round"/>
<path d="M179.778 294.76L177.913 300.88L172.585 318.364L169.375 322.1L164.173 328.149L162.767 333.65" stroke="#F4F4F6" stroke-width="0.604486" stroke-linecap="round" stroke-linejoin="round"/>
<path d="M200.343 314.667L199.517 318.167L194.888 337.799L189.475 360.747L173.393 372.259L149.696 382.547L121.642 390.897L93.2622 396.876L68.702 400.452L51.2806 401.938L43.1402 402.014" stroke="#F4F4F6" stroke-width="0.604486" stroke-linecap="round" stroke-linejoin="round"/>
<path d="M184.237 394.652L181.968 403.48L181.522 405.22L178.39 417.383L174.866 425.408L173.496 428.519L170.346 441.905" stroke="#F4F4F6" stroke-width="0.604486" stroke-linecap="round" stroke-linejoin="round"/>
<path d="M178.39 417.383L176.127 426.179L176.115 426.237L172.573 439.999L172.229 440.866" stroke="#F4F4F6" stroke-width="0.604486" stroke-linecap="round" stroke-linejoin="round"/>
<path d="M181.546 326.472L181.365 327.486L177.449 349.484L173.393 372.259L169.375 394.811L165.398 417.134L161.463 439.234L143.716 448.802L139.932 450.21L122.632 456.636L101.137 462.372L82.3157 465.98L68.696 467.727L62.034 468.205" stroke="#F4F4F6" stroke-width="0.604486" stroke-linecap="round" stroke-linejoin="round"/>
<path d="M139.854 452.677L139.287 471.399L139.202 474.337L138.659 492.268L138.551 495.767L138.333 503.009L137.911 516.981L137.646 525.752L137.271 537.972L136.644 558.752L136.022 579.322L135.407 599.681" stroke="#F4F4F6" stroke-width="0.604486" stroke-linecap="round" stroke-linejoin="round"/>
<path d="M170.515 207.483L166.78 217.434L165.724 220.238" stroke="#F4F4F6" stroke-width="0.604486" stroke-linecap="round" stroke-linejoin="round"/>
<path d="M172.585 318.364L171.197 322.916L168.608 331.419" stroke="#F4F4F6" stroke-width="0.604486" stroke-linecap="round" stroke-linejoin="round"/>
<path d="M169.531 442.357L160.341 445.551L143.481 451.415L139.854 452.677" stroke="#F4F4F6" stroke-width="0.604486" stroke-linecap="round" stroke-linejoin="round"/>
</g>
<defs>
<clipPath id="clip0_459_27375">
<rect width="600" height="218" fill="white" transform="translate(2.62268e-05 600) rotate(-90)"/>
</clipPath>
</defs>
</svg>
