<svg width="583" height="484" viewBox="0 0 583 484" fill="none" xmlns="http://www.w3.org/2000/svg">
<g clip-path="url(#clip0_459_27731)">
<path d="M187.737 95.9686L244.881 88.5534L300.859 81.2857L355.711 74.1655L409.465 67.1928L462.161 60.3541L513.208 77.0886L459.736 84.2625M75.754 24.0826L128.289 18.062M75.754 24.0826L22.2278 30.2106L22.8709 57.9137L23.514 85.4827M75.754 24.0826L115.105 39.074L156.318 54.776M128.289 18.062L168.47 32.7851L220.831 26.6035M128.289 18.062L179.859 12.162L220.831 26.6035M220.831 26.6035L263.705 41.7155L308.616 57.5516M220.831 26.6035L272.227 20.5426M308.616 57.5516L361.566 50.9007L409.465 67.1793L459.722 84.2625M308.616 57.5516L254.608 64.3366L199.514 71.2557L143.308 78.3089L143.697 107.916L144.085 137.376M308.616 57.5516L355.711 74.1521L405.151 91.5838M405.151 91.5838L459.736 84.2625M405.151 91.5838L349.428 99.0661M405.151 91.5838L404.87 121.714M349.414 99.0661L300.845 81.2723L254.594 64.3366L210.514 48.1921L168.457 32.7851L115.091 39.074L60.6943 45.4969L61.2704 73.8034L61.8331 101.976M367.046 29.1513L315.865 35.3731L272.227 20.5426M367.046 29.1513L322.671 14.589M367.046 29.1513L413.498 44.3839M272.227 20.5426L230.504 6.36926M272.227 20.5426L322.671 14.589M230.504 6.36926L179.872 12.162M230.504 6.36926L280.225 0.67041L322.671 14.589M156.318 54.776L101.023 61.5073L101.505 90.4575L101.988 119.26M156.318 54.776L210.541 48.1787L263.719 41.7155L315.878 35.3731L361.58 50.9007L413.512 44.3839L462.174 60.3407M156.318 54.776L199.527 71.2423L244.881 88.5266L292.538 106.696M23.5542 85.4827L61.8733 101.976L102.015 119.26L144.112 137.376L149.471 139.682L188.313 156.403L234.778 176.396L292.579 167.989L349.173 159.755L404.615 151.697L458.918 143.799L486.519 139.789L512.123 136.062L512.672 106.656L513.222 77.0886M512.659 106.642L459.32 114.098L404.87 121.714M404.87 121.714L349.294 129.491M404.87 121.714L404.588 151.697M349.294 129.491L292.552 137.429M349.294 129.491L349.428 99.0661M349.294 129.491L349.16 159.755M292.552 137.429L234.604 145.528L188.018 126.246L143.71 107.916L101.519 90.4575L61.2838 73.8034L22.8843 57.9137M292.552 137.429V168.002M292.552 137.429L292.525 106.696M459.736 84.2625L459.32 114.111L458.905 143.799M349.428 99.0661L292.538 106.709L234.43 114.513L187.724 95.9686L143.308 78.3223L101.01 61.5207L60.6943 45.5103L22.2144 30.224M234.417 114.5L234.577 145.528L234.738 176.396M188.286 156.403L188.005 126.26L187.724 95.9552M180.73 196.55L249.289 194.632L317.54 192.715L385.469 190.811M385.469 190.811L453.077 188.92L520.376 187.03M385.469 190.811L372.392 166.956M385.469 190.811L385.228 222.027L384.987 253.083M520.376 187.03L514.709 179.132L503.428 163.389M520.376 187.03L519.773 218.112L519.184 249.033L452.246 251.058L385 253.083L317.432 255.121L249.557 257.172L181.359 259.224L174.245 233.331M181.051 227.981L249.436 225.996L317.499 224.012L385.241 222.041L452.675 220.083L519.8 218.125M181.051 227.981L173.923 202.933M181.051 227.981L181.359 259.237M222.291 171.046L173.588 172.373M367.019 157.168L372.392 166.956M372.392 166.956L306.432 168.753M372.392 166.956L438.057 165.173L503.428 163.389M427.432 148.385L438.057 165.186L453.077 188.934L452.661 220.083L452.246 251.071M282.972 169.397L306.432 168.753M306.432 168.753L305.227 166.152M306.432 168.753L317.553 192.715L317.499 223.998L317.446 255.121M503.428 163.389L487.443 141.09M475.305 141.412L487.443 141.09M487.443 141.09L486.505 139.776M173.602 172.36L180.743 196.55L181.065 227.967M174.245 233.331L173.923 202.933M174.245 233.331L170.855 221.021L167.519 208.9L161.182 185.823L160.847 156.993L156.827 142.86M173.923 202.933L173.602 172.373L166.876 149.565M173.923 202.933L167.197 179.319M155.179 164.006L154.911 142.042M155.179 164.006L161.182 185.836M155.179 164.006L149.498 143.316L149.458 139.682M241.987 175.35L249.302 194.632L249.436 225.983L249.57 257.172M160.699 144.536L160.847 157.007L167.197 179.319M167.197 179.319L167.532 208.913M167.197 179.319L166.862 149.565L166.058 146.843M172.061 149.417L166.862 149.551M459.762 277.34L432.631 304.721L363.697 298.352M459.762 277.34L485.34 251.527M459.762 277.34L392.664 271.332L326.463 265.405L261.119 259.559L228.642 285.854L162.468 279.74L97.1778 273.706M459.762 277.34L459.32 309.012L458.878 340.51M413.15 252.238L392.664 271.346L363.697 298.365L295.7 292.076M339.097 254.477L326.476 265.419L295.727 292.076L228.655 285.881M486.84 250.012L485.34 251.527M485.34 251.527L484.831 282.355L484.335 313.021M485.34 251.527L472.772 250.441M97.1778 273.706L97.7272 305.257L97.8477 312.096L98.2765 336.648M97.1778 273.706L132.991 248.094L166.809 223.904L171.766 224.334M516.678 249.113L508.948 257.186L484.844 282.355L459.32 308.998L432.256 337.265L363.523 330.681L295.727 324.191L228.843 317.795L162.856 311.479L97.7406 305.244M553.979 182.242L532.341 204.086M553.979 182.242L514.722 179.132M553.979 182.242L553.35 210.817M532.341 204.086L531.752 233.371M532.341 204.086L519.814 216.731M532.341 204.086L520.082 203.08M531.752 233.371L531.162 262.509M531.752 233.371L553.35 210.817M531.752 233.371L519.251 246.432M531.162 262.509L510.153 285.184L508.412 287.074L484.362 313.034L458.905 340.51L452.125 347.831L431.907 369.648L363.375 362.862L295.767 356.171L229.071 349.574L163.258 343.071L98.3167 336.648M531.162 262.509L552.72 239.244L553.35 210.817M132.991 248.108L179.443 252.265M163.218 343.071L162.843 311.506L162.468 279.753L189.827 258.983M431.881 369.648L432.256 337.278L432.644 304.734M363.71 298.352L363.523 330.694L363.335 362.862M295.714 292.063V324.204V356.171M229.03 349.574L228.843 317.808L228.655 285.868M508.385 287.074L508.934 257.186L509.082 249.341M264.657 256.716L261.133 259.573L238.182 257.521M170.868 221.021L166.822 223.904M0.669915 340.898L73.1413 319.431L98.1023 326.551M106.275 337.439L48.3411 355.112M325.967 391.504L254.018 416.418M325.967 391.504L394.553 367.757M325.967 391.504L272.361 376.218M325.967 391.504L325.887 424.33M254.018 416.418L200.224 400.381M254.018 416.418L254.152 449.968L254.273 483.33M200.224 400.381L272.361 376.218M200.224 400.381L148.065 384.827M323.89 358.96L272.361 376.218M272.361 376.218L220.348 361.388L148.078 384.827L97.4726 369.741L48.3544 355.099L0.669915 340.885L1.48723 372.222M494.853 301.69L529.822 289.971M529.822 289.971L582.33 302.723M529.822 289.971L510.14 285.197M582.33 302.723L581.58 332.92M582.33 302.723L522.533 323.426M459.106 407.823L521.314 384.894L580.829 362.956L581.58 332.92M459.106 407.823L394.004 431.825M459.106 407.823L459.548 376.54L459.99 345.082M394.004 431.825L325.806 456.967M394.004 431.825L394.272 399.885L394.54 367.757M325.806 456.967L254.273 483.33M325.806 456.967L325.887 424.33M254.273 483.33L200.787 466.367M200.787 466.367L148.922 449.914L98.598 433.944L49.7479 418.443L2.30451 403.385M200.787 466.367L200.505 433.475L200.224 400.394M581.58 332.92L521.931 354.24M521.931 354.24L459.562 376.54L394.285 399.871L325.887 424.33M521.931 354.24L521.328 384.894M521.931 354.24L522.533 323.426M325.887 424.33L254.152 449.981L200.519 433.475L148.507 417.464L98.0353 401.937L49.0512 386.865M49.0512 386.865L1.48723 372.222M49.0512 386.865L48.3544 355.112M49.0512 386.865L49.7345 418.443M1.48723 372.222L2.2911 403.385M398.599 366.349L394.553 367.757M394.553 367.757L384.21 364.927M522.533 323.426L483.759 313.651M522.533 323.426L460.004 345.082M148.922 449.901L148.493 417.464L148.065 384.84M98.5847 433.944L98.0219 401.937L97.4592 369.755L169.837 347L220.335 361.401L250.267 351.693M97.8612 312.096L73.1547 319.417M177.755 344.506L169.85 346.986L152.298 341.985M460.004 345.082L452.099 347.818M460.004 345.082L455.689 343.956" stroke="#F4F4F6" stroke-linecap="round" stroke-linejoin="round"/>
</g>
<defs>
<clipPath id="clip0_459_27731">
<rect width="583" height="484" fill="white" transform="matrix(-1 0 0 1 583 0)"/>
</clipPath>
</defs>
</svg>
