<svg width="850" height="362" viewBox="0 0 850 362" fill="none" xmlns="http://www.w3.org/2000/svg">
<g clip-path="url(#clip0_459_27680)">
<path d="M288.681 197.101L375.823 156.499L465.59 117.236L553.445 84.5947L634.942 62.8835L706.179 54.213L764.036 57.4432L806.414 68.2738L832.243 80.8045L841.364 89.925" stroke="#F4F4F6" stroke-linecap="round" stroke-linejoin="round"/>
<path d="M223.07 331.718L298.149 310.437L379.478 283.486L463.164 254.704L545.047 228.783L621.087 210.192L687.689 201.851L741.961 203.971L781.912 213.902L806.473 227.132L815.416 238.943" stroke="#F4F4F6" stroke-linecap="round" stroke-linejoin="round"/>
<path d="M331.901 0.5L395.532 2.01008L459.994 6.47033L523.358 11.7306" stroke="#F4F4F6" stroke-linecap="round" stroke-linejoin="round"/>
<path d="M512.177 16.5708L565.577 19.801L614.501 22.7911L650.144 25.1413" stroke="#F4F4F6" stroke-linecap="round" stroke-linejoin="round"/>
<path d="M267.101 355.07L215.404 361.45L173.066 361.5L136.343 359.97L104.682 347.629L83.1609 327.338L75.3271 302.057L82.4776 273.635L103.424 243.523L156.478 229.603L221.97 202.341L297.238 166.479L301.853 159.439L310.093 146.858L312.638 145.718" stroke="#F4F4F6" stroke-linecap="round" stroke-linejoin="round"/>
<path d="M778.555 273.135L735.405 289.476L731.622 293.476L716.439 294.056L690.858 290.846L687.6 290.126L677.102 288.366L655.364 285.576L625.573 280.405L625.435 280.375" stroke="#F4F4F6" stroke-linecap="round" stroke-linejoin="round"/>
<path d="M32.989 190.31L69.5434 169.269L112.783 157.249L156.111 158.509L192.903 174.86L198.667 186.79" stroke="#F4F4F6" stroke-linecap="round" stroke-linejoin="round"/>
<path d="M171.392 194.171L134.729 215.022L103.424 243.523L64.6212 241.173L41.0605 222.452L32.989 190.311" stroke="#F4F4F6" stroke-linecap="round" stroke-linejoin="round"/>
<path d="M771.692 28.2314L779.535 32.0317L791.855 37.982" stroke="#F4F4F6" stroke-linecap="round" stroke-linejoin="round"/>
<path d="M666.763 280.565L706.674 277.235L747.121 253.974L769.86 263.795L778.555 273.135" stroke="#F4F4F6" stroke-linecap="round" stroke-linejoin="round"/>
<path d="M368.188 119.707L362.681 80.0445L353.303 40.1923L342.478 12.4907" stroke="#F4F4F6" stroke-linecap="round" stroke-linejoin="round"/>
<path d="M748.755 23.5913L783.349 37.1721L806.414 68.2738L814.228 112.636L805.572 163.899L781.913 213.902L747.121 253.974L710.626 247.264L674.31 273.665L638.607 279.555" stroke="#F4F4F6" stroke-linecap="round" stroke-linejoin="round"/>
<path d="M195.419 186.58L188.447 184.2L162.984 175.51L120.23 179.53" stroke="#F4F4F6" stroke-linecap="round" stroke-linejoin="round"/>
<path d="M711.983 20.7111L743.169 30.1116L764.036 57.4431L771.137 99.8254L763.323 151.558L741.961 203.971L710.626 247.264L661.415 246.904L631.05 274.795L615.561 278.475L601.28 281.875" stroke="#F4F4F6" stroke-linecap="round" stroke-linejoin="round"/>
<path d="M214.919 184.24L195.607 158.399L159.627 136.907L117.408 128.997L75.3964 134.147L40.0107 150.068L16.6182 174.4L8.74485 204.741L7.44747 211.022L5.67472 219.582L0.495117 244.623" stroke="#F4F4F6" stroke-linecap="round" stroke-linejoin="round"/>
<path d="M223.07 331.718L209.056 302.967L203.876 268.525L208.442 233.533L221.97 202.341L242.174 178.53L249.235 174.97L265.745 165.699" stroke="#F4F4F6" stroke-linecap="round" stroke-linejoin="round"/>
<path d="M215.404 361.45L184.455 359.02L157.686 344.619L139.423 321.038L132.729 291.926L138.76 260.534L156.477 229.603L182.94 202.601L208.967 187.47L213.849 184.63" stroke="#F4F4F6" stroke-linecap="round" stroke-linejoin="round"/>
<path d="M780.496 31.6818L795.292 39.2622L808.078 45.8225" stroke="#F4F4F6" stroke-linecap="round" stroke-linejoin="round"/>
<path d="M17.6187 301.987L42.2193 320.808L83.161 327.338L139.424 321.038L209.056 302.967L289.196 275.465L376.16 242.113L465.709 207.592L553.317 177.3L634.596 156.339L705.635 147.818L763.323 151.558L805.572 163.899L831.302 179.14L840.364 191.791" stroke="#F4F4F6" stroke-linecap="round" stroke-linejoin="round"/>
<path d="M33.6128 296.966L41.506 270.115L64.6211 241.173L99.2244 213.232L139.879 192.481L180.315 185.59" stroke="#F4F4F6" stroke-linecap="round" stroke-linejoin="round"/>
<path d="M662.435 23.0513L688.61 29.4616L706.179 54.213L712.181 95.4953L705.634 147.818L687.689 201.851L661.415 246.904L601.319 254.624L578.521 281.716L556.198 288.216" stroke="#F4F4F6" stroke-linecap="round" stroke-linejoin="round"/>
<path d="M512.177 16.5708L500.808 39.8221L493.835 67.0236" stroke="#F4F4F6" stroke-linecap="round" stroke-linejoin="round"/>
<path d="M406.435 102.606L405.306 77.3943L402.296 37.9421L398.859 11.6307L395.531 2.01013" stroke="#F4F4F6" stroke-linecap="round" stroke-linejoin="round"/>
<path d="M120.23 179.53L112.782 157.249L117.407 128.997L133.461 98.7955L159.993 70.3739L195.725 46.5526" stroke="#F4F4F6" stroke-linecap="round" stroke-linejoin="round"/>
<path d="M601.934 33.3318L621.662 38.8721L634.942 62.8834L639.508 103.946L634.596 156.339L621.087 210.192L601.32 254.624L532.925 270.055L518.931 294.096L505.234 298.316" stroke="#F4F4F6" stroke-linecap="round" stroke-linejoin="round"/>
<path d="M547.156 42.0624L566.756 43.1624" stroke="#F4F4F6" stroke-linecap="round" stroke-linejoin="round"/>
<path d="M326.068 343.209L311.143 334.198L298.149 310.437L289.196 275.465L285.839 235.343L288.681 197.101" stroke="#F4F4F6" stroke-linecap="round" stroke-linejoin="round"/>
<path d="M602.429 33.2518L614.501 22.7912L639.092 20.4811" stroke="#F4F4F6" stroke-linecap="round" stroke-linejoin="round"/>
<path d="M203.213 187.02L192.903 174.86L195.607 158.399L206.927 140.428L226.229 122.837L252.602 107.226L284.967 94.6652L322.106 85.6247L362.681 80.0444L405.307 77.3943L448.566 76.9542L465.768 77.3542" stroke="#F4F4F6" stroke-linecap="round" stroke-linejoin="round"/>
<path d="M389.669 327.478L384.242 313.437L379.478 283.486L376.16 242.113L374.863 196.931L375.823 156.499L378.884 127.357L383.499 112.526" stroke="#F4F4F6" stroke-linecap="round" stroke-linejoin="round"/>
<path d="M849.505 139.238L840.393 127.667L814.228 112.636L771.137 99.8255L712.181 95.4952L639.508 103.946L556.297 125.907L466.57 158.579L374.863 196.931L285.839 235.343L203.876 268.525L132.728 291.926L75.3269 302.057L33.6128 296.966" stroke="#F4F4F6" stroke-linecap="round" stroke-linejoin="round"/>
<path d="M533.073 52.5629L545.235 59.5833L553.445 84.5946L556.297 125.907L553.316 177.3L545.047 228.783L532.925 270.055L459.38 290.826L384.241 313.437L311.143 334.198L243.531 350.079L184.455 359.02L136.343 359.97L100.928 352.799L65.9285 340.339L42.4569 323.428L38.8024 320.268L17.6185 301.987L8.6062 276.915L16.8559 250.004L41.0604 222.452L77.3969 197.141L120.23 179.53L139.879 192.481L171.392 194.171L202.975 187.08L203.213 187.02L213.849 184.63L214.919 184.24L224.377 180.79L227.447 179.67L230.24 178.65L231.042 178.36L248.68 171.919L265.744 165.699L272.479 162.829L300.803 150.758L310.093 146.858L312.638 145.718L333.099 136.137L333.753 135.827L348.182 129.067L368.188 119.707L383.499 112.526L406.436 102.606L448.189 84.5346L459.073 79.8244L465.768 77.3542L493.835 67.0237L533.073 52.5629ZM533.073 52.5629L544.027 49.5127L566.756 43.1624L601.933 33.3318L602.429 33.2518L650.144 25.1414L662.435 23.0512L669.536 22.7212L711.983 20.7111L748.755 23.5913L771.692 28.2315L780.496 31.6817L791.856 37.9821L794.064 39.0521L808.078 45.8225L817.12 52.0128L831.015 73.734L837.006 83.1146L841.364 89.9249L849.505 139.238L840.364 191.791L815.416 238.943L778.555 273.135L773.554 279.145L737.911 291.326L731.622 293.476L689.739 288.606L681.47 283.506L680.242 282.756L666.763 280.565L665.455 280.525L647.579 279.885L638.607 279.555L625.534 280.375H625.435L601.28 281.876L556.198 288.216L517.941 295.796L505.234 298.316L466.462 307.307L454.983 310.197L389.669 327.478L326.067 343.209L267.101 355.07L243.531 350.079L223.07 331.718L157.686 344.619L104.681 347.629L65.9285 340.339L42.2192 320.808L33.6129 296.966L8.6062 276.915L0.495117 244.623L8.72505 216.312L32.989 190.31L40.0107 150.068L61.2243 107.946L95.2631 69.5438L109.772 59.7033L140.453 38.9021L165.589 35.0919L214.978 15.4908L248.7 8.78046L271.063 4.32021L331.901 0.5L342.478 12.4907L398.859 11.6306L456.023 13.5107L512.177 16.5709L523.358 11.7306L583.681 16.5009L639.092 20.4811L669.536 22.7212" stroke="#F4F4F6" stroke-linecap="round" stroke-linejoin="round"/>
<path d="M272.479 162.829L270.409 149.288L252.602 107.226L226.308 71.524L195.726 46.5526" stroke="#F4F4F6" stroke-linecap="round" stroke-linejoin="round"/>
<path d="M300.803 150.758L299.377 138.818L284.968 94.6652L263.764 56.3931L239.153 28.9116L214.979 15.4908L194.864 18.111L184.98 21.8912L140.454 38.9021" stroke="#F4F4F6" stroke-linecap="round" stroke-linejoin="round"/>
<path d="M459.073 79.8243L462.946 90.1949L465.59 117.236L466.57 158.579L465.709 207.591L463.164 254.704L459.38 290.826L454.983 310.197" stroke="#F4F4F6" stroke-linecap="round" stroke-linejoin="round"/>
<path d="M735.405 289.476L727.155 283.346L684.847 283.496L680.241 282.756" stroke="#F4F4F6" stroke-linecap="round" stroke-linejoin="round"/>
<path d="M248.681 171.919L246.878 162.079L226.229 122.837L195.656 91.005L159.993 70.3738L124.756 62.8934L94.1936 97.0753L75.3965 134.147L69.5435 169.269L77.397 197.141L99.2247 213.232L134.729 215.022L182.94 202.601L218.613 188.11L222.812 186.4L231.161 183.01L242.174 178.53L249.235 174.97L272.707 164.319L276.104 162.729L300.863 151.208L310.044 146.928" stroke="#F4F4F6" stroke-linecap="round" stroke-linejoin="round"/>
<path d="M647.579 279.885L655.364 285.576L673.705 288.306L677.934 288.936L687.6 290.126L716.439 294.056" stroke="#F4F4F6" stroke-linecap="round" stroke-linejoin="round"/>
<path d="M815.416 238.943L809.246 246.034L779.248 273.865L773.554 279.145" stroke="#F4F4F6" stroke-linecap="round" stroke-linejoin="round"/>
<path d="M684.847 283.496L692.483 286.666" stroke="#F4F4F6" stroke-linecap="round" stroke-linejoin="round"/>
<path d="M547.156 42.0624L544.027 49.5128" stroke="#F4F4F6" stroke-linecap="round" stroke-linejoin="round"/>
<path d="M448.189 84.5346L448.566 76.9542L451.992 38.1821L456.023 13.5107L459.995 6.47034" stroke="#F4F4F6" stroke-linecap="round" stroke-linejoin="round"/>
<path d="M333.099 136.137L332.673 131.137L322.106 85.6247L306.597 46.0525L288.652 17.7809L271.063 4.32019" stroke="#F4F4F6" stroke-linecap="round" stroke-linejoin="round"/>
<path d="M227.447 179.67L229.755 176.33L246.878 162.079L270.409 149.288L299.377 138.818L332.673 131.137L348.182 129.067" stroke="#F4F4F6" stroke-linecap="round" stroke-linejoin="round"/>
<path d="M230.24 178.65L229.755 176.33L206.927 140.428L173.076 113.506L133.461 98.7954L94.1935 97.0753L61.2243 107.946L39.5056 130.557" stroke="#F4F4F6" stroke-linecap="round" stroke-linejoin="round"/>
<path d="M466.462 307.307L490.874 301.157L518.931 294.096L528.369 292.136L578.521 281.716L610.5 277.505L631.05 274.785L674.309 273.665L706.674 277.235L727.155 283.346L769.86 263.795L806.473 227.133L831.302 179.14L840.393 127.667L832.243 80.8045L808.078 45.8226L802.403 43.8425L783.348 37.1721L743.169 30.1117L688.61 29.4617L621.662 38.8722L545.235 59.5833L462.946 90.195L406.99 114.926L378.884 127.357L334.198 148.768L302.398 164.009L297.238 166.479L288.681 197.101L208.442 233.533L138.76 260.534L82.4775 273.635L41.5062 270.115L16.856 250.004L8.7251 216.312L16.6183 174.4L39.5056 130.557L59.61 108.476L62.6207 105.166L75.9015 90.575L95.2631 69.5439L124.756 62.8935L165.589 35.092L195.726 46.5526L239.153 28.9116L288.652 17.781L342.478 12.4907" stroke="#F4F4F6" stroke-linecap="round" stroke-linejoin="round"/>
<path d="M665.456 280.526L665.664 280.666L677.102 288.366L689.739 288.606L692.483 286.666L735.405 289.476" stroke="#F4F4F6" stroke-linecap="round" stroke-linejoin="round"/>
<path d="M194.864 18.111L213.79 14.8309L218.861 13.9508L248.7 8.78052" stroke="#F4F4F6" stroke-linecap="round" stroke-linejoin="round"/>
<path d="M202.975 187.08L198.667 186.79L195.419 186.58L180.316 185.59L162.984 175.51L156.111 158.509L159.627 136.907L173.076 113.506L195.656 91.005L226.308 71.5239L263.764 56.3931L306.597 46.0525L353.303 40.1922L402.296 37.942L451.992 38.1821L500.807 39.8221L547.156 42.0623L565.577 19.801L583.681 16.5009" stroke="#F4F4F6" stroke-linecap="round" stroke-linejoin="round"/>
</g>
<defs>
<clipPath id="clip0_459_27680">
<rect width="850" height="362" fill="white"/>
</clipPath>
</defs>
</svg>
