<svg width="556" height="556" viewBox="0 0 556 556" fill="none" xmlns="http://www.w3.org/2000/svg">
<path d="M474.606 81.4379C422.093 28.9243 352.251 0 278 0C203.749 0 133.951 28.9243 81.4379 81.4379C28.9243 133.951 0 203.749 0 278C0 352.251 28.9243 422.093 81.4379 474.562C133.951 527.076 203.749 556 278 556C352.251 556 422.093 527.076 474.562 474.562C527.076 422.049 556 352.251 556 278C556 203.749 527.076 133.907 474.562 81.4379H474.606ZM448.592 496.344C449.959 494.756 451.237 492.993 452.34 491.053C462.525 483.469 471.873 475.488 480.206 467.331C480.03 467.596 479.765 467.86 479.589 468.125C469.977 478.31 459.615 487.746 448.592 496.388V496.344ZM386.378 533.204C385.276 533.072 383.909 532.455 382.366 531.22C394.844 525.841 406.969 519.756 418.565 513.143C418.389 515.083 417.948 516.538 417.287 517.596C407.366 523.372 397.048 528.663 386.378 533.204ZM278.044 555.25C269.623 555.25 261.245 554.81 253 554.06C247.003 553.134 241.007 551.811 235.143 550.004C247.665 550.533 261.421 549.827 276.236 547.755C285.54 551.414 294.799 553.399 303.97 553.663C301.854 553.972 299.781 554.192 297.709 554.413C291.228 554.854 284.658 555.206 278.044 555.206V555.25ZM86.773 77.6019C88.2722 76.4114 89.7713 75.2209 91.4027 74.1186C85.4062 80.2915 80.2474 86.6408 76.0587 92.9459C68.7394 98.6338 62.1256 104.939 56.2614 111.773C65.4766 99.5156 75.706 88.1399 86.773 77.5578V77.6019ZM278 0.793656C285.54 0.793656 292.991 1.19048 300.399 1.76368C304.191 2.29278 307.894 2.95416 311.289 3.836C297.4 3.3069 283.335 4.49738 269.182 7.40745C262.921 5.82014 255.822 4.9824 248.017 4.85012C254.852 2.91007 261.73 1.6755 268.608 1.01412C271.739 0.925932 274.825 0.793656 278 0.793656ZM327.163 5.24695C341.272 7.80428 355.029 11.3757 368.345 16.0054C372.445 17.8132 376.281 19.7973 379.72 22.0901C365.082 17.5045 349.782 14.5504 334.129 13.2276C328.089 9.25932 320.769 6.17288 312.348 4.01237C316.051 4.18874 318.785 4.36511 321.298 4.58557C318.212 4.27692 315.081 4.05646 311.951 3.92419C308.644 3.08644 305.072 2.42506 301.413 1.89596C310.011 2.60143 318.476 3.74782 326.854 5.24695C324.958 4.9824 323.194 4.76194 321.298 4.58557C323.283 4.76194 325.223 5.02649 327.163 5.29104V5.24695ZM477.34 85.6707C478.795 87.5667 480.118 89.5508 481.308 91.5791C469.624 80.2474 456.705 70.3267 442.816 61.7729C439.244 55.6441 434.482 50.2208 428.618 45.4588C446.343 56.9669 462.657 70.459 477.296 85.6266L477.34 85.6707ZM417.331 497.446C431.572 489.245 445.109 480.426 457.631 471.079C456.837 479.015 454.897 485.717 451.899 491.141C441.669 498.725 430.602 505.956 419.006 512.658C419.315 508.998 418.742 503.927 417.287 497.446H417.331ZM163.052 32.2753C157.497 34.7886 152.161 37.5664 147.047 40.6087C143.652 38.9332 140.83 38.2718 138.581 38.5364C146.518 33.9067 154.675 29.6739 163.052 25.8379C162.611 26.9843 162.611 29.1007 163.052 32.2753ZM153.969 60.7147C154.631 59.7447 155.424 58.7746 156.35 57.8046C160.803 57.8928 165.345 58.2014 170.063 58.6864C165.389 58.2014 160.848 57.8928 156.394 57.7605C157.32 56.7905 158.378 55.8646 159.525 54.9827C162.92 56.0409 166.447 57.2314 170.063 58.6864C166.447 57.2314 162.964 55.9968 159.569 54.9386C160.715 54.0568 161.95 53.219 163.273 52.4254C165.433 54.3213 167.682 56.3937 170.063 58.6864C167.726 56.3937 165.477 54.2772 163.361 52.3813C164.684 51.5876 166.05 50.8822 167.505 50.2208C168.255 52.8222 169.137 55.6441 170.107 58.6424C169.181 55.6 168.343 52.7781 167.594 50.1767C169.005 49.5153 170.504 48.9862 171.959 48.5012C171.253 51.6758 170.636 55.0268 170.107 58.6424C170.68 55.0268 171.297 51.6758 172.047 48.5012C172.973 48.1925 173.899 47.9721 174.869 47.7516C175.442 47.6194 175.971 47.5312 176.5 47.443C174.296 50.9703 172.179 54.7182 170.151 58.6424C172.223 54.6741 174.34 50.9263 176.544 47.443C177.955 47.2225 179.278 47.0902 180.469 47.1343C176.941 50.7499 173.502 54.63 170.107 58.6864C173.502 54.63 176.985 50.794 180.513 47.1343C181.703 47.1343 182.805 47.2666 183.775 47.5312C179.19 51.0144 174.604 54.7623 170.107 58.6864C174.648 54.7623 179.19 51.0585 183.82 47.5312C184.79 47.7957 185.627 48.1485 186.289 48.5894C180.865 51.7199 175.442 55.115 170.107 58.6864C175.486 55.115 180.865 51.764 186.333 48.6335C186.994 49.0744 187.567 49.6476 187.92 50.2649C181.968 52.8663 176.015 55.6882 170.107 58.6864C176.015 55.6882 181.968 52.8663 187.92 50.309C188.273 50.9703 188.493 51.6758 188.537 52.4695C182.364 54.3213 176.236 56.3937 170.107 58.6864C176.192 56.4378 182.364 54.3654 188.537 52.5136C188.537 53.3072 188.405 54.2332 188.052 55.1591C182.056 56.1291 176.059 57.3196 170.107 58.6864C176.059 57.3196 182.012 56.1732 188.008 55.2032C188.008 55.2032 188.008 55.2914 187.964 55.3355C187.611 56.2614 187.082 57.1873 186.421 58.1132C180.954 58.1132 175.486 58.2896 170.107 58.6424C175.486 58.2896 180.954 58.1132 186.421 58.1573C185.715 59.1274 184.878 60.0974 183.952 61.0674C179.278 60.0974 174.692 59.3037 170.151 58.6864C174.692 59.3037 179.278 60.1415 183.908 61.1115C182.938 62.0374 181.879 62.9634 180.689 63.8452C177.118 61.9492 173.59 60.2297 170.151 58.6864C173.59 60.2738 177.073 61.9933 180.645 63.8893C179.454 64.7711 178.22 65.6089 176.853 66.3584C174.56 63.6247 172.312 61.0674 170.151 58.6864C172.312 61.1115 174.516 63.6688 176.809 66.4025C175.486 67.1521 174.075 67.8576 172.62 68.4749C171.694 65.0357 170.901 61.7729 170.151 58.6864C170.856 61.817 171.694 65.0798 172.576 68.519C171.121 69.1362 169.666 69.6653 168.167 70.1063C168.74 66.138 169.401 62.3461 170.151 58.6864C169.357 62.3461 168.696 66.1821 168.079 70.1063C167.373 70.3267 166.668 70.5031 165.962 70.6354C165.169 70.8117 164.419 70.944 163.714 71.0322C165.742 66.7553 167.902 62.6106 170.151 58.6424C167.858 62.6106 165.698 66.7553 163.625 71.0322C162.259 71.2086 160.936 71.2968 159.789 71.2527C163.14 66.8876 166.58 62.6988 170.151 58.6424C166.58 62.6988 163.096 66.8876 159.745 71.2527C158.555 71.2086 157.541 71.0322 156.615 70.7676C161.024 66.5789 165.521 62.5224 170.195 58.6424C165.521 62.5224 160.98 66.5789 156.571 70.7676C155.645 70.5031 154.851 70.1063 154.234 69.6213C159.393 65.8293 164.728 62.1697 170.195 58.6424C164.728 62.1256 159.393 65.7853 154.234 69.5772C153.616 69.0922 153.131 68.519 152.779 67.8576C158.467 64.6389 164.243 61.5524 170.195 58.6424C164.243 61.5524 158.423 64.5948 152.735 67.8135C152.426 67.1521 152.25 66.4025 152.294 65.5648C158.114 63.0956 164.066 60.8029 170.195 58.6424C164.11 60.7588 158.114 63.0956 152.294 65.5207C152.294 64.8152 152.514 64.0216 152.823 63.1838C161.906 60.4501 167.638 59.3919 167.726 59.3478V59.0392C167.726 59.0392 161.95 60.1415 152.955 62.787C153.396 61.817 153.484 61.5965 154.057 60.6706C159.304 59.7887 164.64 59.1274 170.151 58.5983C164.64 59.0833 159.304 59.7887 154.102 60.6265L153.969 60.7147ZM151.809 68.3426C135.318 77.7342 120.018 88.4485 106.085 100.133C104.851 97.5756 104.278 94.6655 104.366 91.4909C118.74 81.7906 134.436 73.2368 151.324 66.0057C151.324 66.8876 151.456 67.6812 151.765 68.3426H151.809ZM153.352 70.1945C138.272 81.3056 124.339 93.6073 111.685 106.923C109.26 105.071 107.364 102.867 106.129 100.309C120.062 88.5808 135.362 77.8665 151.809 68.4308C152.161 69.1362 152.646 69.7535 153.308 70.2385L153.352 70.1945ZM188.802 55.115C206.306 52.3372 224.076 51.1908 241.889 51.5435C241.845 51.7199 241.756 51.8963 241.712 52.0286C240.345 55.6 238.317 59.1715 235.848 62.7429C219.49 59.7887 203.176 58.2014 187.171 58.1573C187.876 57.1873 188.405 56.2173 188.758 55.2473C188.758 55.2032 188.758 55.1591 188.802 55.115ZM188.714 49.9562C206.13 42.4606 223.855 36.6845 241.536 32.6281C242.947 35.0972 243.741 37.9191 243.829 41.0056C225.575 43.122 207.321 46.8257 189.331 52.249C189.331 51.4113 189.111 50.6176 188.714 49.9562ZM189.331 52.2931C207.321 46.9139 225.575 43.2542 243.829 41.1819C243.917 44.3125 243.3 47.7075 241.933 51.4113C224.12 51.1026 206.306 52.2931 188.802 55.115C189.155 54.1009 189.331 53.1749 189.331 52.3372V52.2931ZM242.726 51.5876C260.54 51.9845 278.353 53.8804 295.945 57.1432C295.857 57.4078 295.725 57.7164 295.637 57.981C293.3 63.9334 289.949 69.974 285.76 76.0146C269.446 70.3708 253 65.9616 236.598 62.9193C239.155 59.3037 241.139 55.6882 242.55 52.0726C242.594 51.8963 242.682 51.7199 242.726 51.5876ZM138.581 160.318C143.299 159.657 148.193 158.775 153.22 157.673C157.849 156.659 162.479 155.468 167.065 154.146C168.431 169.578 170.46 185.715 173.149 202.294C166.932 204.102 160.671 205.689 154.41 207.056C147.576 208.555 140.962 209.746 134.613 210.672C135.054 193.432 136.332 176.544 138.581 160.363V160.318ZM134.04 210.716C121.87 212.391 110.539 212.964 100.221 212.567C103.44 195.151 107.761 178.132 113.14 161.729C120.768 162.038 129.145 161.597 138.14 160.363C135.892 176.588 134.525 193.476 134.04 210.716ZM167.55 153.969C177.206 151.147 186.774 147.664 196.121 143.696C201.104 157.849 206.571 172.752 212.479 188.185C199.825 193.608 186.862 198.282 173.811 202.118C171.077 185.583 168.961 169.446 167.55 154.013V153.969ZM196.562 143.475C205.91 139.463 214.993 134.877 223.679 129.939C232.1 142.373 240.83 155.645 249.737 169.578C238.009 176.28 225.707 182.453 213.097 187.92C207.188 172.532 201.633 157.629 196.606 143.519L196.562 143.475ZM393.036 195.989C405.117 209.305 416.581 223.238 427.119 237.568C414.2 250.266 399.694 262.612 383.909 274.384C374.253 259.261 363.979 244.358 353.309 229.852C367.815 219.049 381.175 207.673 393.036 195.989ZM352.78 229.146C342.11 214.64 330.999 200.53 319.623 186.994C332.277 177.558 343.962 167.638 354.323 157.453C367.551 169.401 380.338 182.1 392.419 195.372C380.558 207.012 367.242 218.344 352.736 229.146H352.78ZM277.824 213.405C268.697 198.414 259.614 183.864 250.707 169.931C262.48 163.184 273.635 155.865 284.041 148.149C295.637 160.318 307.233 173.282 318.521 186.818C305.866 196.209 292.198 205.16 277.824 213.405ZM319.05 187.435C330.381 200.971 341.448 215.125 352.119 229.675C337.612 240.478 321.96 250.707 305.513 260.143C296.519 244.534 287.392 229.102 278.309 214.111C292.683 205.821 306.395 196.871 319.094 187.435H319.05ZM319.094 186.377C307.718 172.841 296.166 159.922 284.482 147.796C294.843 140.08 304.367 131.967 312.833 123.634C326.766 133.819 340.478 144.974 353.706 156.879C343.344 167.02 331.748 176.941 319.094 186.377ZM312.171 123.149C303.75 131.438 294.226 139.507 283.952 147.179C272.312 135.054 260.584 123.722 248.987 113.405C256.615 107.717 263.626 101.764 269.843 95.6355C284.041 103.748 298.238 112.964 312.171 123.149ZM270.152 95.3269C276.369 89.1981 281.792 82.8929 286.289 76.5878C302.559 82.3198 318.697 89.2863 334.438 97.3992C328.397 105.953 321.034 114.463 312.612 122.752C298.635 112.611 284.437 103.44 270.152 95.3269ZM283.467 147.532C273.15 155.204 261.995 162.479 250.266 169.225C241.315 155.336 232.541 142.064 224.076 129.675C232.718 124.692 240.963 119.313 248.635 113.625C260.187 123.987 271.871 135.362 283.467 147.488V147.532ZM250.134 170.195C259.04 184.128 268.079 198.723 277.162 213.758C262.788 222.003 247.709 229.543 232.233 236.201C225.619 219.975 219.269 204.014 213.361 188.581C226.06 183.114 238.405 176.941 250.178 170.195H250.134ZM277.559 214.463C286.642 229.499 295.725 244.931 304.676 260.584C288.185 270.019 270.901 278.661 253.176 286.333C246.077 269.755 239.155 253.264 232.497 236.994C248.017 230.292 263.141 222.753 277.559 214.463ZM305.117 261.333C314.067 276.986 322.93 292.815 331.484 308.644C313.538 318.917 294.711 328.353 275.354 336.686C267.947 320.284 260.628 303.706 253.485 287.127C271.254 279.455 288.582 270.813 305.073 261.333H305.117ZM305.91 260.892C322.401 251.413 338.053 241.139 352.604 230.337C363.274 244.887 373.503 259.79 383.159 274.914C367.33 286.642 350.311 297.797 332.365 308.115C323.767 292.286 314.905 276.501 305.91 260.848V260.892ZM383.6 275.663C393.256 290.787 402.295 306.087 410.585 321.431C394.094 333.688 376.325 345.328 357.63 356.087C349.694 340.522 341.36 324.738 332.762 308.953C350.708 298.635 367.771 287.48 383.6 275.707V275.663ZM384.35 275.09C400.135 263.317 414.685 250.928 427.604 238.229C438.142 252.603 447.842 267.374 456.44 282.409C442.992 295.637 427.825 308.512 411.378 320.813C403.089 305.513 394.006 290.213 384.35 275.09ZM393.565 195.46C405.382 183.775 415.743 171.826 424.253 159.745C437.481 171.782 449.827 184.613 461.07 198.149C451.811 211.245 440.567 224.296 427.692 236.994C417.11 222.665 405.646 208.776 393.565 195.46ZM392.992 194.843C380.867 181.571 368.08 168.872 354.808 156.967C365.126 146.782 374.165 136.332 381.616 125.794C396.299 136.024 410.408 147.179 423.636 159.172C415.126 171.209 404.809 183.158 392.992 194.798V194.843ZM354.191 156.438C340.919 144.534 327.207 133.422 313.23 123.281C321.651 114.948 329.059 106.394 335.099 97.796C350.84 105.909 366.184 115.124 380.911 125.354C373.503 135.847 364.509 146.297 354.191 156.438ZM286.466 76.3232C290.699 70.2826 294.094 64.1979 296.43 58.2014C296.519 57.9369 296.651 57.6282 296.739 57.3637C314.332 60.6706 331.66 65.3884 348.547 71.3849C348.415 71.7818 348.239 72.1345 348.106 72.5313C344.932 80.6443 340.39 88.8895 334.658 97.0465C318.917 88.9776 302.736 82.0552 286.466 76.3673V76.3232ZM285.496 76.3232C281.042 82.6284 275.663 88.8895 269.49 94.9742C255.249 86.9053 240.963 79.9829 226.809 74.3391C230.513 70.6795 233.776 66.8876 236.465 63.1397C252.823 66.1821 269.226 70.6354 285.54 76.3232H285.496ZM269.182 95.2828C262.965 101.367 255.998 107.32 248.414 112.964C236.818 102.646 225.31 93.2987 214.111 85.1857C218.652 81.7906 222.841 78.2192 226.589 74.5596C240.654 80.2474 254.94 87.214 269.138 95.3269L269.182 95.2828ZM248.062 113.228C240.478 118.872 232.277 124.207 223.679 129.19C215.213 116.844 207.012 105.336 199.252 94.9301C204.41 91.9318 209.349 88.7131 213.934 85.318C225.09 93.5191 236.509 102.867 248.062 113.228ZM223.238 129.41C214.596 134.348 205.557 138.89 196.298 142.858C191.271 128.749 186.73 115.433 182.761 103.131C188.361 100.706 193.784 98.0165 198.987 95.0182C206.703 105.468 214.816 116.976 223.238 129.366V129.41ZM195.857 143.079C186.553 147.047 177.029 150.53 167.461 153.308C166.095 137.92 165.389 123.193 165.433 109.436C171.209 107.761 176.941 105.689 182.541 103.263C186.421 115.609 190.918 128.925 195.901 143.034L195.857 143.079ZM166.976 153.44C162.391 154.763 157.805 155.953 153.22 156.967C148.193 158.07 143.343 158.952 138.669 159.613C140.918 143.431 144.049 127.867 148.105 113.228C150.927 112.831 153.837 112.302 156.879 111.641C159.657 111.024 162.391 110.318 165.169 109.525C165.036 123.281 165.698 138.008 167.02 153.44H166.976ZM138.228 159.657C129.278 160.892 120.944 161.333 113.361 161.024C118.784 144.666 125.309 128.925 132.893 114.11C137.435 114.286 142.461 114.022 147.84 113.316C143.74 127.955 140.521 143.519 138.228 159.701V159.657ZM113.008 160.98C105.468 160.627 98.6338 159.569 92.6814 157.805C100.706 141.844 110.01 126.544 120.459 112.17C124.031 113.228 128.131 113.89 132.673 114.066C125.045 128.881 118.475 144.622 113.008 160.98ZM92.4168 157.717C86.4644 155.909 81.3938 153.44 77.2492 150.354C87.2581 135.318 98.5456 120.988 111.156 107.673C113.625 109.525 116.712 111.024 120.283 112.082C109.789 126.456 100.486 141.756 92.4168 157.717ZM112.743 161.774C107.32 178.176 102.955 195.195 99.692 212.612C89.4186 212.171 80.1592 210.672 72.0463 208.291C77.5137 191.227 84.3039 174.604 92.2845 158.599C98.2811 160.363 105.115 161.465 112.743 161.818V161.774ZM100.045 213.449C110.406 213.89 121.738 213.273 133.996 211.597C133.555 228.882 133.996 246.518 135.362 264.287C120.415 266.36 106.57 267.065 93.9159 266.536C94.8419 248.635 96.8701 230.866 100.045 213.449ZM134.569 211.509C140.962 210.627 147.62 209.393 154.454 207.894C160.715 206.527 167.02 204.895 173.282 203.088C176.015 219.666 179.366 236.686 183.335 253.882C175.707 256.086 168.035 258.07 160.363 259.746C151.985 261.598 143.872 263.053 136.068 264.155C134.701 246.386 134.172 228.749 134.569 211.509ZM173.899 202.911C186.994 199.075 200.001 194.357 212.7 188.934C218.608 204.366 224.869 220.372 231.439 236.598C215.963 243.256 200.045 248.987 184.04 253.661C180.028 236.465 176.633 219.49 173.855 202.911H173.899ZM231.748 237.391C238.317 253.661 245.24 270.196 252.294 286.774C234.525 294.402 216.315 300.972 197.973 306.307C192.814 289.023 188.229 271.651 184.216 254.499C200.266 249.825 216.183 244.049 231.703 237.391H231.748ZM252.647 287.568C259.746 304.147 267.021 320.769 274.429 337.171C255.072 345.461 235.231 352.648 215.257 358.468C209.084 341.625 203.396 324.429 198.238 307.145C216.624 301.81 234.834 295.196 252.647 287.568ZM274.781 337.921C282.189 354.323 289.684 370.505 297.224 386.29C277.03 394.932 256.351 402.428 235.495 408.512C228.397 392.595 221.739 376.105 215.522 359.262C235.539 353.441 255.381 346.254 274.737 337.921H274.781ZM275.707 337.524C295.064 329.191 313.891 319.755 331.88 309.438C340.478 325.267 348.768 341.052 356.704 356.616C337.965 367.33 318.344 377.163 298.194 385.849C290.654 370.108 283.159 353.926 275.707 337.524ZM357.057 357.366C360.805 364.729 364.464 372.004 368.036 379.235C372.004 387.26 375.708 394.976 379.191 402.428C360.496 413.142 340.875 422.974 320.725 431.661C317.021 424.341 313.141 416.669 309.217 408.645C305.646 401.414 302.118 394.094 298.547 386.643C318.697 377.957 338.362 368.124 357.057 357.41V357.366ZM368.918 378.706C365.346 371.475 361.687 364.2 357.939 356.836C376.634 346.078 394.447 334.438 410.937 322.18C414.862 329.411 418.609 336.686 422.137 343.873C426.105 351.898 429.721 359.702 432.983 367.242C416.493 379.5 398.724 391.096 380.073 401.854C376.59 394.447 372.842 386.687 368.918 378.662V378.706ZM433.336 367.948C439.553 382.278 444.58 395.682 448.416 408.115C432.631 419.844 415.611 430.955 397.754 441.229C392.816 429.5 387.04 416.581 380.426 402.516C399.121 391.757 416.846 380.161 433.336 367.904V367.948ZM422.974 343.3C419.403 336.069 415.655 328.838 411.775 321.607C428.221 309.349 443.389 296.43 456.881 283.203C460.938 290.346 464.774 297.489 468.301 304.72C472.269 312.745 475.797 320.637 478.883 328.309C465.435 341.537 450.267 354.411 433.865 366.669C430.558 359.129 426.943 351.325 423.019 343.3H422.974ZM428.221 237.7C441.096 225.001 452.34 211.95 461.643 198.811C472.887 212.347 483.028 226.589 491.89 241.36C482.234 255.028 470.506 268.608 457.102 281.836C448.504 266.801 438.803 252.03 428.266 237.656L428.221 237.7ZM424.65 159.216C432.719 147.708 439.156 136.156 443.565 124.692C443.786 124.163 443.962 123.634 444.183 123.061C458.116 133.775 471.035 145.548 482.763 158.246C482.543 158.819 482.322 159.393 482.102 160.01C477.252 172.444 470.285 185.01 461.511 197.532C450.223 184.04 437.878 171.209 424.65 159.172V159.216ZM442.904 124.207C438.451 135.627 432.057 147.179 423.989 158.643C410.761 146.65 396.652 135.495 381.925 125.309C388.98 115.256 394.579 105.159 398.459 95.1946C398.636 94.7096 398.812 94.2687 398.988 93.7837C414.641 102.249 429.544 111.905 443.521 122.576C443.301 123.105 443.125 123.634 442.904 124.163V124.207ZM397.754 94.7978C393.874 104.763 388.318 114.816 381.263 124.869C366.537 114.683 351.149 105.512 335.408 97.3992C341.184 89.1981 345.725 80.9529 348.9 72.7959C349.032 72.3991 349.209 72.0463 349.341 71.6495C366.228 77.6901 382.586 84.9653 398.283 93.3868C398.107 93.8719 397.93 94.3128 397.754 94.7978ZM296.827 57.055C299.12 50.8381 300.134 45.062 300.002 39.771C317.991 40.8733 335.761 43.5188 353 47.5753C353.177 54.7182 351.766 62.5224 348.679 70.944C331.792 64.9916 314.42 60.3178 296.827 57.055ZM295.99 56.8787C278.397 53.6159 260.54 51.764 242.726 51.4113C244.093 47.6634 244.711 44.2243 244.622 41.0937C262.876 39.0655 281.131 38.6246 299.12 39.6828C299.252 44.9297 298.238 50.6617 295.945 56.8787H295.99ZM235.628 63.0075C232.982 66.7553 229.763 70.459 226.104 74.1186C211.994 68.519 198.017 64.1979 184.481 61.2879C185.495 60.3178 186.377 59.3037 187.082 58.2455C203.044 58.3337 219.314 59.9651 235.672 62.9634L235.628 63.0075ZM225.927 74.295C222.224 77.9106 218.079 81.4379 213.582 84.833C202.382 76.7201 191.492 69.7976 181.042 64.242C182.276 63.3161 183.379 62.3461 184.393 61.3761C197.929 64.2861 211.818 68.6512 225.883 74.295H225.927ZM213.361 84.9653C208.864 88.3163 203.97 91.4909 198.855 94.445C191.095 84.0834 183.775 74.78 177.029 66.8435C178.44 66.0498 179.763 65.168 180.998 64.242C191.359 69.8417 202.25 76.8083 213.361 84.9653ZM198.59 94.5773C193.476 97.5315 188.096 100.221 182.541 102.602C178.617 90.3445 175.266 79.0569 172.576 69.0481C174.075 68.3867 175.53 67.6812 176.941 66.8876C183.643 74.8682 190.874 84.2157 198.59 94.6214V94.5773ZM182.32 102.69C176.809 105.071 171.121 107.099 165.433 108.775C165.521 95.0623 166.315 82.2757 167.946 70.7236C169.49 70.2826 171.033 69.7094 172.532 69.0481C175.133 79.101 178.44 90.3886 182.32 102.69ZM165.125 108.863C162.391 109.657 159.657 110.362 156.923 110.935C153.925 111.597 151.059 112.126 148.237 112.523C152.338 97.9283 157.32 84.2598 163.229 71.7377C163.978 71.6495 164.772 71.4731 165.61 71.2968C166.359 71.1204 167.109 70.944 167.858 70.7236C166.183 82.3198 165.257 95.1064 165.125 108.819V108.863ZM148.017 112.567C142.682 113.316 137.743 113.537 133.246 113.361C140.83 98.5456 149.516 84.7007 159.172 71.9581C160.407 72.0022 161.729 71.9581 163.184 71.7377C157.188 84.2598 152.161 97.9283 148.017 112.523V112.567ZM133.026 113.361C128.528 113.14 124.472 112.523 120.944 111.465C131.438 97.1347 143.079 83.6866 155.821 71.4731C156.791 71.7377 157.893 71.914 159.128 72.0022C149.384 84.7007 140.698 98.5897 133.026 113.405V113.361ZM120.768 111.42C117.241 110.362 114.198 108.907 111.773 107.055C124.384 93.7396 138.272 81.3938 153.352 70.2826C154.013 70.7676 154.851 71.1645 155.821 71.4731C143.034 83.6866 131.35 97.0906 120.812 111.42H120.768ZM111.024 107.584C98.4133 120.9 87.0376 135.186 77.0287 150.221C72.9282 147.091 69.7976 143.387 67.7253 139.066C78.9247 125.442 91.4909 112.655 105.424 100.882C106.659 103.484 108.554 105.733 111.024 107.584ZM92.02 158.467C83.9952 174.428 77.161 191.095 71.6495 208.114C63.5807 205.689 56.6582 202.338 51.0585 198.105C58.2455 181.879 66.8435 166.095 76.7642 151.059C80.9088 154.19 86.0235 156.659 92.02 158.467ZM71.429 208.908C65.9616 225.971 61.7729 243.432 58.951 261.025C49.0744 258.026 40.5646 253.926 33.6863 248.767C37.875 231.836 43.607 215.125 50.7058 198.899C56.3496 203.132 63.272 206.483 71.3849 208.952L71.429 208.908ZM71.8259 209.04C79.9829 211.465 89.2863 212.92 99.6038 213.405C96.3851 230.822 94.3128 248.591 93.3427 266.492C80.7324 265.919 69.4008 264.111 59.436 261.157C62.2138 243.564 66.4025 226.104 71.8259 209.04ZM93.8719 267.33C106.526 267.859 120.459 267.153 135.407 265.081C136.773 282.85 139.022 300.707 142.153 318.432C125.045 320.813 109.128 321.607 94.6655 321.034C93.2546 303.221 92.99 285.231 93.8719 267.374V267.33ZM136.156 264.949C144.004 263.846 152.117 262.391 160.495 260.54C168.167 258.864 175.839 256.88 183.511 254.675C187.479 271.871 192.065 289.243 197.179 306.528C188.405 309.041 179.631 311.289 170.856 313.23C161.244 315.346 151.985 317.021 143.034 318.3C139.86 300.575 137.567 282.718 136.156 264.993V264.949ZM171.077 314.067C179.851 312.127 188.67 309.879 197.444 307.321C202.559 324.605 208.246 341.801 214.375 358.644C204.807 361.422 195.239 363.847 185.671 365.964C175.222 368.256 165.08 370.108 155.336 371.475C150.398 354.367 146.341 336.819 143.167 319.094C152.161 317.815 161.465 316.14 171.033 314.023L171.077 314.067ZM185.98 366.801C195.548 364.685 205.116 362.26 214.684 359.482C220.857 376.325 227.515 392.816 234.613 408.733C224.649 411.599 214.684 414.156 204.719 416.361C193.828 418.786 183.246 420.682 173.105 422.093C166.447 406.087 160.627 389.42 155.645 372.313C165.433 370.946 175.53 369.094 186.024 366.801H185.98ZM205.028 417.11C214.993 414.906 225.001 412.348 234.966 409.482C238.317 417.022 241.8 424.385 245.328 431.617C249.296 439.641 253.264 447.269 257.233 454.5C247.268 457.366 237.303 459.924 227.338 462.128C216.448 464.509 205.91 466.449 195.724 467.86C191.536 460.717 187.435 453.089 183.467 445.065C179.895 437.833 176.544 430.426 173.37 422.886C183.555 421.475 194.093 419.535 205.028 417.154V417.11ZM246.298 431.308C242.726 424.077 239.287 416.713 235.892 409.174C256.748 403.089 277.427 395.593 297.621 386.951C301.192 394.403 304.764 401.766 308.291 408.953C312.259 416.978 316.095 424.65 319.799 431.969C299.649 440.611 278.97 448.107 258.115 454.148C254.146 446.916 250.178 439.289 246.254 431.264L246.298 431.308ZM320.196 432.631C327.251 446.476 333.909 458.954 340.082 470.065C320.769 478.354 300.972 485.497 281.042 491.317C273.635 480.647 266.095 468.477 258.555 454.809C279.367 448.724 300.046 441.273 320.196 432.631ZM321.122 432.234C341.272 423.548 360.849 413.715 379.588 403.045C386.202 417.11 391.978 430.029 396.96 441.758C379.059 452.031 360.276 461.423 340.963 469.712C334.835 458.601 328.177 446.079 321.122 432.234ZM397.181 442.287C402.119 453.971 406.22 464.465 409.438 473.636C393.036 483.028 375.796 491.67 358.159 499.254C353.045 491.008 347.401 481.308 341.272 470.241C360.54 461.952 379.279 452.56 397.181 442.287ZM398.018 441.802C415.876 431.528 432.895 420.417 448.636 408.689C452.472 421.079 455.118 432.498 456.617 442.816C442.154 453.574 426.59 463.76 410.188 473.195C406.969 463.98 402.913 453.486 398.018 441.802ZM434.13 367.374C450.576 355.117 465.7 342.242 479.148 329.014C485.012 343.609 489.377 357.63 492.287 370.858C479.412 383.512 464.906 395.858 449.165 407.586C445.329 395.152 440.303 381.704 434.13 367.374ZM468.918 304.102C465.347 296.871 461.555 289.684 457.499 282.586C470.902 269.358 482.631 255.734 492.331 242.065C496.52 249.076 500.356 256.174 503.927 263.406C507.896 271.43 511.335 279.411 514.333 287.259C504.677 300.928 492.948 314.508 479.545 327.736C476.414 320.02 472.887 312.171 468.962 304.147L468.918 304.102ZM462.084 198.238C470.858 185.715 477.869 173.105 482.719 160.671C482.94 160.098 483.16 159.481 483.381 158.908C495.065 171.65 505.559 185.275 514.554 199.781C514.333 200.398 514.113 201.015 513.848 201.589C508.822 214.552 501.546 227.691 492.375 240.742C483.513 225.971 473.372 211.774 462.084 198.238ZM444.447 122.576C448.812 110.715 450.752 99.692 450.532 89.6831C464.686 99.207 477.825 109.965 489.686 121.914C489.95 132.805 487.834 144.798 483.072 157.673C471.343 144.974 458.38 133.246 444.447 122.532V122.576ZM443.786 122.047C429.809 111.376 414.906 101.764 399.253 93.2987C403.045 82.937 404.764 73.325 404.544 64.5948C420.505 71.5172 435.673 79.7183 449.826 89.2422C450.091 99.2511 448.107 110.23 443.786 122.091V122.047ZM398.503 92.9018C382.807 84.4803 366.404 77.2051 349.517 71.2527C352.648 62.787 354.015 54.9386 353.838 47.7957C371.078 51.8963 387.789 57.4078 403.75 64.2861C403.971 73.0163 402.251 82.5843 398.459 92.9459L398.503 92.9018ZM353.838 47.443C353.618 40.3001 351.81 33.8627 348.591 28.2189C365.39 30.7321 381.748 34.8327 397.357 40.3883C401.281 47.3107 403.486 55.1591 403.794 63.8452C387.833 57.0109 371.122 51.4994 353.882 47.443H353.838ZM353.045 47.2666C335.805 43.2542 318.08 40.6528 300.046 39.5505C299.87 34.3036 298.547 29.5416 296.166 25.397C313.67 24.7356 330.954 25.6615 347.798 28.1307C351.016 33.7745 352.824 40.1678 353.045 47.2666ZM299.208 39.5064C281.219 38.4482 262.965 38.9332 244.711 41.0056C244.622 37.875 243.829 35.009 242.374 32.5399C260.099 28.5275 277.824 26.1906 295.372 25.4411C297.753 29.5857 299.076 34.3036 299.208 39.5064ZM242.286 32.4076C240.83 29.9385 238.758 27.778 236.113 26.0143C252.383 20.5028 268.741 16.7109 284.967 14.5944C289.332 17.5045 292.815 21.076 295.196 25.1765C277.691 25.9261 259.966 28.3071 242.241 32.3635L242.286 32.4076ZM241.448 32.584C223.723 36.6845 206.086 42.4606 188.67 50.0003C188.273 49.3389 187.744 48.7657 186.994 48.2807C202.867 39.1537 219.093 31.8344 235.363 26.2788C237.964 27.9984 240.037 30.1148 241.448 32.584ZM186.95 48.2366C186.245 47.7516 185.363 47.3989 184.349 47.1343C197.841 36.9932 211.686 28.7039 225.707 22.1342C229.367 23.0601 232.585 24.427 235.187 26.1466C218.917 31.7462 202.779 39.0655 186.906 48.1925L186.95 48.2366ZM184.305 47.1343C183.29 46.8698 182.144 46.7375 180.909 46.7375C191.227 36.1995 201.985 27.5134 213.053 20.6351C217.682 20.7232 221.871 21.2082 225.575 22.1342C211.597 28.7039 197.753 36.9932 184.349 47.1343H184.305ZM152.029 63.1838C141.579 66.3584 126.809 71.6054 110.671 79.9829C109.172 80.7765 107.761 81.6143 106.306 82.452C106.35 82.2757 106.394 82.1434 106.482 81.967C108.599 77.161 108.775 76.8083 111.244 72.9282C123.987 67.593 138.008 63.5807 153.22 61.0233C152.735 61.7729 152.382 62.4784 152.073 63.2279L152.029 63.1838ZM110.803 80.2474C126.764 71.9581 141.403 66.7112 151.853 63.5366C151.456 64.7711 151.412 64.8593 151.324 66.0057C134.392 73.1927 118.74 81.7466 104.366 91.4027C104.851 87.0817 104.895 86.5967 106.218 82.7166C107.761 81.8788 109.304 81.0411 110.803 80.2474ZM103.66 91.8436C89.3304 101.544 76.3673 112.346 64.7711 124.075C65.5648 116.8 65.653 116.006 67.9458 109.392C80.6883 98.237 93.7837 89.5949 105.556 83.0693C104.101 87.4344 104.057 87.7872 103.66 91.8436ZM103.66 92.02C103.572 95.2387 104.145 98.1929 105.38 100.794C91.4468 112.523 78.8365 125.309 67.6371 138.89C65.6089 134.569 64.5948 129.719 64.7711 124.339C76.3232 112.611 89.3304 101.764 103.66 92.02ZM76.5878 150.971C66.623 166.006 57.981 181.747 50.794 197.973C45.1943 193.74 40.9174 188.67 38.0955 182.805C46.3407 167.814 56.0409 153.396 67.1962 139.772C69.3126 144.093 72.4431 147.84 76.5878 150.971ZM50.4412 198.723C43.2983 214.948 37.5664 231.659 33.3335 248.547C26.4993 243.344 21.2523 237.127 17.7691 229.984C22.8397 214.111 29.4975 198.546 37.6987 183.511C40.5646 189.375 44.8416 194.49 50.4412 198.723ZM33.4658 249.605C40.3883 254.764 48.8539 258.908 58.7746 261.906C55.9968 279.499 54.5859 297.224 54.5859 314.773C43.2542 311.378 33.5099 306.616 25.6174 300.707C26.6757 283.644 29.3212 266.492 33.4658 249.605ZM59.2596 262.039C69.2244 264.993 80.6002 266.801 93.2546 267.374C92.3286 285.275 92.5932 303.221 93.96 321.034C79.4979 320.372 66.4907 318.3 55.115 314.949C55.115 297.356 56.5259 279.631 59.2596 262.039ZM94.0482 321.872C95.5033 339.685 98.1047 357.277 101.941 374.473C86.1998 373.768 72.0022 371.519 59.6124 367.859C56.6582 350.796 55.2032 333.38 55.1591 315.787C66.5789 319.182 79.6301 321.254 94.0923 321.872H94.0482ZM94.7096 321.872C109.216 322.489 125.133 321.651 142.285 319.27C145.459 336.995 149.472 354.544 154.41 371.651C135.759 374.209 118.431 375.135 102.646 374.473C98.8102 357.277 96.1646 339.685 94.7096 321.872ZM154.631 372.489C159.569 389.597 165.389 406.308 172.047 422.269C152.602 424.959 134.525 425.885 118.078 425.223C111.773 409.218 106.703 392.463 102.823 375.311C118.607 375.972 135.936 375.091 154.631 372.489ZM172.356 423.019C175.53 430.558 178.881 437.966 182.453 445.197C186.421 453.222 190.477 460.805 194.71 467.992C175.266 470.682 157.232 471.608 140.786 470.947C136.377 463.804 132.188 456.22 128.22 448.151C124.648 440.92 121.385 433.512 118.387 425.973C134.833 426.634 152.911 425.708 172.356 423.019ZM195.063 468.654C203.088 482.19 211.509 494.183 220.195 504.589C201.589 507.146 184.305 508.072 168.564 507.411C158.731 497.093 149.56 485.144 141.138 471.608C157.585 472.269 175.618 471.343 195.063 468.654ZM195.989 468.522C206.174 467.111 216.712 465.171 227.603 462.79C237.568 460.585 247.532 458.028 257.497 455.162C265.037 468.83 272.577 481 280.028 491.67C270.504 494.404 260.936 496.873 251.413 498.989C241.007 501.282 230.91 503.134 221.165 504.501C212.479 494.095 204.058 482.146 196.033 468.566L195.989 468.522ZM251.721 499.474C261.245 497.358 270.813 494.933 280.293 492.199C287.744 502.825 295.064 511.908 302.207 519.404C293.476 521.917 284.746 524.166 275.972 526.106C266.404 528.222 257.189 529.898 248.238 531.132C239.111 524.033 230.16 515.303 221.43 504.986C231.174 503.619 241.227 501.811 251.677 499.518L251.721 499.474ZM281.263 491.89C301.192 486.07 320.946 478.927 340.258 470.638C346.387 481.705 352.075 491.405 357.233 499.65C339.552 507.234 321.387 513.804 303.132 519.139C296.034 511.599 288.714 502.516 281.263 491.89ZM357.454 500.047C362.568 508.248 367.198 514.994 371.166 520.241C355.778 526.855 339.949 532.543 324.076 537.217C317.462 532.94 310.54 526.988 303.441 519.536C321.651 514.201 339.773 507.675 357.454 500.091V500.047ZM358.292 499.695C375.928 492.111 393.124 483.469 409.482 474.121C412.701 483.248 415.082 491.141 416.581 497.622C402.295 505.823 387.304 513.319 371.916 519.933C367.948 514.686 363.362 507.94 358.292 499.695ZM410.276 473.636C426.634 464.245 442.199 454.059 456.617 443.345C458.116 453.618 458.424 462.79 457.675 470.77C445.109 480.118 431.528 488.98 417.243 497.181C415.787 490.656 413.451 482.807 410.276 473.636ZM449.297 408.16C465.038 396.431 479.5 384.129 492.375 371.475C495.241 384.703 496.696 397.137 496.74 408.689C484.924 420.285 471.652 431.572 457.234 442.331C455.735 432.013 453.089 420.594 449.297 408.16ZM479.721 328.397C493.125 315.17 504.853 301.589 514.465 287.965C520.065 302.868 523.901 317.462 526.106 331.528C516.846 344.623 505.647 357.586 492.816 370.285C489.906 357.057 485.541 343.036 479.677 328.441L479.721 328.397ZM504.28 262.744C500.709 255.513 496.873 248.414 492.684 241.404C501.855 228.352 509.13 215.213 514.157 202.25C514.377 201.633 514.642 201.015 514.862 200.442C519.095 207.321 523.019 214.375 526.547 221.562C530.515 229.587 533.91 237.612 536.82 245.636C536.6 246.254 536.379 246.871 536.115 247.444C531.088 260.407 523.813 273.503 514.642 286.554C511.688 278.705 508.204 270.725 504.236 262.7L504.28 262.744ZM483.513 158.29C488.275 145.371 490.391 133.378 490.127 122.488C501.943 134.481 512.525 147.62 521.564 161.818C521.829 173.193 519.624 185.671 514.686 199.119C505.691 184.657 495.197 170.989 483.513 158.29ZM490.127 121.958C489.774 111.068 487.04 101.235 482.102 92.5932C489.024 99.3393 495.462 106.614 501.502 114.286C506.397 120.944 510.982 127.779 515.259 134.833C519.051 142.814 521.256 151.588 521.564 161.244C512.525 147.047 501.943 133.907 490.127 121.914V121.958ZM489.553 121.385C477.693 109.436 464.553 98.6779 450.4 89.1981C450.091 79.1892 447.534 70.1945 443.036 62.2579C456.925 70.8117 469.844 80.7765 481.529 92.1082C486.467 100.75 489.201 110.539 489.553 121.429V121.385ZM449.738 88.7131C435.585 79.2333 420.373 71.0322 404.456 64.1538C404.191 55.4236 401.987 47.5312 398.018 40.6087C413.627 46.2084 428.486 53.3072 442.375 61.817C446.916 69.7535 449.43 78.7483 449.738 88.7131ZM397.798 40.3001C393.786 33.4217 388.01 27.4693 380.69 22.5751C391.008 25.8379 400.973 29.8944 410.585 34.7004C416.405 37.875 422.093 41.3583 427.648 44.9297C433.645 49.7358 438.495 55.2473 442.11 61.4201C428.221 52.9104 413.362 45.8557 397.754 40.256L397.798 40.3001ZM397.048 40.0355C381.44 34.4799 365.126 30.4235 348.327 27.9543C345.064 22.3105 340.346 17.4604 334.35 13.4921C350.002 14.8149 365.302 17.8132 379.985 22.3987C387.304 27.2929 393.036 33.2013 397.048 40.0796V40.0355ZM347.533 27.822C330.734 25.3529 313.45 24.4711 295.945 25.1765C293.52 21.0319 290.081 17.4604 285.672 14.5063C301.898 12.478 317.947 12.1253 333.644 13.404C339.597 17.3722 344.314 22.2224 347.577 27.822H347.533ZM285.452 14.374C280.998 11.4639 275.619 9.17113 269.402 7.58382C283.556 4.67375 297.709 3.48327 311.598 4.01237C320.02 6.17288 327.295 9.25932 333.291 13.2276C317.639 11.9489 301.589 12.3017 285.407 14.374H285.452ZM284.658 14.4622C268.476 16.5786 252.118 20.3705 235.892 25.9261C233.247 24.1624 230.028 22.7956 226.28 21.8696C240.301 15.3881 254.543 10.6703 268.697 7.7161C274.869 9.30341 280.249 11.5521 284.658 14.4622ZM226.104 21.8255C222.356 20.8996 218.123 20.3705 213.449 20.2823C224.516 13.4481 235.892 8.37748 247.356 5.07058C255.116 5.20285 262.171 6.0406 268.388 7.62791C254.234 10.5821 240.081 15.2999 226.104 21.8255ZM213.229 20.2823C208.555 20.2382 203.396 20.6351 197.929 21.5169C205.425 14.9472 213.317 10.1853 221.562 7.1429C230.689 5.64378 239.243 4.9824 247.047 5.07058C235.628 8.37748 224.296 13.404 213.273 20.2823H213.229ZM212.7 20.591C201.677 27.5134 190.962 36.1995 180.733 46.6934C179.454 46.6934 178.088 46.7816 176.588 47.0462C183.026 36.8168 190.081 28.4393 197.532 21.8255C202.955 20.9437 208.026 20.5469 212.7 20.591ZM176.544 47.0462C175.971 47.1343 175.442 47.2666 174.825 47.3548C173.855 47.5753 172.885 47.8398 171.915 48.1485C174.031 38.9773 176.853 31.5699 180.292 25.882C183.864 24.7797 187.479 23.8097 191.051 23.016C193.167 22.531 195.239 22.1342 197.268 21.8255C189.86 28.4393 182.894 36.8168 176.5 47.0462H176.544ZM171.826 48.1925C170.283 48.6776 168.74 49.2508 167.241 49.9562C165.08 42.3724 163.758 36.5523 163.184 32.4076C168.652 29.9385 174.296 27.778 179.984 26.0143C176.633 31.6581 173.855 39.0214 171.782 48.1925H171.826ZM167.197 49.9562C165.698 50.6176 164.243 51.3672 162.876 52.2049C156.703 46.7375 151.456 42.9456 147.091 40.7851C152.161 37.7868 157.453 35.009 162.92 32.5399C163.537 36.6404 164.948 42.4606 167.153 50.0003L167.197 49.9562ZM162.832 52.249C161.465 53.0868 160.142 53.9686 158.952 54.8945C149.163 51.8963 140.389 50.4853 132.673 50.6176C137.082 47.2225 141.844 43.9597 146.915 40.9615C151.324 43.122 156.615 46.8698 162.876 52.2931L162.832 52.249ZM158.908 54.9386C157.717 55.8646 156.615 56.8346 155.645 57.8487C142.77 57.54 131.041 58.7746 120.459 61.4201C123.987 57.7605 128.043 54.1891 132.452 50.794C140.213 50.6617 149.031 51.9845 158.908 54.9827V54.9386ZM155.601 57.8928C154.631 58.9069 153.793 59.921 153.131 60.9351C137.964 63.4484 123.987 67.4607 111.244 72.7518C113.713 69.004 116.756 65.2561 120.327 61.5965C130.953 58.9069 142.726 57.6282 155.601 57.8928ZM110.671 72.9722C97.9724 78.3074 86.5526 84.9212 76.4996 92.6814C80.6443 86.3762 85.803 80.1152 91.7554 73.9423C99.9125 68.5631 109.304 64.4184 119.886 61.7288C116.315 65.4325 113.228 69.2244 110.715 73.0163L110.671 72.9722ZM110.539 73.1486C108.554 76.191 106.923 79.2774 105.733 82.2757C105.689 82.452 105.644 82.6284 105.556 82.8048C91.7995 90.3886 79.2333 99.1188 68.0339 108.863C68.1221 108.599 68.1662 108.422 68.2544 108.158C70.1944 103.131 72.8841 98.0606 76.2351 92.99C86.3321 85.1857 97.796 78.5278 110.495 73.1927L110.539 73.1486ZM67.7694 108.599C67.6812 108.819 67.6371 109.04 67.5489 109.304C65.9616 110.715 64.2861 112.038 62.7429 113.493C53.7481 121.914 45.8116 131.041 38.845 140.83C38.845 140.83 38.845 140.742 38.8891 140.698C41.4465 134.921 42.8133 131.923 44.3565 129.013C47.9721 123.369 51.7199 117.858 55.6882 112.523C61.6406 105.556 68.3426 99.1188 75.7941 93.3427C72.4431 98.4574 69.7535 103.572 67.7694 108.599ZM67.3285 109.833C65.3884 115.08 64.3302 120.018 64.1538 124.604C52.6458 136.332 42.5488 148.987 33.9949 162.347C34.2595 156.086 35.7145 149.251 38.4041 142.02C47.1784 129.498 57.0991 118.828 67.3285 109.833ZM64.1538 124.869C63.9775 130.292 64.9475 135.186 67.0198 139.507C55.8646 153.131 46.1202 167.505 37.875 182.497C35.0972 176.633 33.7304 170.019 33.9949 162.699C42.5488 149.34 52.6458 136.641 64.1538 124.869ZM37.5223 183.202C29.3212 198.194 22.6633 213.758 17.5927 229.631C14.1535 222.444 12.5221 214.331 12.8308 205.336C18.1659 190.786 25.1324 176.721 33.6422 163.317C33.3776 170.636 34.7445 177.294 37.5223 183.202ZM33.1131 249.34C28.9243 266.227 26.2788 283.335 25.2206 300.443C17.3722 294.49 11.3757 287.348 7.40745 279.146C9.12704 262.832 12.5221 246.607 17.5045 230.733C20.9878 237.92 26.2347 244.137 33.1131 249.34ZM25.5734 301.501C33.4658 307.409 43.2102 312.171 54.5859 315.566C54.5859 333.159 56.085 350.575 58.9951 367.639C46.6493 363.935 36.0673 358.777 27.4693 352.339C25.1765 335.628 24.6033 318.609 25.5734 301.501ZM39.2419 401.766C30.9085 395.461 24.4711 387.877 19.9737 379.323C19.1359 377.251 18.2982 375.179 17.5045 373.062C12.7426 358.821 9.43569 344.27 7.7161 329.544C12.0371 338.494 18.6068 346.299 27.1607 352.78C29.4975 369.491 33.4658 385.893 39.2419 401.766ZM27.5575 353.089C36.1554 359.526 46.7816 364.685 59.1274 368.389C62.0815 385.408 66.5789 402.031 72.5313 418.036C59.6565 414.156 48.5894 408.777 39.6387 402.075C33.8626 386.202 29.8503 369.8 27.5575 353.089ZM59.7006 368.565C72.1345 372.269 86.3321 374.517 102.073 375.223C105.953 392.375 110.98 409.13 117.285 425.135C100.882 424.385 86.0676 422.049 73.1486 418.213C67.1521 402.251 62.6988 385.629 59.7006 368.565ZM117.593 425.885C120.592 433.468 123.854 440.876 127.426 448.063C131.394 456.088 135.583 463.671 139.992 470.858C123.59 470.109 108.819 467.772 95.856 463.936C91.2704 456.749 86.9935 449.165 83.0252 441.14C79.4538 433.909 76.2791 426.502 73.4132 418.962C86.3762 422.798 101.147 425.135 117.593 425.885ZM140.389 471.52C148.81 485.056 158.026 497.005 167.858 507.322C152.161 506.617 138.008 504.368 125.618 500.709C114.904 490.259 105.027 478.178 96.2969 464.597C109.216 468.433 123.987 470.77 140.389 471.52ZM168.299 507.807C178.132 518.081 188.626 526.723 199.516 533.734C185.142 533.072 172.179 531.044 160.804 527.649C148.502 520.418 136.862 511.599 126.103 501.194C138.493 504.853 152.602 507.102 168.299 507.807ZM169.049 507.807C184.79 508.469 202.03 507.587 220.636 504.986C229.367 515.303 238.361 524.033 247.532 531.132C230.469 533.469 214.64 534.307 200.222 533.689C189.331 526.679 178.925 518.037 169.093 507.763L169.049 507.807ZM247.929 531.485C257.1 538.54 266.36 543.919 275.663 547.623C260.804 549.651 247.047 550.4 234.481 549.871C222.929 546.3 211.597 541.009 200.707 534.042C215.125 534.66 230.91 533.822 247.929 531.485ZM248.723 531.353C257.63 530.118 266.845 528.443 276.413 526.326C285.143 524.386 293.873 522.181 302.603 519.668C309.746 527.12 316.713 533.028 323.371 537.305C315.787 539.51 308.159 541.45 300.531 543.125C292.198 544.977 284.173 546.432 276.413 547.49C267.153 543.787 257.894 538.363 248.767 531.309L248.723 531.353ZM300.884 543.302C308.468 541.626 316.095 539.686 323.635 537.481C330.293 541.714 336.642 544.316 342.595 545.286C336.422 547.093 330.205 548.681 324.032 550.004C317.286 551.503 310.716 552.693 304.411 553.575C295.328 553.31 286.069 551.282 276.81 547.623C284.57 546.52 292.594 545.065 300.884 543.257V543.302ZM324.385 537.261C340.258 532.631 355.999 526.943 371.343 520.33C375.355 525.532 378.75 529.192 381.528 531.309C369.006 536.688 356.131 541.317 343.212 545.109C337.304 544.139 330.999 541.494 324.385 537.261ZM372.092 520.021C387.436 513.407 402.384 505.912 416.625 497.754C418.08 504.192 418.698 509.263 418.433 512.878C406.793 519.536 394.623 525.621 382.101 531.044C379.368 528.928 376.016 525.224 372.048 520.021H372.092ZM458.204 470.594C470.726 461.246 482.278 451.458 492.508 441.361C489.774 450.929 485.673 459.483 480.338 466.89C471.961 475.091 462.569 483.116 452.34 490.744C455.382 485.321 457.322 478.574 458.16 470.594H458.204ZM458.204 470.197C458.998 462.216 458.689 453.001 457.234 442.728C471.608 431.969 484.88 420.726 496.652 409.13C496.652 420.638 495.285 431.308 492.596 440.92C482.322 451.017 470.77 460.85 458.204 470.197ZM497.225 408.556C508.954 396.96 519.227 385.099 527.693 373.106C526.547 385.937 523.857 398.151 519.668 409.482C512.305 419.932 503.354 430.294 493.125 440.391C495.859 430.735 497.269 420.109 497.269 408.556H497.225ZM497.225 407.983C497.225 396.387 495.77 383.953 492.904 370.725C505.735 358.071 516.935 345.064 526.15 332.013C528.31 346.078 528.795 359.614 527.693 372.489C519.227 384.482 508.954 396.387 497.181 407.983H497.225ZM514.862 287.127C524.033 274.076 531.264 260.981 536.335 248.017C536.555 247.4 536.82 246.783 537.04 246.21C542.464 261.421 545.991 276.633 547.755 291.536C547.534 292.109 547.314 292.683 547.093 293.3C542.287 305.69 535.321 318.256 526.547 330.734C524.342 316.669 520.506 302.074 514.906 287.127H514.862ZM526.723 220.769C523.151 213.538 519.271 206.483 515.039 199.649C519.977 186.2 522.226 173.722 521.917 162.347C526.194 169.093 530.118 176.059 533.645 183.29C537.614 191.315 541.009 199.428 543.875 207.585C544.139 218.961 541.935 231.439 536.996 244.887C534.086 236.862 530.691 228.837 526.723 220.813V220.769ZM543.831 207.056C540.965 198.899 537.57 190.786 533.601 182.761C530.03 175.53 526.106 168.564 521.873 161.818C521.564 152.382 519.448 143.74 515.788 135.892C526.811 154.278 535.762 174.031 542.332 194.887C543.169 198.811 543.698 202.867 543.831 207.1V207.056ZM542.64 195.68C547.138 210.187 550.444 225.178 552.517 240.566C550.621 229.587 547.887 218.652 544.095 207.761C543.963 203.573 543.434 199.56 542.64 195.636V195.68ZM481.749 92.02C480.603 90.0359 479.28 88.1399 477.913 86.288C485.938 94.6214 493.434 103.44 500.356 112.743C494.536 105.424 488.363 98.4574 481.705 92.02H481.749ZM380.293 22.1783C376.898 19.9296 373.151 17.9454 369.138 16.1818C383.159 21.076 396.696 27.0284 409.615 34.039C400.179 29.3653 390.391 25.3529 380.293 22.1783ZM247.532 4.76194C239.684 4.67375 231.13 5.33513 221.915 6.83426C223.105 6.39334 224.34 6.08469 225.575 5.68787C239.331 3.04235 253.441 1.45504 267.815 0.925932C261.025 1.6314 254.279 2.86598 247.577 4.76194H247.532ZM221.474 6.87835C218.035 7.45155 214.508 8.11293 210.936 8.90658C209.702 9.17113 208.511 9.52387 207.276 9.78842C213.097 8.2452 219.049 6.92244 225.046 5.77605C223.855 6.12879 222.665 6.43743 221.518 6.87835H221.474ZM206.042 10.1412C207.585 9.78842 209.084 9.3475 210.627 9.03886C214.199 8.2452 217.682 7.58382 221.121 7.01063C212.964 10.053 205.072 14.8149 197.664 21.3846C195.592 21.7374 193.52 22.1342 191.359 22.6192C187.744 23.4128 184.084 24.3829 180.469 25.5293C183.599 20.4587 187.215 16.8872 191.271 14.6385C196.165 13.0071 201.059 11.5521 206.086 10.1852L206.042 10.1412ZM190.742 14.7708C186.774 17.0195 183.202 20.5469 180.16 25.5734C174.384 27.3811 168.696 29.5416 163.14 32.0549C162.699 28.8803 162.788 26.7638 163.273 25.5734C172.179 21.5169 181.35 17.9013 190.742 14.7708ZM146.65 40.6528C141.535 43.6952 136.729 47.0021 132.276 50.4412C125.089 50.5735 118.872 52.1167 113.581 54.8063C121.429 49.0303 129.586 43.6511 138.052 38.7128C140.345 38.4041 143.211 39.0214 146.694 40.6969L146.65 40.6528ZM132.056 50.5735C127.602 54.0127 123.546 57.6282 119.93 61.332C109.392 64.0216 100.045 68.078 91.9318 73.4573C95.6796 69.6213 99.7802 65.8293 104.101 62.1256C107.055 59.7447 110.054 57.3637 113.14 55.115C118.519 52.3813 124.78 50.794 132.056 50.6176V50.5735ZM91.535 73.6777C89.9918 74.7359 88.5367 75.8823 87.0376 77.0287C92.1523 72.1345 97.4433 67.4607 102.955 62.9634C98.8983 66.4907 95.0623 70.0622 91.535 73.6777ZM38.4482 141.006C38.4482 141.006 38.4482 141.094 38.4041 141.138C34.524 146.65 30.9967 152.338 27.778 158.246C32.584 148.237 38.0073 138.625 43.9597 129.322C41.8433 133.114 40.6969 135.583 38.4482 141.006ZM25.397 163.493C29.1889 155.909 33.4217 148.855 37.9632 142.329C35.2736 149.604 33.7745 156.438 33.554 162.744C25.0443 176.103 18.0777 190.169 12.7426 204.675C13.5362 197.532 13.889 194.225 14.7708 190.521C17.8573 181.306 21.3846 172.267 25.397 163.493ZM12.478 205.336C8.46566 216.359 5.42332 227.647 3.35099 239.111C5.68787 222.444 9.52387 206.306 14.6826 190.742C13.4481 195.813 12.6544 200.707 12.478 205.336ZM3.08644 241.227C5.15876 229.19 8.28929 217.329 12.478 205.733C12.1694 214.728 13.8449 222.885 17.24 230.072C12.2135 245.945 8.8184 262.171 7.09881 278.441C3.57145 271.033 1.80777 262.744 1.71959 253.705C2.07232 249.517 2.55734 245.328 3.08644 241.183V241.227ZM7.18699 279.631C11.1553 287.877 17.1959 295.02 25.0443 300.972C24.0301 318.036 24.6033 335.055 26.8961 351.766C18.3423 345.284 11.8167 337.524 7.49564 328.574C5.64378 312.348 5.55559 295.945 7.23109 279.631H7.18699ZM15.5645 367.507C10.1852 351.81 6.12879 335.452 3.61554 318.609C4.58557 322.18 5.82014 325.619 7.36336 328.882C8.90658 341.889 11.6403 354.764 15.5645 367.463V367.507ZM39.3742 402.295C42.1079 409.791 45.2825 417.154 48.8539 424.385C52.8222 432.41 57.1432 440.038 61.8611 447.313C58.0692 444.447 54.7182 441.317 51.7199 437.966C39.0214 420.109 28.3952 400.664 20.1941 379.985C24.6915 388.495 31.0849 395.99 39.3742 402.295ZM49.2508 424.694C45.6793 417.463 42.5488 410.1 39.771 402.604C48.7217 409.306 59.7887 414.685 72.6636 418.565C75.5296 426.105 78.7042 433.512 82.2757 440.744C86.2439 448.768 90.5209 456.396 95.1064 463.539C82.2316 459.659 71.2086 454.28 62.2138 447.578C57.496 440.347 53.1309 432.719 49.2067 424.65L49.2508 424.694ZM95.5473 464.2C104.322 477.781 114.154 489.818 124.913 500.312C113.537 496.873 103.748 492.199 95.5473 486.467C93.2105 484.395 90.8736 482.322 88.6249 480.206C79.1451 470.594 70.4149 460.012 62.7429 448.283C71.6936 454.985 82.7166 460.364 95.5914 464.245L95.5473 464.2ZM125.398 500.797C136.156 511.203 147.796 520.065 160.142 527.296C156.394 526.15 152.867 524.915 149.472 523.504C130.292 513.451 112.435 501.194 96.2528 487.128C104.41 492.816 114.11 497.446 125.398 500.841V500.797ZM160.715 527.605C166.447 530.956 172.356 533.91 178.396 536.555C168.784 532.852 159.481 528.663 150.442 523.945C153.705 525.312 157.144 526.502 160.715 527.605ZM161.244 527.781C172.576 531.132 185.539 533.204 199.869 533.822C210.76 540.744 222.135 546.035 233.732 549.651C226.412 549.342 219.578 548.504 213.097 547.358C202.691 544.845 192.506 541.846 182.629 538.231C175.31 535.233 168.167 531.794 161.244 527.781ZM234.305 549.827C240.125 551.591 246.033 552.914 251.986 553.84C239.199 552.649 226.677 550.577 214.463 547.711C220.68 548.769 227.294 549.518 234.305 549.871V549.827ZM304.147 553.531C305.117 553.531 306.175 553.531 307.321 553.487C304.543 553.795 301.766 553.972 298.944 554.192C300.663 554.016 302.383 553.795 304.147 553.575V553.531ZM304.72 553.443C311.025 552.561 317.551 551.37 324.297 549.871C330.469 548.504 336.642 546.917 342.815 545.153C345.373 545.55 347.886 545.594 350.311 545.374C336.554 549.122 322.357 551.811 307.85 553.399C306.836 553.399 305.822 553.487 304.764 553.443H304.72ZM343.388 544.977C356.263 541.229 369.094 536.6 381.572 531.22C383.159 532.411 384.526 533.028 385.717 533.16C374.473 537.922 362.789 541.935 350.84 545.197C348.459 545.418 345.946 545.374 343.433 544.977H343.388ZM418.874 512.569C430.426 505.912 441.449 498.725 451.634 491.141C450.179 493.257 448.151 495.682 446.167 497.843C437.04 504.853 427.472 511.247 417.551 517.111C418.257 516.009 418.698 514.554 418.918 512.614L418.874 512.569ZM480.382 466.67C481.308 465.744 482.234 464.774 483.16 463.848C482.102 465.038 480.955 466.141 479.897 467.287C480.074 467.066 480.25 466.89 480.426 466.67H480.382ZM480.647 466.317C486.026 458.909 490.127 450.312 492.904 440.699C503.134 430.602 512.04 420.285 519.404 409.879C517.375 415.302 514.994 420.461 512.261 425.488C503.839 438.804 494.359 451.414 483.821 463.054C482.763 464.156 481.705 465.215 480.647 466.317ZM519.756 409.394C523.813 403.618 527.296 397.886 530.294 392.11C525.18 403.398 519.315 414.288 512.746 424.738C515.391 419.8 517.728 414.729 519.712 409.394H519.756ZM519.977 408.865C524.21 397.489 526.899 385.276 528.046 372.401C536.07 360.981 542.42 349.517 546.829 338.142C547.049 337.612 547.226 337.083 547.446 336.554C546.564 343.124 545.374 349.605 543.787 355.955C540.259 367.992 535.894 379.632 530.823 390.92C527.737 396.872 524.122 402.869 519.933 408.821L519.977 408.865ZM547.667 336.025C548.901 332.674 549.915 329.367 550.797 326.148C549.078 335.805 546.917 345.24 544.227 354.544C545.682 348.459 546.873 342.286 547.667 336.025ZM547.534 335.893C547.314 336.422 547.138 336.951 546.917 337.48C542.508 348.856 536.115 360.364 528.09 371.784C529.192 358.909 528.707 345.328 526.547 331.263C535.321 318.785 542.243 306.263 547.093 293.873C547.314 293.3 547.534 292.727 547.755 292.109C549.43 307.013 549.342 321.651 547.534 335.893ZM537.217 245.504C542.155 232.056 544.36 219.578 544.095 208.246C547.931 219.358 550.753 230.601 552.649 241.845C553.399 247.577 553.972 253.353 554.369 259.217C554.104 269.005 552.076 279.543 547.887 290.875C546.168 275.928 542.64 260.76 537.173 245.548L537.217 245.504ZM1.80777 255.028C1.94005 263.935 3.74782 272.136 7.18699 279.455C5.55559 295.725 5.59968 312.127 7.45155 328.353C5.90833 325.046 4.62966 321.607 3.70373 317.991C1.80777 304.94 0.793656 291.58 0.793656 278.044C0.793656 270.284 1.19048 262.656 1.80777 255.072V255.028ZM52.5136 438.98C55.4677 442.243 58.7746 445.285 62.4784 448.107C69.7094 459.13 77.8665 469.183 86.6849 478.354C74.1186 466.317 62.6547 453.177 52.5136 438.98ZM551.106 325.311C550.224 328.662 549.166 332.057 547.887 335.54C549.695 321.298 549.827 306.66 548.152 291.713C552.296 280.469 554.325 270.019 554.589 260.275C554.942 266.139 555.206 272.048 555.206 278C555.206 294.138 553.751 309.923 551.106 325.311Z" fill="url(#paint0_linear_459_27735)"/>
<defs>
<linearGradient id="paint0_linear_459_27735" x1="-91.8893" y1="114.745" x2="549.47" y2="417" gradientUnits="userSpaceOnUse">
<stop stop-color="white" stop-opacity="0"/>
<stop offset="0.490809" stop-color="white"/>
<stop offset="1" stop-color="white" stop-opacity="0"/>
</linearGradient>
</defs>
</svg>
