<svg width="460" height="460" viewBox="0 0 460 460" fill="none" xmlns="http://www.w3.org/2000/svg">
<g clip-path="url(#clip0_459_27751)">
<path d="M67.3402 67.3767C110.787 23.9302 168.569 0 230 0C291.431 0 349.177 23.9302 392.623 67.3767C436.07 110.823 460 168.569 460 230C460 291.431 436.07 349.213 392.623 392.623C349.177 436.07 291.431 460 230 460C168.569 460 110.787 436.07 67.3767 392.623C23.9302 349.177 0 291.431 0 230C0 168.569 23.9302 110.787 67.3767 67.3767H67.3402ZM88.8628 410.644C87.732 409.331 86.6741 407.872 85.7621 406.266C77.3355 399.992 69.6019 393.389 62.7074 386.641C62.8533 386.86 63.0722 387.078 63.2181 387.297C71.1705 395.724 79.7431 403.531 88.8628 410.68V410.644ZM140.335 441.14C141.247 441.031 142.377 440.52 143.654 439.499C133.331 435.048 123.299 430.014 113.705 424.542C113.851 426.147 114.216 427.351 114.763 428.227C122.971 433.006 131.507 437.383 140.335 441.14ZM229.964 459.38C236.931 459.38 243.862 459.015 250.684 458.395C255.645 457.629 260.606 456.534 265.458 455.039C255.098 455.477 243.716 454.893 231.459 453.178C223.762 456.206 216.101 457.848 208.514 458.067C210.265 458.322 211.979 458.504 213.694 458.687C219.056 459.052 224.492 459.343 229.964 459.343V459.38ZM388.209 64.203C386.969 63.2181 385.729 62.2331 384.379 61.3212C389.34 66.4282 393.608 71.6812 397.074 76.8977C403.129 81.6035 408.601 86.82 413.453 92.4742C405.829 82.3331 397.366 72.9215 388.209 64.1665V64.203ZM230 0.656622C223.762 0.656622 217.597 0.984933 211.469 1.45916C208.331 1.89691 205.267 2.44409 202.458 3.17367C213.949 2.73592 225.586 3.72086 237.296 6.12847C242.476 4.81523 248.349 4.12213 254.806 4.01269C249.151 2.40761 243.461 1.3862 237.77 0.839017C235.18 0.766059 232.626 0.656622 230 0.656622ZM189.326 4.341C177.653 6.45678 166.271 9.41158 155.255 13.2419C151.862 14.7375 148.688 16.3791 145.843 18.276C157.954 14.4822 170.612 12.0381 183.562 10.9437C188.56 7.66059 194.615 5.10706 201.583 3.31959C198.519 3.4655 196.257 3.61142 194.178 3.79381C196.731 3.53846 199.321 3.35607 201.911 3.24663C204.647 2.55353 207.602 2.00634 210.63 1.5686C203.516 2.15226 196.512 3.10071 189.581 4.341C191.15 4.12213 192.609 3.93973 194.178 3.79381C192.536 3.93973 190.931 4.1586 189.326 4.37748V4.341ZM65.0785 70.8787C63.8747 72.4473 62.7803 74.0888 61.7954 75.7669C71.4623 66.3918 82.1507 58.184 93.6416 51.1071C96.5964 46.0365 100.536 41.5496 105.388 37.6098C90.7232 47.1308 77.226 58.2934 65.115 70.8422L65.0785 70.8787ZM114.726 411.556C102.944 404.771 91.7446 397.475 81.3846 389.741C82.0412 396.308 83.6463 401.853 86.1269 406.339C94.59 412.614 103.746 418.596 113.34 424.141C113.085 421.113 113.559 416.918 114.763 411.556H114.726ZM325.101 26.7026C329.697 28.7819 334.111 31.0801 338.343 33.5971C341.151 32.2109 343.486 31.6638 345.347 31.8826C338.78 28.0523 332.032 24.5504 325.101 21.3767C325.466 22.3251 325.466 24.0761 325.101 26.7026ZM332.615 50.2316C332.068 49.429 331.412 48.6265 330.646 47.8239C326.961 47.8969 323.204 48.1523 319.301 48.5535C323.167 48.1523 326.925 47.8969 330.609 47.7875C329.843 46.9849 328.967 46.2189 328.019 45.4893C325.21 46.3648 322.292 47.3497 319.301 48.5535C322.292 47.3497 325.174 46.3283 327.983 45.4528C327.034 44.7232 326.013 44.0301 324.918 43.3735C323.131 44.9421 321.27 46.6566 319.301 48.5535C321.234 46.6566 323.094 44.9056 324.845 43.337C323.751 42.6804 322.62 42.0967 321.416 41.5496C320.796 43.7018 320.067 46.0365 319.264 48.5171C320.03 46 320.723 43.6653 321.343 41.5131C320.176 40.9659 318.936 40.5282 317.732 40.1269C318.316 42.7534 318.826 45.5258 319.264 48.5171C318.79 45.5258 318.279 42.7534 317.659 40.1269C316.893 39.8715 316.127 39.6891 315.324 39.5067C314.85 39.3973 314.412 39.3243 313.975 39.2514C315.799 42.1697 317.55 45.2704 319.228 48.5171C317.513 45.2339 315.762 42.1332 313.938 39.2514C312.771 39.069 311.676 38.9596 310.692 38.996C313.61 41.9873 316.455 45.1975 319.264 48.5535C316.455 45.1975 313.573 42.0238 310.655 38.996C309.67 38.996 308.758 39.1055 307.956 39.3243C311.749 42.2062 315.543 45.3069 319.264 48.5535C315.507 45.3069 311.749 42.2427 307.919 39.3243C307.117 39.5432 306.423 39.8351 305.876 40.1998C310.363 42.7898 314.85 45.5987 319.264 48.5535C314.814 45.5987 310.363 42.8263 305.84 40.2363C305.293 40.6011 304.818 41.0753 304.527 41.586C309.451 43.7383 314.376 46.073 319.264 48.5535C314.376 46.073 309.451 43.7383 304.527 41.6225C304.235 42.1697 304.052 42.7534 304.016 43.41C309.123 44.9421 314.193 46.6566 319.264 48.5535C314.23 46.6931 309.123 44.9786 304.016 43.4465C304.016 44.1031 304.125 44.8692 304.417 45.6352C309.378 46.4377 314.339 47.4227 319.264 48.5535C314.339 47.4227 309.415 46.4742 304.454 45.6717C304.454 45.6717 304.454 45.7446 304.49 45.7811C304.782 46.5472 305.22 47.3132 305.767 48.0793C310.29 48.0793 314.814 48.2252 319.264 48.5171C314.814 48.2252 310.29 48.0793 305.767 48.1158C306.351 48.9183 307.044 49.7209 307.81 50.5234C311.676 49.7209 315.47 49.0642 319.228 48.5535C315.47 49.0642 311.676 49.7573 307.846 50.5599C308.649 51.3259 309.524 52.092 310.509 52.8216C313.464 51.253 316.382 49.8303 319.228 48.5535C316.382 49.8668 313.5 51.2895 310.546 52.858C311.531 53.5876 312.552 54.2807 313.683 54.9009C315.58 52.6392 317.44 50.5234 319.228 48.5535C317.44 50.5599 315.616 52.6757 313.719 54.9374C314.814 55.5575 315.981 56.1412 317.185 56.6519C317.951 53.8065 318.607 51.1071 319.228 48.5535C318.644 51.1435 317.951 53.843 317.221 56.6883C318.425 57.199 319.629 57.6368 320.869 58.0016C320.395 54.7185 319.848 51.5813 319.228 48.5535C319.884 51.5813 320.431 54.755 320.942 58.0016C321.526 58.184 322.109 58.3299 322.693 58.4393C323.35 58.5853 323.97 58.6947 324.554 58.7676C322.875 55.2292 321.088 51.8002 319.228 48.5171C321.125 51.8002 322.912 55.2292 324.626 58.7676C325.757 58.9136 326.852 58.9865 327.8 58.95C325.028 55.3386 322.182 51.8731 319.228 48.5171C322.182 51.8731 325.064 55.3386 327.837 58.95C328.822 58.9136 329.661 58.7676 330.427 58.5488C326.779 55.0833 323.058 51.7272 319.191 48.5171C323.058 51.7272 326.815 55.0833 330.463 58.5488C331.229 58.3299 331.886 58.0016 332.397 57.6003C328.128 54.4631 323.715 51.4354 319.191 48.5171C323.715 51.3989 328.128 54.4266 332.397 57.5638C332.907 57.1626 333.308 56.6883 333.6 56.1412C328.895 53.4782 324.116 50.9247 319.191 48.5171C324.116 50.9247 328.931 53.4417 333.637 56.1047C333.892 55.5575 334.038 54.9373 334.002 54.2442C329.186 52.2014 324.262 50.3045 319.191 48.5171C324.225 50.268 329.186 52.2014 334.002 54.2078C334.002 53.6241 333.819 52.9675 333.564 52.2744C326.049 50.0127 321.307 49.1372 321.234 49.1007V48.8454C321.234 48.8454 326.013 49.7573 333.454 51.9461C333.09 51.1435 333.017 50.9611 332.542 50.1951C328.201 49.4655 323.787 48.9183 319.228 48.4806C323.787 48.8818 328.201 49.4655 332.506 50.1586L332.615 50.2316ZM334.403 56.5424C348.046 64.3125 360.704 73.1768 372.232 82.8438C373.253 80.728 373.727 78.3204 373.654 75.6939C361.762 67.6685 348.776 60.5916 334.804 54.609C334.804 55.3386 334.695 55.9952 334.439 56.5424H334.403ZM333.126 58.0745C345.602 67.2672 357.129 77.4449 367.599 88.4615C369.605 86.9294 371.174 85.1055 372.195 82.9897C360.668 73.2863 348.01 64.4219 334.403 56.6154C334.111 57.1991 333.71 57.7098 333.163 58.111L333.126 58.0745ZM303.797 45.5987C289.315 43.3006 274.614 42.3521 259.876 42.6439C259.913 42.7898 259.986 42.9358 260.022 43.0452C261.153 46 262.831 48.9548 264.874 51.9096C278.408 49.4655 291.905 48.1523 305.147 48.1158C304.563 47.3132 304.125 46.5107 303.833 45.7082C303.833 45.6717 303.833 45.6352 303.797 45.5987ZM303.87 41.3307C289.461 35.1293 274.796 30.3505 260.168 26.9944C259.001 29.0373 258.344 31.3719 258.271 33.9255C273.374 35.6764 288.476 38.7407 303.359 43.2276C303.359 42.5345 303.542 41.8779 303.87 41.3307ZM303.359 43.2641C288.476 38.8136 273.374 35.7859 258.271 34.0714C258.198 36.6614 258.709 39.4703 259.84 42.5345C274.577 42.2791 289.315 43.2641 303.797 45.5987C303.505 44.7597 303.359 43.9937 303.359 43.3006V43.2641ZM259.183 42.6804C244.446 43.0087 229.708 44.5773 215.153 47.2768C215.226 47.4956 215.335 47.751 215.408 47.9699C217.342 52.8945 220.114 57.8921 223.58 62.8898C237.077 58.2205 250.684 54.5726 264.254 52.0555C262.138 49.0642 260.496 46.073 259.329 43.0817C259.293 42.9358 259.22 42.7898 259.183 42.6804ZM345.347 132.638C341.443 132.09 337.394 131.361 333.236 130.449C329.405 129.61 325.575 128.625 321.781 127.531C320.65 140.298 318.972 153.649 316.747 167.366C321.891 168.861 327.071 170.174 332.251 171.305C337.905 172.546 343.377 173.531 348.63 174.297C348.265 160.033 347.207 146.062 345.347 132.674V132.638ZM349.104 174.333C359.172 175.719 368.547 176.193 377.083 175.865C374.42 161.456 370.845 147.375 366.395 133.805C360.084 134.06 353.153 133.695 345.711 132.674C347.572 146.098 348.703 160.07 349.104 174.333ZM321.38 127.385C313.391 125.05 305.475 122.168 297.741 118.885C293.619 130.595 289.096 142.925 284.208 155.692C294.677 160.179 305.402 164.046 316.2 167.22C318.462 153.54 320.213 140.189 321.38 127.421V127.385ZM297.377 118.703C289.643 115.383 282.128 111.589 274.942 107.504C267.975 117.791 260.752 128.771 253.383 140.298C263.086 145.843 273.264 150.95 283.697 155.473C288.585 142.742 293.182 130.412 297.34 118.739L297.377 118.703ZM134.826 162.149C124.831 173.166 115.347 184.693 106.628 196.549C117.316 207.055 129.318 217.269 142.377 227.009C150.366 214.496 158.866 202.167 167.694 190.165C155.692 181.228 144.639 171.816 134.826 162.149ZM168.132 189.581C176.96 177.58 186.152 165.906 195.564 154.707C185.094 146.901 175.427 138.693 166.855 130.266C155.911 140.152 145.332 150.658 135.337 161.638C145.15 171.269 156.167 180.644 168.168 189.581H168.132ZM230.146 176.558C237.697 164.155 245.212 152.117 252.58 140.59C242.841 135.009 233.611 128.953 225.002 122.569C215.408 132.638 205.814 143.362 196.476 154.561C206.945 162.331 218.254 169.737 230.146 176.558ZM196.038 155.072C186.663 166.271 177.507 177.981 168.679 190.019C180.68 198.956 193.63 207.42 207.237 215.226C214.679 202.312 222.23 189.545 229.745 177.142C217.853 170.284 206.508 162.879 196.002 155.072H196.038ZM196.002 154.197C205.413 142.998 214.971 132.309 224.638 122.278C216.065 115.894 208.186 109.182 201.182 102.287C189.654 110.714 178.309 119.943 167.366 129.792C175.938 138.182 185.532 146.39 196.002 154.197ZM201.729 101.886C208.696 108.744 216.576 115.42 225.075 121.767C234.706 111.735 244.409 102.36 254.003 93.8239C247.692 89.1182 241.892 84.1935 236.749 79.1229C225.002 85.8351 213.256 93.4592 201.729 101.886ZM236.493 78.8676C231.35 73.797 226.863 68.5805 223.142 63.364C209.681 68.1063 196.33 73.8699 183.307 80.5821C188.305 87.659 194.396 94.6994 201.364 101.557C212.928 93.1673 224.674 85.5797 236.493 78.8676ZM225.477 122.059C234.013 128.406 243.242 134.425 252.945 140.006C260.351 128.515 267.61 117.535 274.614 107.285C267.464 103.163 260.642 98.7121 254.295 94.0063C244.738 102.579 235.071 111.99 225.477 122.022V122.059ZM253.055 140.809C245.686 152.336 238.208 164.411 230.693 176.85C242.585 183.672 255.061 189.91 267.865 195.418C273.337 181.994 278.59 168.788 283.478 156.021C272.972 151.497 262.758 146.39 253.018 140.809H253.055ZM230.365 177.434C222.85 189.873 215.335 202.641 207.93 215.591C221.573 223.397 235.873 230.547 250.538 236.895C256.411 223.178 262.138 209.535 267.646 196.075C254.806 190.53 242.293 184.292 230.365 177.434ZM207.565 216.211C200.16 229.161 192.828 242.257 185.751 255.353C200.598 263.852 216.174 271.659 232.189 278.554C238.317 264.983 244.373 251.267 250.282 237.551C235.581 231.204 221.245 224.054 207.602 216.211H207.565ZM206.909 215.846C193.266 208.003 180.316 199.504 168.278 190.566C159.45 202.604 150.987 214.934 142.998 227.446C156.094 237.15 170.174 246.379 185.021 254.915C192.135 241.819 199.467 228.76 206.909 215.81V215.846ZM142.633 228.067C134.644 240.579 127.166 253.237 120.308 265.932C133.951 276.073 148.652 285.703 164.119 294.604C170.685 281.727 177.58 268.668 184.693 255.608C169.846 247.072 155.729 237.843 142.633 228.103V228.067ZM142.013 227.592C128.953 217.852 116.915 207.602 106.227 197.096C97.5083 208.988 89.483 221.209 82.3696 233.648C93.4957 244.592 106.044 255.243 119.651 265.421C126.509 252.763 134.024 240.105 142.013 227.592ZM134.389 161.711C124.612 152.044 116.04 142.159 108.999 132.163C98.0555 142.122 87.8414 152.738 78.5393 163.937C86.1999 174.771 95.502 185.569 106.154 196.075C114.909 184.219 124.393 172.728 134.389 161.711ZM134.863 161.201C144.895 150.22 155.473 139.714 166.454 129.865C157.918 121.439 150.439 112.793 144.274 104.075C132.127 112.538 120.454 121.767 109.51 131.689C116.55 141.648 125.086 151.534 134.863 161.164V161.201ZM166.964 129.427C177.944 119.578 189.289 110.385 200.853 101.995C193.886 95.1007 187.757 88.0238 182.76 80.9104C169.737 87.6225 157.042 95.2466 144.858 103.71C150.987 112.392 158.428 121.037 166.964 129.427ZM222.996 63.1451C219.494 58.1475 216.685 53.1134 214.752 48.1523C214.679 47.9334 214.569 47.678 214.496 47.4592C199.941 50.1951 185.605 54.0983 171.634 59.0595C171.743 59.3878 171.889 59.6796 171.998 60.0079C174.625 66.7201 178.382 73.5416 183.125 80.2902C196.148 73.6146 209.535 67.8874 222.996 63.1816V63.1451ZM223.799 63.1451C227.483 68.3616 231.933 73.5416 237.04 78.5757C248.823 71.9001 260.642 66.1729 272.352 61.5036C269.288 58.4758 266.588 55.3386 264.363 52.2379C250.83 54.755 237.259 58.4393 223.762 63.1451H223.799ZM237.296 78.8311C242.439 83.8652 248.203 88.7898 254.477 93.4592C264.071 84.9231 273.592 77.1895 282.858 70.4774C279.101 67.6685 275.635 64.7137 272.535 61.686C260.898 66.3918 249.079 72.1554 237.332 78.8676L237.296 78.8311ZM254.769 93.678C261.044 98.3473 267.829 102.761 274.942 106.883C281.946 96.6693 288.731 87.1483 295.151 78.5393C290.883 76.0587 286.798 73.3957 283.004 70.5868C273.775 77.3719 264.327 85.1055 254.769 93.678ZM275.307 107.066C282.457 111.151 289.935 114.909 297.596 118.192C301.754 106.519 305.511 95.502 308.795 85.3243C304.162 83.318 299.675 81.0928 295.37 78.6122C288.987 87.2577 282.274 96.7787 275.307 107.029V107.066ZM297.96 118.374C305.657 121.657 313.537 124.539 321.453 126.837C322.584 114.106 323.167 101.922 323.131 90.5408C318.352 89.1546 313.61 87.4401 308.977 85.4338C305.767 95.6479 302.046 106.665 297.924 118.338L297.96 118.374ZM321.854 126.947C325.648 128.041 329.442 129.026 333.236 129.865C337.394 130.777 341.407 131.507 345.274 132.054C343.413 118.666 340.823 105.789 337.467 93.678C335.132 93.3497 332.725 92.912 330.208 92.3648C327.91 91.8541 325.648 91.2704 323.35 90.6138C323.459 101.995 322.912 114.179 321.818 126.947H321.854ZM345.638 132.09C353.044 133.112 359.938 133.477 366.213 133.221C361.726 119.688 356.327 106.665 350.052 94.4076C346.295 94.5535 342.136 94.3347 337.686 93.751C341.079 105.862 343.741 118.739 345.638 132.127V132.09ZM366.504 133.185C372.742 132.893 378.397 132.017 383.321 130.558C376.682 117.353 368.985 104.695 360.339 92.8025C357.385 93.678 353.992 94.2252 350.235 94.3711C356.546 106.628 361.981 119.651 366.504 133.185ZM383.54 130.485C388.465 128.99 392.66 126.947 396.089 124.393C387.808 111.954 378.469 100.098 368.036 89.0817C365.994 90.6138 363.44 91.8541 360.485 92.7296C369.167 104.622 376.864 117.28 383.54 130.485ZM366.723 133.841C371.21 147.412 374.822 161.492 377.521 175.902C386.021 175.537 393.681 174.297 400.393 172.327C395.87 158.209 390.252 144.457 383.649 131.215C378.688 132.674 373.034 133.586 366.723 133.878V133.841ZM377.229 176.595C368.657 176.96 359.282 176.449 349.14 175.063C349.505 189.362 349.14 203.954 348.01 218.655C360.376 220.37 371.83 220.953 382.3 220.515C381.534 205.705 379.856 191.004 377.229 176.595ZM348.666 174.99C343.377 174.26 337.868 173.239 332.214 171.998C327.034 170.868 321.818 169.518 316.638 168.022C314.376 181.738 311.603 195.819 308.32 210.046C314.631 211.87 320.979 213.511 327.326 214.898C334.257 216.43 340.969 217.634 347.426 218.546C348.557 203.845 348.994 189.253 348.666 174.99ZM316.127 167.876C305.293 164.703 294.531 160.799 284.025 156.312C279.137 169.08 273.957 182.322 268.522 195.746C281.326 201.255 294.495 205.997 307.737 209.864C311.056 195.637 313.865 181.592 316.163 167.876H316.127ZM268.266 196.403C262.831 209.864 257.104 223.543 251.267 237.259C265.968 243.57 281.034 249.006 296.209 253.42C300.477 239.12 304.271 224.747 307.591 210.557C294.312 206.69 281.144 201.911 268.303 196.403H268.266ZM250.975 237.916C245.102 251.632 239.083 265.385 232.955 278.955C248.969 285.813 265.385 291.759 281.91 296.574C287.017 282.639 291.722 268.412 295.99 254.113C280.779 249.699 265.713 244.227 250.975 237.916ZM232.663 279.575C226.534 293.145 220.333 306.533 214.095 319.592C230.803 326.742 247.911 332.944 265.166 337.978C271.039 324.809 276.547 311.166 281.691 297.231C265.129 292.416 248.714 286.469 232.699 279.575H232.663ZM231.897 279.247C215.883 272.352 200.306 264.546 185.423 256.01C178.309 269.105 171.451 282.165 164.885 295.042C180.389 303.906 196.622 312.041 213.293 319.228C219.531 306.205 225.732 292.817 231.897 279.247ZM164.593 295.662C161.492 301.754 158.465 307.773 155.51 313.756C152.227 320.395 149.163 326.779 146.281 332.944C161.748 341.808 177.981 349.943 194.652 357.129C197.716 351.074 200.926 344.726 204.173 338.087C207.128 332.105 210.046 326.049 213.001 319.884C196.33 312.698 180.06 304.563 164.593 295.699V295.662ZM154.78 313.318C157.735 307.335 160.763 301.316 163.864 295.224C148.397 286.324 133.659 276.693 120.016 266.552C116.769 272.534 113.669 278.554 110.75 284.5C107.467 291.139 104.476 297.596 101.776 303.833C115.42 313.975 130.121 323.569 145.551 332.469C148.433 326.341 151.534 319.921 154.78 313.281V313.318ZM101.485 304.417C96.341 316.273 92.1824 327.362 89.0087 337.649C102.068 347.353 116.149 356.546 130.923 365.045C135.009 355.342 139.787 344.653 145.259 333.017C129.792 324.116 115.128 314.522 101.485 304.381V304.417ZM110.057 284.025C113.012 278.043 116.113 272.06 119.323 266.078C105.716 255.937 93.1673 245.248 82.0048 234.305C78.6487 240.214 75.475 246.124 72.5567 252.106C69.2736 258.745 66.3553 265.275 63.8018 271.623C74.9278 282.566 87.4766 293.218 101.047 303.359C103.783 297.121 106.774 290.665 110.021 284.025H110.057ZM105.716 196.658C95.0642 186.152 85.7621 175.354 78.065 164.484C68.7629 175.683 60.3727 187.465 53.0405 199.686C61.0294 210.994 70.7328 222.23 81.8224 233.174C88.9358 220.734 96.9611 208.514 105.68 196.622L105.716 196.658ZM108.671 131.726C101.995 122.205 96.6693 112.647 93.0214 103.163C92.839 102.725 92.6931 102.287 92.5107 101.813C80.9834 110.677 70.295 120.417 60.5916 130.923C60.774 131.397 60.9564 131.872 61.1388 132.382C65.1515 142.669 70.9152 153.066 78.1745 163.426C87.5131 152.263 97.7272 141.648 108.671 131.689V131.726ZM93.5686 102.761C97.253 112.209 102.542 121.767 109.218 131.251C120.162 121.329 131.835 112.1 144.019 103.673C138.182 95.3561 133.55 87.0024 130.339 78.7581C130.194 78.3569 130.048 77.9921 129.902 77.5908C116.952 84.5948 104.622 92.5837 93.0579 101.412C93.2403 101.849 93.3862 102.287 93.5686 102.725V102.761ZM130.923 78.4298C134.133 86.6741 138.73 94.9913 144.566 103.308C156.75 94.8818 169.481 87.2942 182.504 80.5821C177.726 73.797 173.968 66.9754 171.342 60.2268C171.232 59.8985 171.086 59.6067 170.977 59.2784C157.006 64.276 143.472 70.295 130.485 77.2625C130.631 77.6638 130.777 78.0285 130.923 78.4298ZM214.423 47.2038C212.527 42.0603 211.688 37.2815 211.797 32.904C196.914 33.816 182.213 36.0048 167.949 39.3608C167.803 45.2704 168.971 51.7272 171.524 58.6947C185.496 53.77 199.868 49.9032 214.423 47.2038ZM215.117 47.0579C229.672 44.3584 244.446 42.8263 259.183 42.5345C258.052 39.4338 257.542 36.5884 257.615 33.9984C242.512 32.3204 227.41 31.9556 212.527 32.8311C212.417 37.1721 213.256 41.9144 215.153 47.0579H215.117ZM265.056 52.1285C267.245 55.2292 269.908 58.2934 272.936 61.3212C284.609 56.6883 296.173 53.1134 307.372 50.7058C306.533 49.9032 305.803 49.0642 305.22 48.1887C292.014 48.2617 278.554 49.6114 265.02 52.092L265.056 52.1285ZM273.082 61.4671C276.146 64.4584 279.575 67.3767 283.296 70.1856C292.561 63.4734 301.572 57.7462 310.217 53.1499C309.196 52.3838 308.284 51.5813 307.445 50.7787C296.246 53.1864 284.755 56.7978 273.118 61.4671H273.082ZM283.478 70.295C287.199 73.0674 291.248 75.6939 295.48 78.138C301.9 69.5654 307.956 61.8684 313.537 55.3021C312.37 54.6455 311.275 53.9159 310.254 53.1499C301.681 57.7827 292.671 63.5464 283.478 70.295ZM295.699 78.2474C299.93 80.6915 304.381 82.9167 308.977 84.8866C312.224 74.7454 314.996 65.4068 317.221 57.1261C315.981 56.5789 314.777 55.9952 313.61 55.3386C308.065 61.9413 302.082 69.6749 295.699 78.2839V78.2474ZM309.159 84.9596C313.719 86.9294 318.425 88.6075 323.131 89.9937C323.058 78.6487 322.401 68.0698 321.052 58.5123C319.775 58.1475 318.498 57.6733 317.258 57.1261C315.105 65.4433 312.37 74.7819 309.159 84.9596ZM323.386 90.0666C325.648 90.7232 327.91 91.3069 330.171 91.7811C332.652 92.3283 335.023 92.7661 337.358 93.0944C333.965 81.0198 329.843 69.7113 324.955 59.3513C324.335 59.2784 323.678 59.1324 322.985 58.9865C322.365 58.8406 321.745 58.6947 321.125 58.5123C322.511 68.1063 323.277 78.6852 323.386 90.0301V90.0666ZM337.54 93.1309C341.954 93.751 346.04 93.9334 349.761 93.7875C343.486 81.5305 336.3 70.0761 328.311 59.5337C327.289 59.5702 326.195 59.5337 324.991 59.3513C329.952 69.7113 334.111 81.0198 337.54 93.0944V93.1309ZM349.943 93.7875C353.664 93.6051 357.02 93.0944 359.938 92.2189C351.256 80.3632 341.626 69.2371 331.083 59.1324C330.281 59.3513 329.369 59.4972 328.347 59.5702C336.409 70.0761 343.596 81.567 349.943 93.8239V93.7875ZM360.084 92.1824C363.002 91.3069 365.519 90.1031 367.526 88.571C357.093 77.5543 345.602 67.3402 333.126 58.1475C332.579 58.5488 331.886 58.8771 331.083 59.1324C341.662 69.2371 351.329 80.3267 360.048 92.1824H360.084ZM368.146 89.0087C378.579 100.025 387.99 111.845 396.271 124.284C399.664 121.694 402.254 118.63 403.968 115.055C394.703 103.783 384.306 93.2038 372.779 83.4639C371.757 85.6162 370.189 87.4766 368.146 89.0087ZM383.868 131.105C390.508 144.311 396.162 158.1 400.722 172.181C407.397 170.174 413.125 167.402 417.757 163.9C411.811 150.476 404.698 137.416 396.49 124.977C393.061 127.567 388.829 129.61 383.868 131.105ZM400.904 172.837C405.427 186.955 408.893 201.4 411.228 215.956C419.399 213.475 426.439 210.082 432.13 205.814C428.665 191.806 423.922 177.981 418.049 164.557C413.38 168.059 407.653 170.831 400.941 172.874L400.904 172.837ZM400.576 172.947C393.827 174.953 386.13 176.157 377.594 176.558C380.257 190.967 381.971 205.669 382.774 220.479C393.207 220.005 402.582 218.509 410.826 216.065C408.528 201.51 405.063 187.064 400.576 172.947ZM382.336 221.172C371.867 221.61 360.339 221.026 347.973 219.312C346.842 234.013 344.982 248.787 342.392 263.451C356.546 265.421 369.715 266.078 381.68 265.603C382.847 250.866 383.066 235.983 382.336 221.209V221.172ZM347.353 219.202C340.86 218.29 334.147 217.086 327.216 215.554C320.869 214.168 314.522 212.527 308.174 210.703C304.891 224.929 301.098 239.302 296.866 253.602C304.125 255.681 311.385 257.542 318.644 259.147C326.596 260.898 334.257 262.284 341.662 263.342C344.289 248.677 346.186 233.903 347.353 219.239V219.202ZM318.462 259.84C311.202 258.235 303.906 256.374 296.647 254.259C292.416 268.558 287.71 282.785 282.639 296.72C290.555 299.018 298.471 301.025 306.387 302.776C315.033 304.672 323.423 306.205 331.485 307.335C335.57 293.182 338.926 278.663 341.553 263.998C334.111 262.941 326.414 261.554 318.498 259.803L318.462 259.84ZM306.132 303.469C298.216 301.718 290.3 299.711 282.384 297.413C277.277 311.348 271.768 324.991 265.895 338.16C274.14 340.531 282.384 342.647 290.628 344.471C299.638 346.477 308.393 348.046 316.784 349.213C322.292 335.971 327.107 322.182 331.229 308.029C323.131 306.898 314.777 305.366 306.095 303.469H306.132ZM290.373 345.091C282.128 343.267 273.848 341.151 265.603 338.78C262.831 345.018 259.949 351.11 257.031 357.093C253.748 363.732 250.465 370.043 247.182 376.025C255.426 378.397 263.67 380.512 271.914 382.336C280.925 384.306 289.643 385.911 298.07 387.078C301.535 381.169 304.928 374.858 308.211 368.219C311.166 362.236 313.938 356.108 316.565 349.87C308.138 348.703 299.42 347.098 290.373 345.128V345.091ZM256.228 356.837C259.183 350.855 262.029 344.763 264.837 338.525C247.583 333.491 230.474 327.289 213.767 320.14C210.812 326.305 207.857 332.397 204.939 338.343C201.656 344.982 198.482 351.329 195.418 357.385C212.089 364.534 229.197 370.736 246.452 375.734C249.735 369.751 253.018 363.44 256.265 356.801L256.228 356.837ZM195.09 357.932C189.253 369.386 183.745 379.71 178.638 388.902C194.615 395.761 210.994 401.67 227.483 406.485C233.611 397.657 239.849 387.589 246.087 376.281C228.869 371.247 211.76 365.082 195.09 357.932ZM194.324 357.603C177.653 350.417 161.456 342.282 145.952 333.454C140.481 345.091 135.702 355.78 131.58 365.483C146.39 373.983 161.93 381.753 177.908 388.611C182.979 379.418 188.487 369.058 194.324 357.603ZM131.397 365.921C127.312 375.588 123.919 384.27 121.256 391.857C134.826 399.627 149.09 406.777 163.681 413.052C167.913 406.23 172.582 398.205 177.653 389.048C161.711 382.19 146.208 374.42 131.397 365.921ZM130.704 365.519C115.93 357.02 101.849 347.827 88.8263 338.124C85.6527 348.374 83.4639 357.822 82.2236 366.358C94.1887 375.259 107.066 383.686 120.636 391.492C123.299 383.868 126.655 375.186 130.704 365.519ZM100.828 303.943C87.2213 293.802 74.709 283.15 63.5829 272.206C58.7312 284.281 55.1197 295.881 52.7121 306.825C63.364 317.294 75.3656 327.508 88.3886 337.212C91.5623 326.925 95.7209 315.799 100.828 303.943ZM72.046 251.596C75.0008 245.613 78.138 239.667 81.494 233.794C70.4044 222.85 60.701 211.578 52.6757 200.27C49.2102 206.07 46.0365 211.943 43.0817 217.925C39.7986 224.565 36.9532 231.167 34.4727 237.661C42.4616 248.969 52.1649 260.205 63.2545 271.148C65.8446 264.764 68.7629 258.271 72.0095 251.632L72.046 251.596ZM77.7002 164.01C70.4409 153.649 64.6408 143.216 60.6281 132.929C60.4457 132.455 60.2633 131.944 60.0809 131.47C50.414 142.013 41.732 153.285 34.2903 165.286C34.4726 165.797 34.655 166.308 34.8739 166.782C39.0325 177.507 45.0516 188.377 52.6392 199.175C59.9715 186.955 68.3616 175.209 77.7002 164.01ZM92.2918 101.412C88.6804 91.5987 87.0754 82.479 87.2578 74.1983C75.548 82.0777 64.6773 90.9786 54.8644 100.864C54.6455 109.875 56.3965 119.797 60.3362 130.449C70.0397 119.943 80.7645 110.239 92.2918 101.375V101.412ZM92.839 100.974C104.403 92.1459 116.733 84.1935 129.683 77.1895C126.546 68.617 125.123 60.6646 125.305 53.4417C112.1 59.1689 99.5512 65.954 87.8414 73.8335C87.6225 82.1142 89.2641 91.1975 92.839 101.01V100.974ZM130.303 76.8612C143.289 69.8937 156.86 63.8747 170.831 58.95C168.241 51.9461 167.11 45.4528 167.256 39.5432C152.993 42.9358 139.167 47.4956 125.962 53.1864C125.78 60.4092 127.202 68.3251 130.339 76.8977L130.303 76.8612ZM167.256 39.2514C167.439 33.3418 168.934 28.0159 171.597 23.3465C157.699 25.4259 144.165 28.8184 131.251 33.4147C128.005 39.1419 126.181 45.6352 125.925 52.8216C139.131 47.1673 152.956 42.6075 167.22 39.2514H167.256ZM167.913 39.1055C182.176 35.7859 196.841 33.6336 211.76 32.7216C211.906 28.3807 213.001 24.4409 214.971 21.0119C200.489 20.4647 186.189 21.2308 172.254 23.2736C169.591 27.9429 168.095 33.2324 167.913 39.1055ZM212.454 32.6852C227.337 31.8097 242.439 32.2109 257.542 33.9255C257.615 31.3354 258.271 28.9643 259.475 26.9215C244.81 23.6019 230.146 21.6685 215.627 21.0484C213.657 24.4774 212.563 28.3806 212.454 32.6852ZM259.548 26.8121C260.752 24.7692 262.466 22.9818 264.655 21.5226C251.194 16.9627 237.661 13.8255 224.236 12.0745C220.625 14.4822 217.743 17.437 215.773 20.8295C230.255 21.4496 244.92 23.4195 259.584 26.7756L259.548 26.8121ZM260.241 26.958C274.906 30.3505 289.497 35.1293 303.906 41.3672C304.235 40.82 304.672 40.3458 305.293 39.9445C292.16 32.3933 278.736 26.3378 265.275 21.7415C263.123 23.1642 261.408 24.9151 260.241 26.958ZM305.329 39.908C305.913 39.5067 306.642 39.2149 307.481 38.996C296.319 30.6059 284.864 23.7478 273.264 18.3125C270.236 19.0785 267.573 20.2094 265.421 21.632C278.882 26.2649 292.233 32.3204 305.366 39.8715L305.329 39.908ZM307.518 38.996C308.357 38.7772 309.305 38.6677 310.327 38.6677C301.791 29.9492 292.89 22.7629 283.734 17.0722C279.903 17.1451 276.438 17.5464 273.374 18.3125C284.937 23.7478 296.392 30.6059 307.481 38.996H307.518ZM334.22 52.2744C342.866 54.9009 355.086 59.2419 368.438 66.1729C369.678 66.8295 370.845 67.5226 372.049 68.2157C372.013 68.0698 371.976 67.9603 371.903 67.8144C370.152 63.8382 370.006 63.5464 367.964 60.3362C357.421 55.9223 345.821 52.6027 333.236 50.4869C333.637 51.1071 333.929 51.6907 334.184 52.3109L334.22 52.2744ZM368.328 66.3918C355.123 59.5337 343.012 55.1927 334.366 52.5662C334.695 53.5876 334.731 53.6606 334.804 54.609C348.812 60.5551 361.762 67.632 373.654 75.6209C373.253 72.046 373.216 71.6447 372.122 68.4346C370.845 67.7415 369.569 67.0484 368.328 66.3918ZM374.238 75.9857C386.094 84.0111 396.818 92.9485 406.412 102.652C405.756 96.6328 405.683 95.9762 403.786 90.5044C393.243 81.2752 382.409 74.1253 372.669 68.7264C373.873 72.3378 373.91 72.6297 374.238 75.9857ZM374.238 76.1316C374.311 78.7946 373.837 81.2387 372.815 83.391C384.343 93.0944 394.776 103.673 404.041 114.909C405.719 111.334 406.558 107.321 406.412 102.871C396.855 93.1673 386.094 84.1935 374.238 76.1316ZM396.636 124.904C404.88 137.343 412.03 150.366 417.976 163.791C422.609 160.289 426.148 156.094 428.482 151.242C421.661 138.839 413.635 126.91 404.406 115.638C402.655 119.213 400.065 122.314 396.636 124.904ZM418.268 164.411C424.178 177.835 428.92 191.661 432.422 205.632C438.076 201.328 442.417 196.184 445.299 190.274C441.104 177.142 435.596 164.265 428.81 151.826C426.439 156.677 422.901 160.909 418.268 164.411ZM432.312 206.508C426.585 210.776 419.581 214.205 411.374 216.685C413.672 231.24 414.839 245.905 414.839 260.423C424.214 257.615 432.276 253.675 438.806 248.787C437.93 234.669 435.741 220.479 432.312 206.508ZM410.972 216.795C402.728 219.239 393.316 220.734 382.847 221.209C383.613 236.019 383.394 250.866 382.263 265.603C394.228 265.056 404.99 263.342 414.401 260.569C414.401 246.014 413.234 231.35 410.972 216.795ZM382.19 266.297C380.987 281.034 378.834 295.589 375.661 309.816C388.684 309.232 400.43 307.372 410.68 304.344C413.125 290.227 414.328 275.818 414.365 261.262C404.917 264.071 394.119 265.786 382.154 266.297H382.19ZM381.643 266.297C369.642 266.807 356.473 266.114 342.282 264.144C339.656 278.809 336.336 293.328 332.251 307.481C347.681 309.597 362.017 310.363 375.077 309.816C378.251 295.589 380.439 281.034 381.643 266.297ZM332.068 308.174C327.983 322.328 323.167 336.154 317.659 349.359C333.746 351.584 348.703 352.351 362.309 351.803C367.526 338.561 371.721 324.699 374.931 310.509C361.872 311.056 347.535 310.327 332.068 308.174ZM317.404 349.979C314.777 356.217 312.005 362.346 309.05 368.328C305.767 374.967 302.411 381.242 298.909 387.188C314.996 389.413 329.916 390.179 343.523 389.632C347.17 383.722 350.636 377.448 353.919 370.772C356.874 364.79 359.573 358.661 362.054 352.423C348.447 352.971 333.491 352.205 317.404 349.979ZM298.617 387.735C291.978 398.934 285.01 408.856 277.824 417.466C293.218 419.581 307.518 420.347 320.541 419.8C328.676 411.264 336.263 401.378 343.231 390.179C329.624 390.726 314.704 389.96 298.617 387.735ZM297.851 387.626C289.424 386.458 280.706 384.853 271.695 382.883C263.451 381.059 255.207 378.944 246.963 376.573C240.725 387.881 234.487 397.949 228.322 406.777C236.201 409.039 244.117 411.082 251.997 412.833C260.606 414.73 268.96 416.262 277.021 417.393C284.208 408.783 291.175 398.898 297.814 387.662L297.851 387.626ZM251.741 413.234C243.862 411.483 235.946 409.477 228.103 407.215C221.938 416.006 215.883 423.521 209.973 429.722C217.196 431.802 224.419 433.662 231.678 435.267C239.594 437.018 247.218 438.404 254.623 439.426C262.174 433.553 269.58 426.33 276.803 417.794C268.741 416.663 260.423 415.167 251.778 413.27L251.741 413.234ZM227.301 406.96C210.812 402.144 194.469 396.235 178.492 389.377C173.421 398.533 168.715 406.558 164.447 413.38C179.075 419.654 194.105 425.09 209.207 429.504C215.08 423.266 221.136 415.751 227.301 406.96ZM164.265 413.708C160.033 420.493 156.203 426.075 152.92 430.416C165.651 435.887 178.747 440.593 191.879 444.46C197.351 440.921 203.079 435.997 208.952 429.832C193.886 425.418 178.893 420.019 164.265 413.745V413.708ZM163.572 413.416C148.98 407.142 134.753 399.992 121.22 392.259C118.557 399.81 116.587 406.339 115.347 411.702C127.166 418.487 139.569 424.688 152.3 430.16C155.583 425.819 159.377 420.238 163.572 413.416ZM120.563 391.857C107.029 384.087 94.1523 375.661 82.2236 366.796C80.9833 375.296 80.728 382.883 81.3481 389.486C91.7447 397.22 102.98 404.552 114.799 411.337C116.003 405.938 117.937 399.445 120.563 391.857ZM88.2791 337.686C75.2561 327.983 63.2911 317.805 52.6392 307.335C50.2681 318.279 49.0642 328.566 49.0277 338.124C58.8041 347.718 69.7843 357.056 81.713 365.957C82.9532 357.421 85.142 347.973 88.2791 337.686ZM63.1086 271.695C52.019 260.752 42.3156 249.516 34.3632 238.244C29.7304 250.574 26.5567 262.649 24.7328 274.285C32.3933 285.12 41.659 295.845 52.2744 306.351C54.682 295.407 58.2934 283.806 63.1451 271.732L63.1086 271.695ZM42.7899 217.378C45.7447 211.396 48.9183 205.523 52.3839 199.722C44.7962 188.925 38.7772 178.054 34.6186 167.329C34.4362 166.818 34.2173 166.308 34.0349 165.833C30.5329 171.524 27.2863 177.361 24.368 183.307C21.0849 189.946 18.276 196.585 15.8684 203.224C16.0508 203.735 16.2332 204.246 16.4521 204.72C20.6107 215.445 26.6297 226.279 34.2173 237.077C36.6614 230.584 39.5432 223.981 42.8263 217.342L42.7899 217.378ZM59.9714 130.96C56.0317 120.271 54.2807 110.349 54.4996 101.339C44.7232 111.261 35.9683 122.132 28.4901 133.878C28.2712 143.289 30.0952 153.613 34.1808 164.739C41.6225 152.774 50.3045 141.466 59.9714 130.96ZM54.4996 100.901C54.7914 91.8906 57.0531 83.7557 61.1388 76.6059C55.4116 82.1872 50.0857 88.2062 45.088 94.5535C41.0389 100.062 37.245 105.716 33.7066 111.553C30.5694 118.155 28.7454 125.415 28.4901 133.404C35.9683 121.657 44.7232 110.787 54.4996 100.864V100.901ZM54.9738 100.427C64.7867 90.5408 75.6574 81.64 87.3672 73.797C87.6225 65.5163 89.7383 58.0745 93.4592 51.5083C81.9683 58.5852 71.2799 66.8295 61.613 76.2046C57.5274 83.3545 55.2657 91.4528 54.9738 100.463V100.427ZM87.9144 73.3957C99.6241 65.5527 112.209 58.7676 125.378 53.0769C125.597 45.8541 127.421 39.3243 130.704 33.5971C117.791 38.23 105.497 44.1031 94.0063 51.1435C90.249 57.7098 88.1697 65.1515 87.9144 73.3957ZM130.887 33.3418C134.206 27.6511 138.985 22.7264 145.04 18.6772C136.504 21.3767 128.26 24.7328 120.308 28.709C115.492 31.3354 110.787 34.2173 106.19 37.1721C101.229 41.1483 97.2165 45.7082 94.2253 50.8152C105.716 43.7748 118.01 37.9381 130.923 33.3053L130.887 33.3418ZM131.507 33.1229C144.42 28.5266 157.918 25.1705 171.816 23.1277C174.515 18.4584 178.419 14.4457 183.38 11.1626C170.43 12.2569 157.772 14.7375 145.624 18.5313C139.569 22.5805 134.826 27.4687 131.507 33.1594V33.1229ZM172.473 23.0182C186.371 20.9754 200.671 20.2458 215.153 20.8295C217.159 17.4005 220.005 14.4457 223.653 12.0016C210.228 10.3236 196.95 10.0317 183.964 11.0896C179.039 14.3727 175.136 18.3854 172.436 23.0182H172.473ZM223.835 11.8921C227.519 9.48454 231.97 7.58763 237.113 6.27439C225.404 3.86677 213.694 2.88184 202.203 3.31959C195.236 5.10706 189.217 7.66059 184.255 10.9437C197.205 9.8858 210.484 10.1776 223.872 11.8921H223.835ZM224.492 11.9651C237.879 13.7161 251.413 16.8533 264.837 21.4496C267.026 19.9905 269.689 18.8596 272.79 18.0936C261.19 12.7312 249.407 8.82791 237.697 6.38382C232.59 7.69707 228.14 9.55749 224.492 11.9651ZM272.936 18.0571C276.036 17.291 279.538 16.8533 283.405 16.7803C274.249 11.1261 264.837 6.93101 255.353 4.19508C248.933 4.30452 243.096 4.99762 237.952 6.31086C249.662 8.75496 261.372 12.6582 272.936 18.0571ZM283.588 16.7803C287.454 16.7439 291.722 17.0722 296.246 17.8017C290.044 12.3664 283.515 8.42665 276.693 5.9096C269.142 4.66931 262.065 4.12213 255.608 4.19508C265.056 6.93101 274.431 11.0896 283.551 16.7803H283.588ZM284.025 17.0357C293.145 22.7629 302.01 29.9492 310.473 38.6312C311.531 38.6312 312.661 38.7042 313.902 38.9231C308.576 30.46 302.739 23.5289 296.574 18.0571C292.087 17.3275 287.892 16.9992 284.025 17.0357ZM313.938 38.9231C314.412 38.996 314.85 39.1055 315.361 39.1784C316.163 39.3608 316.966 39.5797 317.768 39.8351C316.017 32.2474 313.683 26.119 310.837 21.4132C307.883 20.5012 304.891 19.6987 301.937 19.042C300.186 18.6408 298.471 18.3124 296.793 18.0571C302.921 23.5289 308.685 30.46 313.975 38.9231H313.938ZM317.841 39.8715C319.118 40.2728 320.395 40.747 321.635 41.3307C323.423 35.0563 324.517 30.2411 324.991 26.8121C320.468 24.7692 315.799 22.9818 311.093 21.5226C313.865 26.1919 316.163 32.2839 317.878 39.8715H317.841ZM321.672 41.3307C322.912 41.8779 324.116 42.498 325.247 43.1911C330.354 38.6677 334.695 35.5305 338.306 33.7431C334.111 31.2625 329.734 28.9643 325.21 26.9215C324.699 30.314 323.532 35.1293 321.708 41.3672L321.672 41.3307ZM325.283 43.2276C326.414 43.9207 327.508 44.6503 328.493 45.4163C336.592 42.9358 343.851 41.7684 350.235 41.8779C346.587 39.069 342.647 36.3695 338.452 33.889C334.804 35.6764 330.427 38.7772 325.247 43.2641L325.283 43.2276ZM328.53 45.4528C329.515 46.2189 330.427 47.0214 331.229 47.8604C341.881 47.6051 351.584 48.6265 360.339 50.8152C357.421 47.7875 354.065 44.8327 350.417 42.0238C343.997 41.9144 336.701 43.0087 328.53 45.4893V45.4528ZM331.266 47.8969C332.068 48.7359 332.761 49.5749 333.308 50.414C345.857 52.4933 357.421 55.8128 367.964 60.1903C365.921 57.0896 363.404 53.9889 360.449 50.9611C351.657 48.7359 341.918 47.678 331.266 47.8969ZM368.438 60.3727C378.944 64.7867 388.392 70.2585 396.709 76.6788C393.28 71.4623 389.012 66.2823 384.087 61.1753C377.339 56.7248 369.569 53.2958 360.814 51.0706C363.768 54.1348 366.322 57.272 368.401 60.4092L368.438 60.3727ZM368.547 60.5186C370.189 63.0357 371.538 65.5892 372.523 68.0698C372.56 68.2157 372.596 68.3616 372.669 68.5075C384.051 74.7819 394.447 82.0048 403.713 90.0666C403.64 89.8477 403.603 89.7018 403.531 89.4829C401.925 85.3243 399.7 81.1293 396.928 76.9342C388.574 70.4774 379.09 64.9691 368.584 60.5551L368.547 60.5186ZM403.932 89.8477C404.005 90.0301 404.041 90.2125 404.114 90.4314C405.427 91.5987 406.814 92.6931 408.09 93.8969C415.532 100.864 422.098 108.416 427.862 116.514C427.862 116.514 427.862 116.441 427.826 116.404C425.71 111.626 424.579 109.145 423.302 106.738C420.311 102.068 417.21 97.5083 413.927 93.0944C409.002 87.3307 403.458 82.0048 397.293 77.226C400.065 81.4576 402.29 85.6891 403.932 89.8477ZM404.297 90.8691C405.902 95.2101 406.777 99.2958 406.923 103.09C416.444 112.793 424.798 123.262 431.875 134.316C431.656 129.136 430.452 123.481 428.227 117.499C420.967 107.139 412.76 98.3109 404.297 90.8691ZM406.923 103.308C407.069 107.795 406.266 111.845 404.552 115.42C413.781 126.692 421.843 138.584 428.665 150.987C430.963 146.135 432.094 140.663 431.875 134.607C424.798 123.554 416.444 113.048 406.923 103.308ZM428.956 151.57C435.741 163.973 441.25 176.85 445.445 189.983C448.29 184.036 449.64 177.324 449.385 169.883C444.971 157.845 439.207 146.208 432.167 135.118C432.385 141.174 431.255 146.682 428.956 151.57ZM432.604 206.289C436.07 220.26 438.259 234.414 439.134 248.568C445.627 243.643 450.588 237.734 453.872 230.948C452.449 217.451 449.64 204.027 445.518 190.895C442.636 196.841 438.295 201.984 432.604 206.289ZM438.842 249.443C432.312 254.331 424.251 258.271 414.839 261.08C414.839 275.635 413.599 290.044 411.191 304.162C421.405 301.098 430.16 296.83 437.274 291.504C439.17 277.678 439.645 263.597 438.842 249.443ZM427.534 332.397C434.428 327.18 439.754 320.906 443.475 313.829C444.168 312.114 444.861 310.4 445.518 308.649C449.458 296.866 452.193 284.828 453.616 272.644C450.041 280.049 444.606 286.506 437.529 291.868C435.596 305.694 432.312 319.264 427.534 332.397ZM437.201 292.124C430.087 297.45 421.296 301.718 411.082 304.782C408.638 318.863 404.917 332.615 399.992 345.857C410.644 342.647 419.8 338.197 427.205 332.652C431.984 319.519 435.304 305.949 437.201 292.124ZM410.607 304.928C400.32 307.992 388.574 309.852 375.551 310.436C372.341 324.626 368.182 338.488 362.966 351.73C376.536 351.11 388.793 349.177 399.481 346.003C404.443 332.798 408.127 319.045 410.607 304.928ZM362.711 352.35C360.23 358.625 357.531 364.753 354.576 370.699C351.293 377.339 347.827 383.613 344.179 389.559C357.749 388.939 369.97 387.006 380.695 383.832C384.489 377.886 388.027 371.611 391.31 364.972C394.265 358.99 396.891 352.861 399.262 346.623C388.538 349.797 376.317 351.73 362.711 352.35ZM343.851 390.106C336.883 401.305 329.259 411.191 321.125 419.727C334.111 419.144 345.821 417.283 356.071 414.255C364.936 405.61 373.107 395.615 380.33 384.379C369.642 387.553 357.421 389.486 343.851 390.106ZM320.76 420.128C312.625 428.628 303.943 435.778 294.933 441.578C306.825 441.031 317.55 439.353 326.961 436.544C337.139 430.561 346.769 423.266 355.67 414.657C345.42 417.684 333.746 419.545 320.76 420.128ZM320.14 420.128C307.117 420.676 292.853 419.946 277.459 417.794C270.236 426.33 262.795 433.553 255.207 439.426C269.324 441.359 282.42 442.052 294.349 441.542C303.359 435.741 311.968 428.592 320.103 420.092L320.14 420.128ZM254.879 439.718C247.291 445.554 239.63 450.005 231.933 453.069C244.227 454.747 255.608 455.367 266.005 454.929C275.562 451.975 284.937 447.597 293.948 441.833C282.019 442.344 268.96 441.651 254.879 439.718ZM254.222 439.608C246.853 438.587 239.229 437.201 231.313 435.45C224.09 433.845 216.868 432.021 209.645 429.941C203.735 436.106 197.971 440.994 192.463 444.533C198.738 446.357 205.048 447.962 211.359 449.348C218.254 450.88 224.893 452.084 231.313 452.96C238.974 449.895 246.634 445.408 254.186 439.572L254.222 439.608ZM211.067 449.494C204.793 448.108 198.482 446.503 192.244 444.679C186.736 448.181 181.483 450.333 176.558 451.136C181.665 452.631 186.809 453.944 191.916 455.039C197.497 456.279 202.933 457.264 208.149 457.994C215.664 457.775 223.324 456.097 230.985 453.069C224.565 452.157 217.925 450.953 211.067 449.458V449.494ZM191.624 444.496C178.492 440.666 165.469 435.96 152.774 430.488C149.454 434.793 146.646 437.821 144.347 439.572C154.707 444.022 165.359 447.852 176.048 450.99C180.936 450.187 186.152 447.998 191.624 444.496ZM152.154 430.233C139.459 424.761 127.093 418.56 115.31 411.811C114.106 417.137 113.596 421.332 113.814 424.324C123.445 429.832 133.513 434.866 143.873 439.353C146.135 437.602 148.907 434.538 152.19 430.233H152.154ZM80.9104 389.34C70.5504 381.607 60.9929 373.508 52.5298 365.155C54.7915 373.071 58.184 380.148 62.5979 386.276C69.5289 393.061 77.299 399.7 85.7621 406.011C83.2451 401.524 81.64 395.943 80.9469 389.34H80.9104ZM80.9104 389.012C80.2538 382.409 80.5091 374.785 81.713 366.285C69.8208 357.385 58.8406 348.082 49.1007 338.488C49.1007 348.01 50.2316 356.837 52.4568 364.79C60.9564 373.144 70.5139 381.278 80.9104 389.012ZM48.6265 338.014C38.9231 328.42 30.4235 318.607 23.4195 308.685C24.368 319.301 26.5932 329.405 30.0587 338.78C36.1507 347.426 43.5559 355.998 52.019 364.352C49.7573 356.363 48.59 347.572 48.59 338.014H48.6265ZM48.6265 337.54C48.6265 327.946 49.8303 317.659 52.2014 306.715C41.586 296.246 32.3204 285.485 24.6963 274.687C22.9088 286.324 22.5076 297.523 23.4195 308.174C30.4235 318.097 38.9231 327.946 48.663 337.54H48.6265ZM34.0349 237.551C26.4473 226.753 20.4647 215.919 16.2696 205.194C16.0872 204.684 15.8684 204.173 15.686 203.699C11.1991 216.284 8.28072 228.869 6.82156 241.199C7.00396 241.673 7.18635 242.147 7.36874 242.658C11.345 252.909 17.1087 263.305 24.368 273.629C26.1919 261.992 29.3656 249.918 33.9984 237.551H34.0349ZM24.222 182.65C27.1768 176.668 30.387 170.831 33.889 165.177C29.8034 154.051 27.9429 143.727 28.1982 134.316C24.6598 139.897 21.4132 145.661 18.4948 151.643C15.2117 158.282 12.4029 164.994 10.0317 171.743C9.81286 181.155 11.6368 191.478 15.7224 202.604C18.1301 195.965 20.9389 189.326 24.222 182.687V182.65ZM10.0682 171.305C12.4393 164.557 15.2482 157.845 18.5313 151.205C21.4861 145.223 24.7328 139.459 28.2347 133.878C28.4901 126.071 30.2411 118.921 33.2688 112.428C24.1491 127.64 16.7439 143.983 11.3085 161.237C10.6154 164.484 10.1776 167.84 10.0682 171.342V171.305ZM11.0531 161.894C7.33227 173.895 4.59638 186.298 2.88187 199.029C4.45046 189.946 6.71214 180.899 9.84933 171.889C9.95877 168.423 10.3965 165.104 11.0531 161.857V161.894ZM61.4306 76.1316C62.3791 74.4901 63.4734 72.9215 64.6043 71.3894C57.9651 78.2839 51.7637 85.5797 46.0365 93.2768C50.8517 87.2213 55.9588 81.4576 61.4671 76.1316H61.4306ZM145.369 18.3489C148.178 16.4885 151.278 14.8469 154.598 13.3878C142.998 17.437 131.799 22.3616 121.11 28.1618C128.917 24.295 137.015 20.9754 145.369 18.3489ZM255.207 3.93973C261.7 3.86677 268.777 4.41396 276.401 5.65424C275.416 5.28945 274.395 5.0341 273.374 4.70579C261.992 2.51705 250.319 1.20381 238.427 0.766059C244.044 1.34972 249.626 2.37113 255.171 3.93973H255.207ZM276.766 5.69072C279.611 6.16495 282.53 6.71213 285.485 7.36875C286.506 7.58763 287.491 7.87946 288.512 8.09833C283.697 6.82157 278.772 5.7272 273.811 4.77875C274.796 5.07058 275.781 5.32593 276.73 5.69072H276.766ZM289.534 8.39017C288.257 8.09833 287.017 7.73354 285.74 7.47819C282.785 6.82157 279.903 6.27439 277.058 5.80016C283.807 8.31721 290.336 12.2569 296.465 17.6923C298.179 17.9841 299.894 18.3125 301.681 18.7137C304.672 19.3703 307.7 20.1729 310.692 21.1213C308.102 16.9262 305.11 13.9715 301.754 12.111C297.705 10.7613 293.656 9.55749 289.497 8.42665L289.534 8.39017ZM302.192 12.2205C305.475 14.0809 308.43 16.9992 310.947 21.1578C315.726 22.6535 320.431 24.4409 325.028 26.5202C325.393 23.8937 325.32 22.1427 324.918 21.1578C317.55 17.8017 309.962 14.8105 302.192 12.2205ZM338.671 33.6336C342.902 36.1507 346.879 38.8866 350.563 41.732C356.509 41.8414 361.653 43.1182 366.03 45.3434C359.537 40.5646 352.788 36.1142 345.784 32.0285C343.887 31.7732 341.516 32.2839 338.634 33.6701L338.671 33.6336ZM350.745 41.8414C354.43 44.6868 357.786 47.678 360.777 50.7423C369.496 52.9675 377.229 56.3236 383.941 60.774C380.841 57.6003 377.448 54.4631 373.873 51.3989C371.429 49.429 368.948 47.4592 366.395 45.5987C361.944 43.337 356.764 42.0238 350.745 41.8779V41.8414ZM384.27 60.9564C385.546 61.8319 386.75 62.7803 387.99 63.7288C383.759 59.6796 379.381 55.8128 374.822 52.092C378.178 55.0103 381.351 57.9651 384.27 60.9564ZM428.19 116.66C428.19 116.66 428.19 116.733 428.227 116.769C431.437 121.329 434.355 126.035 437.018 130.923C433.042 122.642 428.555 114.69 423.63 106.993C425.381 110.13 426.33 112.173 428.19 116.66ZM438.988 135.264C435.851 128.99 432.349 123.153 428.592 117.754C430.817 123.773 432.057 129.427 432.239 134.644C439.28 145.697 445.044 157.334 449.458 169.335C448.801 163.426 448.509 160.69 447.78 157.626C445.226 150.002 442.308 142.523 438.988 135.264ZM449.676 169.883C452.996 179.002 455.513 188.341 457.228 197.826C455.294 184.036 452.121 170.685 447.852 157.808C448.874 162.003 449.531 166.052 449.676 169.883ZM457.446 199.577C455.732 189.618 453.142 179.805 449.676 170.211C449.932 177.653 448.546 184.401 445.737 190.347C449.895 203.48 452.704 216.904 454.127 230.365C457.045 224.236 458.504 217.378 458.577 209.9C458.285 206.435 457.884 202.969 457.446 199.54V199.577ZM454.054 231.35C450.771 238.171 445.773 244.081 439.28 249.006C440.119 263.123 439.645 277.204 437.748 291.029C444.825 285.667 450.224 279.247 453.799 271.841C455.331 258.417 455.404 244.847 454.017 231.35H454.054ZM447.123 304.052C451.573 291.066 454.929 277.532 457.009 263.597C456.206 266.552 455.185 269.397 453.908 272.097C452.631 282.858 450.37 293.51 447.123 304.016V304.052ZM427.424 332.834C425.163 339.036 422.536 345.128 419.581 351.11C416.298 357.749 412.723 364.06 408.82 370.079C411.957 367.708 414.73 365.118 417.21 362.346C427.716 347.572 436.508 331.485 443.293 314.376C439.572 321.416 434.282 327.618 427.424 332.834ZM419.253 351.366C422.208 345.383 424.798 339.291 427.096 333.09C419.691 338.634 410.535 343.085 399.883 346.295C397.512 352.533 394.885 358.661 391.93 364.644C388.647 371.283 385.109 377.594 381.315 383.504C391.967 380.293 401.086 375.843 408.528 370.298C412.431 364.316 416.043 358.005 419.289 351.329L419.253 351.366ZM380.95 384.051C373.691 395.286 365.556 405.245 356.655 413.927C366.067 411.082 374.165 407.215 380.95 402.473C382.883 400.758 384.817 399.044 386.677 397.293C394.52 389.34 401.743 380.585 408.09 370.882C400.685 376.427 391.565 380.877 380.914 384.087L380.95 384.051ZM356.254 414.328C347.353 422.937 337.722 430.27 327.508 436.252C330.609 435.304 333.527 434.282 336.336 433.115C352.205 424.798 366.979 414.657 380.366 403.02C373.618 407.726 365.592 411.556 356.254 414.365V414.328ZM327.034 436.508C322.292 439.28 317.404 441.724 312.406 443.913C320.358 440.849 328.056 437.383 335.534 433.48C332.834 434.611 329.989 435.596 327.034 436.508ZM326.596 436.653C317.221 439.426 306.496 441.14 294.641 441.651C285.63 447.378 276.219 451.756 266.625 454.747C272.68 454.492 278.335 453.799 283.697 452.85C292.306 450.771 300.733 448.29 308.904 445.299C314.96 442.818 320.869 439.973 326.596 436.653ZM266.151 454.893C261.335 456.352 256.447 457.446 251.523 458.213C262.102 457.228 272.462 455.513 282.566 453.142C277.423 454.017 271.951 454.638 266.151 454.929V454.893ZM208.368 457.957C207.565 457.957 206.69 457.957 205.741 457.921C208.04 458.176 210.338 458.322 212.672 458.504C211.25 458.358 209.827 458.176 208.368 457.994V457.957ZM207.894 457.884C202.677 457.155 197.278 456.17 191.697 454.929C186.59 453.799 181.483 452.485 176.376 451.026C174.26 451.354 172.181 451.391 170.174 451.209C181.556 454.309 193.302 456.535 205.304 457.848C206.143 457.848 206.982 457.921 207.857 457.884H207.894ZM175.902 450.88C165.25 447.78 154.634 443.949 144.311 439.499C142.998 440.484 141.867 440.994 140.882 441.104C150.184 445.044 159.851 448.363 169.737 451.063C171.707 451.245 173.786 451.209 175.865 450.88H175.902ZM113.45 424.068C103.892 418.56 94.7724 412.614 86.3458 406.339C87.5496 408.09 89.2276 410.097 90.8691 411.884C98.4203 417.684 106.336 422.974 114.544 427.826C113.96 426.914 113.596 425.71 113.413 424.105L113.45 424.068ZM62.5615 386.094C61.7954 385.328 61.0293 384.525 60.2633 383.759C61.1388 384.744 62.0872 385.656 62.9627 386.604C62.8168 386.422 62.6709 386.276 62.525 386.094H62.5615ZM62.3426 385.802C57.8922 379.673 54.4996 372.56 52.2014 364.607C43.7383 356.254 36.3695 347.718 30.2776 339.109C31.9556 343.596 33.9255 347.864 36.1872 352.022C43.1547 363.039 50.9976 373.472 59.7161 383.102C60.5916 384.014 61.4671 384.89 62.3426 385.802ZM29.9857 338.707C26.6297 333.929 23.7478 329.186 21.2673 324.408C25.4988 333.746 30.3505 342.757 35.7859 351.402C33.5971 347.316 31.6637 343.121 30.0222 338.707H29.9857ZM29.8033 338.27C26.3014 328.858 24.0761 318.753 23.1277 308.102C16.4885 298.653 11.2355 289.169 7.58765 279.757C7.40525 279.32 7.2593 278.882 7.0769 278.444C7.80648 283.879 8.79143 289.242 10.1047 294.495C13.023 304.454 16.6344 314.084 20.8295 323.423C23.383 328.347 26.3743 333.308 29.8398 338.233L29.8033 338.27ZM6.89453 278.006C5.87312 275.234 5.03411 272.498 4.30453 269.835C5.72722 277.824 7.51468 285.63 9.7399 293.328C8.53609 288.293 7.55115 283.186 6.89453 278.006ZM7.00397 277.897C7.18636 278.335 7.33228 278.772 7.51468 279.21C11.1626 288.622 16.452 298.143 23.0912 307.591C22.1792 296.939 22.5805 285.703 24.368 274.067C17.1087 263.743 11.3814 253.383 7.36874 243.132C7.18635 242.658 7.00396 242.184 6.82156 241.673C5.43536 254.003 5.50833 266.114 7.00397 277.897ZM15.5401 203.115C11.4544 191.989 9.63046 181.665 9.84933 172.29C6.67566 181.483 4.34103 190.785 2.77243 200.087C2.15229 204.829 1.67804 209.608 1.34973 214.46C1.56861 222.558 3.24662 231.277 6.71213 240.652C8.13481 228.285 11.0531 215.737 15.5765 203.151L15.5401 203.115ZM458.504 210.994C458.395 218.363 456.899 225.148 454.054 231.204C455.404 244.665 455.367 258.235 453.835 271.659C455.112 268.923 456.17 266.078 456.936 263.086C458.504 252.289 459.343 241.236 459.343 230.036C459.343 223.616 459.015 217.305 458.504 211.031V210.994ZM416.554 363.185C414.109 365.884 411.374 368.401 408.309 370.736C402.327 379.856 395.578 388.173 388.282 395.76C398.679 385.802 408.163 374.931 416.554 363.185ZM4.04919 269.142C4.77877 271.914 5.65424 274.723 6.71213 277.605C5.21649 265.822 5.10705 253.711 6.49326 241.345C3.06423 232.043 1.3862 223.397 1.16733 215.335C0.875496 220.187 0.656647 225.075 0.656647 230C0.656647 243.351 1.86046 256.411 4.04919 269.142Z" fill="url(#paint0_linear_459_27751)"/>
</g>
<defs>
<linearGradient id="paint0_linear_459_27751" x1="93.9714" y1="-6.32224e-07" x2="387.714" y2="428.457" gradientUnits="userSpaceOnUse">
<stop stop-color="white" stop-opacity="0"/>
<stop offset="0.490809" stop-color="white"/>
<stop offset="1" stop-color="white" stop-opacity="0"/>
</linearGradient>
<clipPath id="clip0_459_27751">
<rect width="460" height="460" fill="white"/>
</clipPath>
</defs>
</svg>
