<svg width="366" height="368" viewBox="0 0 366 368" fill="none" xmlns="http://www.w3.org/2000/svg">
<g opacity="0.5" clip-path="url(#clip0_2462_25131)">
<path d="M183.054 367.196H183C87.5767 367.089 0.696296 280.208 0.750025 184.946C0.750025 159.425 4.56481 72.437 52.7063 24.403C80.4307 -3.21391 117.773 -0.849821 153.825 1.46054C163.496 2.05156 173.49 2.69632 182.946 2.69632C233.721 2.69632 281.379 21.233 313.616 53.4706C345.8 85.6545 365.089 134.817 365.143 184.893C365.143 218.635 338.547 239.32 312.756 259.308C303.085 266.776 293.951 273.868 286.268 281.552C278.316 289.504 270.686 299.336 262.627 309.652C240.705 337.914 217.978 367.089 182.946 367.089L183.054 367.196ZM123.683 1.03071C97.9464 1.03071 73.1235 5.32906 53.3511 25.0477C5.42448 72.8131 1.66342 159.532 1.60969 184.946C1.55597 279.725 88.0065 366.176 183 366.337H183.054C217.655 366.337 240.222 337.323 262.036 309.222C270.095 298.853 277.725 289.02 285.731 281.014C293.468 273.277 302.602 266.185 312.273 258.717C337.902 238.837 364.39 218.312 364.337 185C364.283 135.139 345.102 86.1918 313.025 54.1691C280.949 22.0389 233.559 3.60972 183 3.55599C173.49 3.55599 163.496 2.91123 153.825 2.32021C143.778 1.67546 133.676 1.03071 123.737 1.03071H123.683Z" fill="url(#paint0_radial_2462_25131)"/>
<path d="M182.731 358.062C140.984 358.062 97.6776 338.72 63.7207 304.924C29.4413 270.806 9.77639 226.909 9.72266 184.463C9.72266 157.007 13.6986 128.208 20.9521 103.439C29.8174 73.243 43.0349 49.226 60.2283 32.0863C86.9318 5.49025 122.877 7.63942 157.64 9.7886C166.559 10.3259 174.994 10.8632 183.322 10.9169C233.237 11.2393 278.961 28.4327 308.619 58.0913C339.46 88.9319 357.029 134.978 356.868 184.463C356.761 216.593 331.508 237.171 307.115 257.051C298.787 263.821 290.942 270.215 284.172 277.038C276.811 284.399 269.665 293.157 262.09 302.452C240.92 328.457 216.903 357.901 183.269 358.062C183.269 358.062 182.892 358.062 182.678 358.062H182.731ZM129.109 9.46622C104.125 9.46622 80.0544 13.5497 60.873 32.6773C23.7997 69.6431 10.5823 135.3 10.6361 184.463C10.6361 226.64 30.2473 270.322 64.3654 304.279C98.1612 337.914 141.306 357.149 182.785 357.149C183 357.149 183.161 357.149 183.376 357.149C216.581 356.988 239.416 328.995 261.498 301.861C269.074 292.566 276.22 283.755 283.635 276.394C290.459 269.57 298.303 263.176 306.631 256.353C330.863 236.58 355.955 216.109 356.062 184.409C356.223 135.139 338.708 89.3081 308.028 58.6286C278.477 29.0774 233.022 11.9915 183.322 11.6691C174.994 11.6691 166.129 11.0781 157.586 10.5408C148.13 9.94979 138.566 9.35876 129.109 9.35876V9.46622Z" fill="url(#paint1_radial_2462_25131)"/>
<path d="M184.241 348.014C145.126 348.014 103.916 329.424 71.1945 296.971C38.2584 264.304 19.3994 222.771 19.3457 183.119C19.3457 137.073 32.1333 75.1229 68.0245 39.2854C93.7071 13.7102 128.363 15.537 161.89 17.3101C169.68 17.7399 176.988 18.116 184.241 18.1698C232.49 18.4921 276.065 34.6109 303.843 62.2816C332.534 90.8656 349.459 136.052 349.19 183.119C348.975 214.067 324.958 234.592 301.747 254.525C294.709 260.543 288.1 266.238 282.243 272.095C275.742 278.596 269.295 286.172 262.471 294.231C241.033 319.43 216.694 348.014 184.295 348.068H184.241V348.014ZM136.1 17.2564C111.438 17.2564 87.5283 21.0711 68.6693 39.8764C32.9392 75.499 20.2591 137.234 20.2591 183.119C20.2591 222.556 39.0644 263.874 71.8393 296.38C104.399 328.672 145.341 347.208 184.241 347.208H184.295C216.318 347.208 240.496 318.786 261.773 293.694C268.596 285.635 275.097 278.059 281.599 271.504C287.509 265.593 294.171 259.898 301.156 253.88C324.206 234.108 348.062 213.691 348.277 183.173C348.599 136.321 331.728 91.4029 303.198 62.98C275.581 35.4706 232.221 19.513 184.187 19.1369C176.934 19.1369 169.573 18.7071 161.782 18.2772C153.186 17.7937 144.535 17.3638 135.992 17.3638L136.1 17.2564Z" fill="url(#paint2_radial_2462_25131)"/>
<path d="M185.468 337.215C148.824 337.215 109.924 319.431 78.761 288.321C47.5443 257.212 29.5987 218.043 29.5449 180.916C29.5449 138.255 41.7415 80.3887 76.1283 46.002C100.951 21.179 136.251 22.7371 167.414 24.0804C173.808 24.349 179.88 24.6177 185.844 24.6714C207.712 24.8863 262.515 29.3459 299.428 66.0967C326.937 93.4987 342.519 135.408 342.142 180.97C341.874 211.112 318.824 231.798 296.58 251.839C290.885 256.943 285.512 261.779 280.622 266.668C275.034 272.256 269.393 278.596 263.429 285.313C241.83 309.598 217.329 337.161 185.897 337.215C185.79 337.215 185.682 337.215 185.575 337.215H185.468ZM145.224 24.2953C120.616 24.2953 95.5246 27.7877 76.7193 46.593C42.4937 80.7649 30.3509 138.416 30.4046 180.916C30.4046 217.828 48.2965 256.729 79.3521 287.677C110.354 318.571 149.039 336.302 185.468 336.302C185.575 336.302 185.682 336.302 185.79 336.302C216.846 336.194 241.185 308.846 262.677 284.668C268.641 277.952 274.282 271.612 279.924 265.97C284.867 261.027 290.24 256.191 295.935 251.087C318.072 231.207 340.96 210.629 341.229 180.863C341.605 135.515 326.185 93.8748 298.783 66.634C262.139 30.0981 207.55 25.6923 185.79 25.4773C179.826 25.4236 173.755 25.155 167.307 24.8863C160.107 24.5639 152.693 24.2416 145.224 24.2416V24.2953Z" fill="url(#paint3_radial_2462_25131)"/>
<path d="M187.08 325.663C152.961 325.663 116.64 309.007 87.3042 279.939C57.4307 250.334 40.291 213.207 40.291 178.068C40.291 140.404 51.7891 84.7943 84.5103 52.2343C108.796 28.0561 143.29 29.1307 173.755 30.0978C178.644 30.259 183.265 30.4202 187.886 30.4202C227.377 30.85 264.45 46.1629 292.121 73.5111C320.167 101.182 335.534 138.309 335.48 178.015C335.426 207.458 311.785 229.649 290.939 249.206C286.748 253.182 282.772 256.889 279.011 260.651C274.444 265.218 269.823 270.214 264.933 275.48C243.281 298.852 218.726 325.341 187.886 325.609C187.617 325.609 187.348 325.609 187.08 325.609V325.663ZM155.272 30.5814C130.18 30.5814 104.336 33.6977 85.0476 52.8791C52.5413 85.2241 41.0432 140.565 41.0432 178.068C41.0432 212.993 58.1292 249.905 87.8415 279.348C117.231 308.523 153.714 325.072 187.778 324.803C218.243 324.588 242.636 298.207 264.181 274.996C269.071 269.731 273.691 264.734 278.312 260.113C282.073 256.352 286.049 252.591 290.294 248.669C311.033 229.219 334.513 207.136 334.567 178.068C334.782 96.6685 270.306 32.247 187.832 31.3336C183.211 31.3336 178.59 31.1187 173.701 31.0112C167.683 30.85 161.504 30.6351 155.326 30.6351L155.272 30.5814Z" fill="url(#paint4_radial_2462_25131)"/>
<path d="M188.372 313.574C157.37 313.574 124.165 298.476 97.0321 271.988C68.5555 244.156 51.4696 207.781 51.3621 174.63C51.2547 140.082 62.108 88.8244 93.0561 58.0374C117.234 34.0204 151.782 34.8264 182.301 35.5248C184.987 35.5786 187.674 35.6323 190.306 35.686C227.541 36.3308 262.357 50.7302 288.47 76.3592C315.012 102.364 329.465 137.288 329.25 174.684C329.089 204.074 305.824 226.748 285.3 246.681C282.613 249.26 280.034 251.839 277.509 254.311C274.178 257.642 270.847 261.081 267.3 264.734C245.486 287.354 220.825 312.93 190.253 313.574C189.608 313.574 188.963 313.574 188.318 313.574H188.372ZM190.306 312.661C220.502 312.016 245.056 286.548 266.709 264.09C270.256 260.436 273.587 256.997 276.918 253.612C279.443 251.087 282.022 248.562 284.709 245.929C305.072 226.049 328.23 203.537 328.391 174.523C328.821 98.4419 268.16 37.7815 190.306 36.4382C187.674 36.4382 184.987 36.3308 182.301 36.277C151.943 35.5786 117.557 34.7726 93.7009 58.5747C62.9677 89.2005 52.1681 140.19 52.2218 174.576C52.3292 207.459 69.3077 243.619 97.6231 271.289C125.186 298.208 158.982 313.252 190.306 312.607V312.661Z" fill="url(#paint5_radial_2462_25131)"/>
<path d="M191.439 300.894C161.941 300.894 130.563 286.763 105.203 261.887C78.3385 235.613 62.9182 202.301 62.8108 170.601C62.757 137.611 72.9656 92.0482 101.872 63.2493C125.943 39.2322 160.706 39.8233 191.331 40.3068H193.051C227.814 40.8978 260.481 54.4376 285.035 78.5621C309.966 103.009 323.559 135.73 323.344 170.654C323.183 200.474 299.918 223.578 279.394 244.049L276.116 247.326C274.236 249.207 272.302 251.141 270.367 253.129C248.446 275.265 223.623 300.411 193.051 300.948C192.513 300.948 191.922 300.948 191.331 300.948L191.439 300.894ZM177.953 41.0053C151.142 41.0053 122.88 43.5306 102.517 63.8403C73.7716 92.478 63.6167 137.772 63.6704 170.601C63.7242 202.086 79.0908 235.129 105.794 261.296C131.477 286.495 163.285 300.572 193.104 300.035C223.3 299.497 248.016 274.513 269.776 252.43C271.711 250.442 273.645 248.508 275.525 246.628L278.803 243.35C299.22 223.04 322.324 200.044 322.485 170.601C322.861 100.376 264.833 42.2948 193.051 41.1665H191.331C186.926 41.059 182.466 41.0053 177.899 41.0053H177.953Z" fill="url(#paint6_radial_2462_25131)"/>
<path d="M194.715 287.784C166.669 287.784 137.279 274.62 113.691 251.517C88.8684 227.177 74.6301 196.068 74.5764 166.087C74.5227 136.16 84.0328 94.5733 110.897 67.7624C133.303 45.411 165.325 43.9603 196.22 44.4438C228.565 44.9274 259.029 57.6075 282.026 80.2276C305.29 103.116 318.024 133.635 317.863 166.087C317.702 196.713 292.933 221.482 274.826 239.589L274.396 240.019C253.388 261.027 227.222 287.193 196.166 287.73C195.682 287.73 195.145 287.73 194.662 287.73L194.715 287.784ZM188.536 45.3035C160.275 45.3035 131.852 48.2049 111.542 68.4608C84.8387 95.0569 75.3823 136.375 75.4361 166.141C75.4898 195.853 89.6743 226.748 114.282 250.926C138.085 274.298 167.958 287.354 196.166 286.924C226.845 286.387 252.85 260.382 273.751 239.481L274.181 239.052C292.18 221.052 316.788 196.444 316.95 166.141C317.272 100.484 263.059 46.3244 196.166 45.3572C193.587 45.3572 191.062 45.3035 188.483 45.3035H188.536Z" fill="url(#paint7_radial_2462_25131)"/>
<path d="M199.012 274.406C171.771 274.406 143.671 261.994 121.749 240.234C99.4517 218.097 86.6641 189.406 86.6641 161.413C86.6641 126.919 99.5054 92.6394 120.191 71.9536C141.414 50.8379 172.255 48.2052 199.603 48.4201C229.853 48.6888 258.222 60.4018 279.499 81.41C300.99 102.633 312.757 131.056 312.596 161.413C312.435 188.922 293.737 211.435 273.589 231.584C253.01 252.162 228.617 274.191 199.603 274.406C199.388 274.406 199.173 274.406 199.012 274.406ZM196.702 49.2798C170.267 49.2798 141.038 52.3961 120.836 72.5983C100.258 93.123 87.5237 127.134 87.5237 161.413C87.5237 189.137 100.258 217.614 122.34 239.589C144.101 261.188 171.986 273.492 199.012 273.492C199.227 273.492 199.442 273.492 199.603 273.492C228.241 273.278 252.473 251.41 272.944 230.939C292.985 210.898 311.521 188.6 311.683 161.359C312.059 100.054 261.768 49.7634 199.549 49.2798C198.582 49.2798 197.615 49.2798 196.594 49.2798H196.702Z" fill="url(#paint8_radial_2462_25131)"/>
<path d="M202.773 260.758C176.983 260.758 150.709 249.314 130.668 229.38C110.412 209.232 98.8066 182.636 98.8066 156.416C98.8066 125.36 110.573 94.412 129.54 75.553C150.924 54.3299 181.765 52.0195 203.149 52.127C260.854 52.4493 307.653 99.2476 307.491 156.469C307.384 184.301 288.632 206.706 272.245 223.04C254.729 240.556 231.088 260.651 203.149 260.812C203.149 260.812 202.88 260.812 202.773 260.812V260.758ZM201.752 52.9866C180.636 52.9866 150.817 55.6194 130.131 76.1977C111.326 94.8955 99.6663 125.629 99.6663 156.469C99.6663 182.421 111.164 208.802 131.259 228.789C151.139 248.562 177.198 259.898 202.719 259.898C202.827 259.898 202.988 259.898 203.095 259.898C230.712 259.791 254.192 239.804 271.547 222.395C287.773 206.169 306.417 183.979 306.524 156.416C306.739 99.6774 260.317 53.2553 203.095 52.9866C202.665 52.9866 202.182 52.9866 201.698 52.9866H201.752Z" fill="url(#paint9_radial_2462_25131)"/>
<path d="M206.637 246.949C182.298 246.949 157.958 236.526 139.744 218.365C121.53 200.151 111.053 175.704 111.053 151.311C111.053 123.157 121.53 96.0236 138.992 78.7228C154.466 63.4099 177.14 55.6191 206.369 55.6191H206.691C259.507 55.7266 302.383 98.6564 302.383 151.311C302.383 172.051 290.616 196.121 271.005 215.679C251.394 235.236 227.377 246.949 206.745 246.949H206.637ZM206.422 56.4788C177.462 56.4788 155.003 64.1621 139.637 79.3138C122.336 96.4535 111.966 123.318 111.966 151.257C111.966 175.436 122.336 199.668 140.389 217.721C158.442 235.72 182.567 246.036 206.637 246.036H206.745C227.162 246.036 250.964 234.43 270.414 215.034C289.864 195.584 301.523 171.782 301.523 151.257C301.523 99.0862 259.023 56.5863 206.745 56.4788H206.422Z" fill="url(#paint10_radial_2462_25131)"/>
<path d="M210.511 233.141H210.404C163.23 233.034 123.362 193.22 123.416 146.153C123.416 95.809 160.059 59.1655 210.404 59.1655H210.511C233.346 59.1655 255.053 68.2995 271.655 84.8482C288.258 101.451 297.392 123.211 297.445 146.207C297.445 165.765 287.076 187.847 269.56 205.363C252.098 222.825 230.015 233.249 210.511 233.249V233.141ZM210.404 232.282H210.511C229.8 232.282 251.668 221.966 268.969 204.665C286.27 187.364 296.586 165.442 296.586 146.153C296.478 99.4626 257.095 60.0252 210.511 60.0252H210.458C160.597 60.0252 124.383 96.2925 124.329 146.153C124.329 192.737 163.713 232.228 210.458 232.282H210.404Z" fill="url(#paint11_radial_2462_25131)"/>
<path d="M214.699 219.333C214.699 219.333 214.215 219.333 214.001 219.333C194.121 219.064 174.187 210.468 159.25 195.692C143.991 180.594 135.609 161.144 135.609 140.996C135.609 97.4748 170.05 63.088 213.947 62.6582C214.162 62.6582 214.43 62.6582 214.645 62.6582C234.257 62.6582 253.223 70.7176 268.106 85.3857C283.365 100.43 292.177 120.686 292.284 140.996C292.392 159.102 282.935 179.305 267.085 195.047C251.504 210.521 232.43 219.333 214.645 219.333H214.699ZM214.699 63.5179C214.699 63.5179 214.215 63.5179 214.001 63.5179C170.587 63.9477 136.577 98.0121 136.523 140.996C136.523 181.722 172.683 217.936 214.001 218.473C214.215 218.473 214.484 218.473 214.699 218.473C232.215 218.473 251.074 209.715 266.494 194.403C282.237 178.821 291.532 158.834 291.478 140.996C291.371 120.901 282.667 100.86 267.569 85.9767C252.847 71.4698 234.095 63.4641 214.699 63.4641V63.5179Z" fill="url(#paint12_radial_2462_25131)"/>
<path d="M217.114 205.739C199.061 205.739 181.867 198.486 168.596 185.322C155.164 171.943 147.749 154.428 147.803 136.052C147.803 117.301 155.11 99.7312 168.328 86.6212C181.491 73.565 198.792 66.3652 217.168 66.3652C217.275 66.3652 217.383 66.3652 217.49 66.3652C234.737 66.419 252.307 74.0485 265.632 87.2122C279.171 100.537 287.016 118.375 287.177 136.052C287.338 152.44 279.655 169.687 266.223 183.334C252.253 197.465 234.522 205.632 217.49 205.739C217.383 205.739 217.221 205.739 217.114 205.739ZM217.49 204.88C234.307 204.772 251.823 196.713 265.578 182.743C278.903 169.257 286.425 152.225 286.264 136.052C285.941 99.57 253.811 67.3861 217.436 67.2249C217.329 67.2249 217.221 67.2249 217.114 67.2249C198.953 67.2249 181.867 74.3172 168.865 87.2122C155.809 100.215 148.609 117.516 148.609 136.052C148.609 154.213 155.916 171.46 169.187 184.677C182.351 197.787 199.491 204.987 217.436 204.88H217.49Z" fill="url(#paint13_radial_2462_25131)"/>
<path d="M220.716 192.307C205.08 192.307 189.499 185.699 178.001 174.201C166.288 162.488 159.786 147.229 159.84 131.271C159.84 115.313 166.341 100.054 178.054 88.3949C189.66 76.8431 205.188 70.2344 220.769 70.2344H220.877C252.47 70.2881 281.591 99.4094 281.913 131.271C282.074 145.939 275.466 161.144 263.753 172.965C251.664 185.215 236.028 192.254 220.877 192.307H220.716ZM220.716 71.094C205.349 71.094 190.036 77.5953 178.592 88.9859C167.04 100.484 160.646 115.528 160.646 131.271C160.646 147.014 166.986 162.058 178.592 173.61C189.982 185 205.403 191.448 220.823 191.448C235.76 191.448 251.18 184.463 263.108 172.374C274.606 160.715 281.161 145.724 281 131.271C280.678 99.8393 251.986 71.2015 220.823 71.094H220.716Z" fill="url(#paint14_radial_2462_25131)"/>
<path d="M224.539 179.251C224.539 179.251 224.216 179.251 224.001 179.251C195.579 178.928 171.615 154.911 171.615 126.865C171.615 99.2478 196.116 74.7472 224.001 74.4785C224.109 74.4785 224.27 74.4785 224.377 74.4785C250.866 74.4785 276.065 99.8388 276.387 126.865C276.549 139.867 270.746 153.192 260.537 163.454C250.436 173.555 237.38 179.305 224.539 179.305V179.251ZM224.431 75.3382C224.431 75.3382 224.163 75.3382 224.055 75.3382C196.653 75.6068 172.582 99.6776 172.529 126.865C172.529 154.428 196.116 178.015 224.055 178.391C236.843 178.499 249.899 172.857 259.946 162.81C269.994 152.762 275.689 139.652 275.528 126.865C275.205 100.269 250.436 75.3382 224.431 75.3382Z" fill="url(#paint15_radial_2462_25131)"/>
<path d="M227.699 166.571C227.43 166.571 227.108 166.571 226.839 166.571C203.521 165.979 183.104 145.562 183.104 122.835C183.104 100.43 203.951 79.5827 226.839 79.0991C227.054 79.0991 227.269 79.0991 227.538 79.0991C237.478 79.0991 247.847 83.6661 256.175 91.6718C265.202 100.376 270.467 111.767 270.629 122.781C270.79 133.742 265.847 145.025 257.089 153.675C248.761 161.896 238.176 166.517 227.806 166.517L227.699 166.571ZM227.484 79.9588C227.484 79.9588 227.054 79.9588 226.839 79.9588C204.81 80.4424 184.017 101.236 183.963 122.835C183.963 145.079 204.004 165.12 226.839 165.711C237.263 165.979 248.009 161.359 256.39 153.138C264.987 144.649 269.823 133.634 269.715 122.889C269.554 112.089 264.396 100.967 255.531 92.3703C247.364 84.5258 237.209 80.0125 227.538 80.0125L227.484 79.9588Z" fill="url(#paint16_radial_2462_25131)"/>
<path d="M228.938 154.428C219.965 154.428 211.368 150.828 204.759 144.273C198.043 137.61 194.229 128.53 194.229 119.396C194.229 110.531 198.204 101.558 205.082 94.788C211.905 88.0718 220.717 84.2571 229.314 84.3645C247.098 84.5794 264.13 101.612 264.399 119.45C264.507 128.208 260.96 136.751 254.459 143.413C247.689 150.344 238.502 154.428 229.368 154.535C229.26 154.535 229.153 154.535 228.991 154.535L228.938 154.428ZM228.938 85.1705C220.663 85.1705 212.228 88.8778 205.619 95.379C198.903 101.988 195.034 110.746 195.034 119.396C195.034 128.315 198.742 137.18 205.297 143.682C211.852 150.183 220.341 153.675 229.206 153.622C238.125 153.514 247.098 149.592 253.707 142.768C260.101 136.267 263.539 127.939 263.378 119.396C263.163 101.988 246.507 85.3854 229.206 85.2242C229.099 85.2242 228.991 85.2242 228.884 85.2242L228.938 85.1705Z" fill="url(#paint17_radial_2462_25131)"/>
<path d="M231.572 142.93C231.572 142.93 231.411 142.93 231.303 142.93C216.957 142.769 204.868 130.679 204.922 116.495C204.922 102.794 217.548 90.2212 231.303 90.1138C231.357 90.1138 231.411 90.1138 231.464 90.1138C244.789 90.1138 257.523 102.901 257.684 116.495C257.792 123.211 254.944 129.981 249.894 135.085C244.897 140.082 238.234 142.93 231.572 142.93ZM231.464 90.9734C231.464 90.9734 231.357 90.9734 231.303 90.9734C217.978 91.0809 205.782 103.277 205.782 116.495C205.782 130.196 217.441 141.855 231.303 142.016C237.858 142.07 244.413 139.33 249.303 134.44C254.192 129.551 256.932 122.996 256.825 116.495C256.663 103.331 244.359 90.9734 231.464 90.9734Z" fill="url(#paint18_radial_2462_25131)"/>
<path d="M232.327 132.076C228.083 132.076 223.999 130.357 220.722 127.187C217.122 123.694 215.08 119.02 215.08 114.346C215.08 109.832 217.283 105.05 220.937 101.558C224.375 98.2804 228.674 96.4536 232.865 96.6148C241.139 96.8835 250.488 104.567 250.595 114.346C250.703 123.479 242.428 131.754 232.865 132.13C232.865 132.13 232.488 132.13 232.327 132.13V132.076ZM232.435 97.4208C228.62 97.4208 224.698 99.1401 221.581 102.149C218.089 105.48 216.047 110.047 215.993 114.292C215.993 118.644 217.981 123.211 221.366 126.488C224.59 129.658 228.674 131.27 232.865 131.163C241.998 130.84 249.897 122.942 249.736 114.292C249.628 105.104 240.548 97.6894 232.865 97.4208C232.703 97.4208 232.596 97.4208 232.435 97.4208Z" fill="url(#paint19_radial_2462_25131)"/>
<path d="M233.825 122.03C231.354 122.03 228.99 121.009 227.27 119.289C225.605 117.57 224.691 115.313 224.691 112.949C224.745 107.899 228.721 103.869 233.772 103.869C236.136 103.869 238.446 104.836 240.165 106.502C241.885 108.221 242.852 110.478 242.852 112.949C242.852 115.421 241.885 117.678 240.165 119.397C238.446 121.116 236.189 122.03 233.772 122.03H233.825ZM233.825 104.729C229.258 104.729 225.659 108.382 225.605 112.949C225.605 115.099 226.411 117.14 227.915 118.698C229.473 120.257 231.622 121.17 233.825 121.17C235.975 121.17 238.016 120.31 239.574 118.806C241.133 117.248 241.992 115.206 241.992 112.949C241.992 110.747 241.133 108.705 239.574 107.147C238.016 105.642 235.921 104.729 233.825 104.729Z" fill="url(#paint20_radial_2462_25131)"/>
<path d="M183.428 366.767H182.568C182.837 331.359 192.723 295.737 202.233 261.242C204.221 254.096 206.263 246.682 208.144 239.536C210.132 231.96 212.334 224.169 214.43 216.593C223.94 182.475 233.826 147.175 233.719 112.52H234.578C234.686 147.336 224.8 182.636 215.29 216.862C213.194 224.438 210.991 232.229 209.003 239.804C207.123 247.004 205.081 254.365 203.093 261.565C193.583 296.005 183.75 331.574 183.482 366.874L183.428 366.767Z" fill="url(#paint21_radial_2462_25131)"/>
<path d="M196.058 365.37C193.855 330.929 202.13 295.468 210.135 261.189C211.855 253.935 213.574 246.413 215.186 239.106C216.637 232.497 218.195 225.674 219.753 219.065C227.866 183.98 236.194 147.712 233.723 112.466H234.582C237.054 147.766 228.672 184.087 220.559 219.226C219.054 225.835 217.443 232.658 215.992 239.267C214.38 246.521 212.661 254.043 210.941 261.35C202.936 295.575 194.661 330.929 196.864 365.262H196.005L196.058 365.37Z" fill="url(#paint22_radial_2462_25131)"/>
<path d="M208.15 361.232C203.959 320.882 212.878 280.155 221.475 240.771C230.662 198.808 240.119 155.449 233.725 112.519L234.585 112.412C240.978 155.503 231.468 198.97 222.334 240.986C213.738 280.316 204.872 320.989 209.063 361.179L208.204 361.286L208.15 361.232Z" fill="url(#paint23_radial_2462_25131)"/>
<path d="M219.055 354.785C214.972 323.461 220.13 290.793 225.127 259.254C226.309 251.678 227.544 243.78 228.619 236.204C229.317 231.368 230.016 226.425 230.768 221.482C236.141 185.054 241.675 147.389 233.723 112.627L234.583 112.412C242.535 147.336 237.001 185.107 231.628 221.59C230.876 226.533 230.177 231.476 229.479 236.312C228.404 243.941 227.168 251.786 225.986 259.415C221.043 290.954 215.885 323.514 219.915 354.731L219.055 354.839V354.785Z" fill="url(#paint24_radial_2462_25131)"/>
<path d="M229.101 346.349C224.749 317.443 228.51 287.193 232.164 257.857C233.131 249.851 234.206 241.631 235.012 233.679C235.388 229.864 235.818 225.942 236.248 222.02C240.062 186.773 244.361 146.798 233.722 112.627L234.582 112.358C245.274 146.745 240.976 186.773 237.161 222.127C236.731 226.049 236.301 229.918 235.925 233.786C235.119 241.738 234.098 250.013 233.077 258.018C229.424 287.247 225.717 317.497 230.015 346.242L229.155 346.349H229.101Z" fill="url(#paint25_radial_2462_25131)"/>
<path d="M238.552 336.409C233.448 304.548 236.726 271.397 239.949 239.32C244.14 197.197 248.492 153.676 233.717 112.627L234.523 112.358C249.352 153.568 245 197.25 240.809 239.428C237.639 271.451 234.308 304.548 239.412 336.302L238.552 336.463V336.409Z" fill="url(#paint26_radial_2462_25131)"/>
<path d="M247.749 325.557C242.376 296.489 244.257 265.971 246.083 236.473C248.662 194.994 251.295 152.118 233.779 112.681L234.585 112.305C252.208 151.903 249.522 194.887 246.997 236.473C245.17 265.917 243.289 296.382 248.662 325.395L247.803 325.557H247.749Z" fill="url(#paint27_radial_2462_25131)"/>
<path d="M256.883 314.22C250.919 287.462 251.51 259.093 252.047 231.691C252.853 191.448 253.713 149.862 233.779 112.681L234.532 112.251C254.573 149.593 253.713 191.341 252.907 231.691C252.37 259.04 251.779 287.355 257.743 314.005L256.883 314.22Z" fill="url(#paint28_radial_2462_25131)"/>
<path d="M266.124 302.829C260.59 283.325 260.053 262.21 259.516 241.793C259.301 234.109 259.086 226.211 258.656 218.581C256.614 185.699 254.035 144.757 233.779 112.681L234.532 112.197C254.895 144.435 257.474 185.484 259.516 218.474C259.999 226.104 260.214 234.055 260.375 241.739C260.913 262.102 261.45 283.164 266.984 302.56L266.124 302.775V302.829Z" fill="url(#paint29_radial_2462_25131)"/>
<path d="M275.741 291.868C268.917 273.923 267.359 253.828 265.908 234.432C265.371 227.662 264.834 220.623 264.082 213.961C259.676 175.007 254.357 140.459 233.832 112.735L234.53 112.197C255.163 140.083 260.536 174.738 264.941 213.853C265.694 220.569 266.231 227.554 266.768 234.324C268.273 253.667 269.777 273.708 276.547 291.546L275.741 291.868Z" fill="url(#paint30_radial_2462_25131)"/>
<path d="M285.681 281.445C277.03 264.896 274.398 245.285 271.819 226.372C271.013 220.354 270.207 214.659 269.24 209.018C264.028 178.392 257.473 140.244 233.832 112.788L234.477 112.197C258.279 139.814 264.834 178.123 270.099 208.856C271.066 214.498 271.819 220.193 272.678 226.265C275.257 245.124 277.89 264.627 286.487 281.069L285.735 281.499L285.681 281.445Z" fill="url(#paint31_radial_2462_25131)"/>
<path d="M295.943 271.773C284.982 256.514 281.006 236.903 277.138 217.937C276.117 213.047 275.204 208.427 274.129 203.913C267.252 174.416 258.709 137.719 233.832 112.788L234.423 112.197C259.515 137.289 268.058 174.147 274.989 203.752C276.063 208.319 276.977 212.94 277.998 217.775C281.866 236.634 285.842 256.192 296.642 271.29L295.943 271.773Z" fill="url(#paint32_radial_2462_25131)"/>
<path d="M306.471 262.801C292.931 248.724 287.344 228.79 281.917 209.501C280.842 205.686 279.875 202.14 278.801 198.594C269.828 168.721 259.619 134.817 233.883 112.788L234.474 112.144C260.425 134.334 270.634 168.344 279.66 198.325C280.735 201.872 281.756 205.471 282.777 209.286C288.149 228.468 293.684 248.294 307.116 262.21L306.471 262.801Z" fill="url(#paint33_radial_2462_25131)"/>
<path d="M317.056 254.419C300.615 241.416 292.824 219.925 286 201.012C285.033 198.325 284.066 195.693 283.099 193.114L282.884 192.576C271.762 162.864 260.264 132.131 233.883 112.788L234.42 112.09C261.016 131.594 272.568 162.434 283.69 192.254L283.905 192.738C284.872 195.317 285.839 198.003 286.806 200.636C293.952 220.408 301.367 240.825 317.593 253.667L317.056 254.365V254.419Z" fill="url(#paint34_radial_2462_25131)"/>
<path d="M327.372 246.36C307.868 234.217 298.304 212.779 289.063 192.093C288.364 190.535 287.666 188.977 286.967 187.472L286.269 185.968C273.75 158.243 260.855 129.552 233.883 112.842L234.366 112.09C261.553 128.907 274.556 157.706 287.129 185.592L287.827 187.096C288.526 188.654 289.224 190.159 289.923 191.717C299.11 212.295 308.62 233.626 327.909 245.607L327.426 246.36H327.372Z" fill="url(#paint35_radial_2462_25131)"/>
<path d="M337.203 238.354C311.467 225.566 298.411 200.313 285.731 175.974C272.997 151.473 259.887 126.167 233.936 112.896L234.312 112.144C260.478 125.576 273.695 150.99 286.483 175.598C299.056 199.83 312.112 224.921 337.579 237.602L337.203 238.408V238.354Z" fill="url(#paint36_radial_2462_25131)"/>
<path d="M346.068 229.918C320.009 217.937 305.287 194.457 291.049 171.676C276.434 148.357 261.337 124.179 233.988 112.842L234.311 112.036C261.928 123.48 277.133 147.712 291.801 171.192C305.986 193.812 320.654 217.238 346.444 229.112L346.068 229.918Z" fill="url(#paint37_radial_2462_25131)"/>
<path d="M353.696 220.784C326.563 210.844 310.39 188.493 294.701 166.84C278.69 144.757 262.141 121.922 234.041 112.896L234.31 112.09C262.679 121.224 279.335 144.166 295.4 166.357C310.981 187.902 327.154 210.146 354.019 219.978L353.696 220.784Z" fill="url(#paint38_radial_2462_25131)"/>
<path d="M359.553 210.522C331.721 202.892 314.313 181.884 297.442 161.575C280.302 140.943 262.571 119.558 234.041 112.95L234.256 112.09C263.109 118.806 280.893 140.244 298.14 161.037C314.904 181.24 332.258 202.14 359.821 209.716L359.607 210.576L359.553 210.522Z" fill="url(#paint39_radial_2462_25131)"/>
<path d="M363.368 198.755C335.106 193.759 316.73 174.362 299 155.557C281.108 136.644 262.625 117.033 234.041 112.842L234.148 111.982C263.001 116.227 281.645 135.892 299.645 154.966C317.268 173.664 335.536 192.953 363.529 197.896L363.368 198.755Z" fill="url(#paint40_radial_2462_25131)"/>
<path d="M364.764 185.377C336.448 183.55 317.482 165.98 299.16 149.002C280.946 132.131 262.087 114.669 234.094 112.896V112.036C262.463 113.863 281.429 131.432 299.751 148.357C317.965 165.228 336.824 182.69 364.817 184.463V185.323L364.764 185.377Z" fill="url(#paint41_radial_2462_25131)"/>
<path d="M364.226 171.085C337.362 170.816 319.309 159.694 298.891 141.91C281.376 126.651 263.323 112.896 235.276 112.896C234.9 112.896 234.524 112.896 234.094 112.896V112.036C234.47 112.036 234.846 112.036 235.276 112.036C263.591 112.036 281.805 125.845 299.429 141.265C319.685 158.942 337.577 169.956 364.226 170.225V171.085Z" fill="url(#paint42_radial_2462_25131)"/>
<path d="M357.831 156.954C333.707 156.954 316.352 148.088 298.084 134.817C276.539 119.182 259.184 110.585 234.146 112.896V112.036C259.399 109.726 276.915 118.376 298.568 134.119C317.857 148.142 336.125 157.169 362.56 155.933V156.792C360.948 156.846 359.336 156.9 357.778 156.9L357.831 156.954Z" fill="url(#paint43_radial_2462_25131)"/>
<path d="M347.947 143.306C330.378 143.306 314.796 138.471 296.743 127.779C274.929 114.884 258.488 108.705 234.202 112.842L234.041 111.982C258.595 107.738 275.198 114.024 297.173 127.026C319.095 139.975 337.255 144.22 359.929 141.695L360.036 142.554C355.899 143.038 351.87 143.253 347.947 143.253V143.306Z" fill="url(#paint44_radial_2462_25131)"/>
<path d="M336.288 130.519C322.265 130.519 309.155 127.402 294.916 120.955C273.371 111.176 257.36 107.039 234.256 112.895L234.041 112.036C257.36 106.072 273.532 110.263 295.293 120.149C315.978 129.498 334.193 131.754 356.329 127.725L356.49 128.584C349.452 129.874 342.789 130.519 336.342 130.519H336.288Z" fill="url(#paint45_radial_2462_25131)"/>
<path d="M322.051 119.021C312.111 119.021 302.547 117.409 292.5 114.185C271.706 107.523 256.286 105.32 234.257 112.896L233.988 112.09C256.232 104.46 271.814 106.663 292.768 113.379C312.111 119.612 329.68 119.773 351.548 113.917L351.763 114.776C341.071 117.624 331.346 119.075 321.997 119.075L322.051 119.021Z" fill="url(#paint46_radial_2462_25131)"/>
<path d="M234.312 112.895L233.936 112.089C254.568 103.063 269.451 103.278 289.76 106.824C307.921 109.994 324.684 108.113 345.854 100.484L346.176 101.29C324.846 108.973 307.921 110.854 289.599 107.63C269.021 104.03 254.836 103.815 234.312 112.842V112.895Z" fill="url(#paint47_radial_2462_25131)"/>
<path d="M234.365 112.842L233.936 112.089C253.224 101.558 267.194 99.8929 286.268 100.538C307.115 101.236 324.04 94.7349 339.191 87.6426L339.567 88.4485C324.308 95.5945 307.33 102.096 286.268 101.451C267.355 100.86 253.493 102.472 234.365 112.895V112.842Z" fill="url(#paint48_radial_2462_25131)"/>
<path d="M234.366 112.841L233.883 112.089C249.518 101.719 262.628 96.9913 282.239 94.5197C299.97 92.3168 314.692 85.2783 331.402 75.3921L331.831 76.1443C315.014 86.0842 300.185 93.1228 282.293 95.3794C262.843 97.7972 249.84 102.525 234.313 112.788L234.366 112.841Z" fill="url(#paint49_radial_2462_25131)"/>
<path d="M234.42 112.842L233.883 112.143C247.745 101.075 260.103 94.5739 277.78 88.9324C293.845 83.8281 307.385 75.2851 322.751 64.0557L323.288 64.7541C307.868 76.0373 294.275 84.634 278.102 89.792C260.479 95.3799 248.229 101.881 234.474 112.842H234.42Z" fill="url(#paint50_radial_2462_25131)"/>
<path d="M234.591 112.317L234 111.672C246.626 99.6908 261.08 90.1807 275.049 80.993C287.944 72.5038 301.269 63.7459 313.251 53L313.842 53.6448C301.806 64.4444 288.482 73.256 275.533 81.7452C261.617 90.8792 247.164 100.389 234.645 112.317H234.591Z" fill="url(#paint51_radial_2462_25131)"/>
<path d="M234.477 112.788L233.832 112.197C245.008 99.4629 257.419 87.8574 269.508 76.5742C280.63 66.2044 292.075 55.4586 302.552 43.9067L303.197 44.4978C292.719 56.1033 281.221 66.8492 270.099 77.2189C258.064 88.4484 245.652 100.108 234.53 112.788H234.477Z" fill="url(#paint52_radial_2462_25131)"/>
<path d="M234.478 112.734L233.779 112.197C243.612 98.7645 253.767 85.2246 263.599 72.1684C272.679 60.133 282.028 47.6678 291.109 35.3101L291.807 35.8474C282.727 48.2051 273.378 60.6703 264.298 72.7057C254.465 85.7619 244.31 99.3017 234.478 112.734Z" fill="url(#paint53_radial_2462_25131)"/>
<path d="M234.532 112.68L233.779 112.251C242.322 98.0124 249.898 83.0219 257.259 68.5149C264.083 55.0289 271.175 41.113 278.966 27.7881L279.718 28.2179C271.927 41.4891 264.889 55.405 258.065 68.8911C250.704 83.398 243.074 98.4422 234.532 112.68Z" fill="url(#paint54_radial_2462_25131)"/>
<path d="M234.523 112.681L233.717 112.305C241.078 97.0992 245.913 80.9804 250.588 65.4526C254.994 50.8382 259.507 35.794 266.116 21.3408L266.922 21.7169C260.313 36.1164 255.8 51.1606 251.394 65.7213C246.719 81.3028 241.83 97.4216 234.469 112.734L234.523 112.681Z" fill="url(#paint55_radial_2462_25131)"/>
<path d="M234.523 112.627L233.717 112.305C240.487 94.4127 243.173 80.6043 243.012 64.5929C242.851 46.4861 248.009 29.9375 252.898 15.8066L253.704 16.0753C248.868 30.1524 243.71 46.6473 243.872 64.5929C244.033 80.7117 241.346 94.6276 234.523 112.627Z" fill="url(#paint56_radial_2462_25131)"/>
<path d="M234.576 112.573L233.717 112.358C239.09 93.3919 239.788 79.7984 236.296 62.2289C232.696 44.2296 234.899 28.863 239.197 11.2935L240.057 11.5084C235.759 28.9704 233.609 44.2296 237.155 62.0677C240.648 79.7984 239.949 93.4457 234.576 112.573Z" fill="url(#paint57_radial_2462_25131)"/>
<path d="M234.585 112.573L233.725 112.412C237.701 91.6186 236.519 77.5415 229.427 60.4556C221.958 42.4025 222.334 26.3374 225.236 7.80078L226.096 7.96197C223.194 26.3374 222.818 42.295 230.233 60.1332C237.379 77.434 238.561 91.6186 234.585 112.573Z" fill="url(#paint58_radial_2462_25131)"/>
<path d="M234.584 112.52L233.724 112.412C236.035 90.8668 233.079 76.8971 222.441 59.1127C212.555 42.5104 209.385 27.4124 211.104 5.22217H211.964C210.244 27.3049 213.415 42.2417 223.193 58.6829C233.939 76.6285 236.894 90.7593 234.584 112.52Z" fill="url(#paint59_radial_2462_25131)"/>
<path d="M234.583 112.466H233.723C234.261 90.1141 229.264 75.446 215.402 58.3601C201.916 41.7577 196.704 26.3911 196.865 3.66357H197.725C197.563 26.1762 202.668 41.3279 216.046 57.769C230.123 75.0699 235.12 89.8992 234.583 112.466Z" fill="url(#paint60_radial_2462_25131)"/>
<path d="M233.719 112.519C232.429 89.7382 225.552 75.0163 208.251 58.1453C191.058 41.328 183.858 25.9077 182.568 3.18018H183.428C184.718 25.639 191.81 40.8445 208.896 57.5006C226.304 74.5328 233.289 89.4158 234.578 112.466H233.719V112.519Z" fill="url(#paint61_radial_2462_25131)"/>
<path d="M233.719 112.52C230.173 87.321 219.104 73.5663 201.159 58.3071C181.118 41.2749 171.93 25.7471 168.223 2.91216L169.082 2.75098C172.736 25.371 181.87 40.7376 201.696 57.6087C219.803 73.029 230.979 86.8912 234.578 112.359L233.719 112.466V112.52Z" fill="url(#paint62_radial_2462_25131)"/>
<path d="M233.721 112.573C227.864 86.4069 212.927 73.2969 194.068 58.8437C172.039 41.9727 160.004 25.0479 153.879 2.21296L154.739 1.99805C160.81 24.6181 172.738 41.4354 194.606 58.1452C213.626 72.6522 228.616 85.8696 234.58 112.358L233.721 112.573Z" fill="url(#paint63_radial_2462_25131)"/>
<path d="M233.717 112.627C225.55 86.4072 207.712 74.1032 187.026 59.8111C163.063 43.2625 148.448 25.2632 139.637 1.46105L140.443 1.13867C149.308 25.102 163.385 42.4028 187.51 59.1127C208.303 73.4584 226.248 85.8699 234.523 112.358L233.663 112.627H233.717Z" fill="url(#paint64_radial_2462_25131)"/>
<path d="M233.718 112.627C224.1 88.771 206.369 77.649 185.899 64.8077C184.018 63.6256 182.084 62.3899 180.15 61.2078C154.521 44.9278 137.22 25.8002 125.668 0.869758L126.474 0.493652C137.972 25.2629 155.165 44.3368 180.633 60.4556C182.567 61.6914 184.502 62.8734 186.382 64.0555C207.014 77.0043 224.799 88.18 234.577 112.304L233.771 112.627H233.718Z" fill="url(#paint65_radial_2462_25131)"/>
<path d="M233.723 112.681C222.709 90.5978 203.957 80.1206 184.077 69.106C180.585 67.1718 176.985 65.1838 173.439 63.0884C146.091 47.2382 126.587 27.4658 112.08 0.923487L112.832 0.493652C127.285 26.8748 146.682 46.5397 173.869 62.2824C177.415 64.3779 181.015 66.3659 184.507 68.3001C204.495 79.4221 223.407 89.8993 234.529 112.251L233.723 112.627V112.681Z" fill="url(#paint66_radial_2462_25131)"/>
<path d="M233.782 112.681C221.37 92.0486 201.92 82.5922 181.288 72.5986C176.56 70.2882 171.724 67.9241 166.942 65.4526C138.519 50.5158 116.275 29.83 98.9746 2.10563L99.7268 1.62207C116.974 29.1852 139.11 49.8173 167.372 64.6466C172.1 67.1182 176.99 69.4823 181.664 71.7926C202.404 81.84 221.961 91.3501 234.48 112.251L233.728 112.681H233.782Z" fill="url(#paint67_radial_2462_25131)"/>
<path d="M233.77 112.734C220.016 93.4456 199.921 85.0638 178.644 76.2522C172.734 73.7806 166.609 71.2554 160.698 68.4614C130.879 54.3843 106.539 33.5911 86.3906 4.84587L87.0891 4.3623C107.184 33.0001 131.362 53.6859 161.074 67.7092C166.985 70.5032 173.056 73.0284 178.966 75.5C200.351 84.4191 220.553 92.8546 234.469 112.305L233.77 112.788V112.734Z" fill="url(#paint68_radial_2462_25131)"/>
<path d="M233.832 112.789C218.68 94.7892 196.92 87.1597 175.804 79.7987C168.873 77.3809 161.673 74.8556 154.796 72.008C123.526 59.0055 97.1982 38.5346 74.4707 9.41327L75.1692 8.87598C97.843 37.8361 124.009 58.2533 155.172 71.202C161.996 74.0497 169.196 76.575 176.127 78.9928C197.296 86.4075 219.218 94.0908 234.53 112.251L233.886 112.789H233.832Z" fill="url(#paint69_radial_2462_25131)"/>
<path d="M233.834 112.788C217.339 96.0247 194.773 89.6309 172.959 83.452C165.06 81.1954 156.947 78.885 149.21 76.1448C116.382 64.4318 88.2811 44.7669 63.1895 16.0754L63.8342 15.4844C88.7646 44.0684 116.811 63.6259 149.479 75.2852C157.162 78.0253 165.275 80.3357 173.173 82.5923C195.095 88.825 217.823 95.2725 234.425 112.143L233.78 112.735L233.834 112.788Z" fill="url(#paint70_radial_2462_25131)"/>
<path d="M233.826 112.788C215.88 97.2066 192.4 92.1023 169.727 87.1592C161.184 85.2787 152.318 83.3444 143.99 80.8729C109.657 70.7718 79.7837 52.5038 52.7578 24.9943L53.4026 24.4033C80.3747 51.7516 110.087 69.9658 144.313 80.0132C152.641 82.4848 161.452 84.419 169.995 86.2458C192.777 91.2427 216.364 96.4007 234.471 112.09L233.879 112.734L233.826 112.788Z" fill="url(#paint71_radial_2462_25131)"/>
<path d="M233.885 112.842C214.435 98.4429 189.88 94.6819 166.132 91.0283C157.159 89.6313 147.918 88.2343 139.214 86.2463C103.215 78.1332 71.7833 61.7458 43.0918 36.3318L43.6828 35.687C72.2668 61.0473 103.537 77.3273 139.375 85.4404C148.079 87.4284 157.32 88.8254 166.239 90.2223C190.095 93.8759 214.757 97.6907 234.422 112.198L233.885 112.896V112.842Z" fill="url(#paint72_radial_2462_25131)"/>
<path d="M233.882 112.842C212.82 99.6248 187.352 97.3681 162.637 95.219C153.395 94.413 143.832 93.5534 134.751 92.1564C96.9258 86.2462 64.0971 72.3303 34.2773 49.7102L34.8146 49.0117C64.4733 71.5781 97.2482 85.3865 134.912 91.2967C143.939 92.6937 153.503 93.5534 162.744 94.3593C187.514 96.5622 213.142 98.8188 234.366 112.144L233.882 112.896V112.842Z" fill="url(#paint73_radial_2462_25131)"/>
<path d="M233.938 112.842C211.157 100.86 184.507 100.269 158.771 99.6782C149.529 99.4633 139.966 99.2483 130.885 98.4961C91.1794 95.1649 57.0612 84.2041 26.543 64.969L27.0265 64.2168C57.4374 83.3982 91.448 94.3052 130.993 97.6365C140.073 98.3887 149.583 98.6036 158.825 98.8185C184.722 99.4095 211.426 100.054 234.422 112.09L233.992 112.842H233.938Z" fill="url(#paint74_radial_2462_25131)"/>
<path d="M233.995 112.896C209.334 102.257 181.341 103.439 154.315 104.568C145.449 104.944 136.262 105.32 127.45 105.266C85.2187 104.944 50.9931 97.4754 19.7227 81.7327L20.0988 80.9268C51.2618 96.6157 85.3799 104.03 127.45 104.353C136.208 104.406 145.396 104.03 154.261 103.654C181.394 102.526 209.495 101.344 234.318 112.036L233.995 112.842V112.896Z" fill="url(#paint75_radial_2462_25131)"/>
<path d="M96.9308 113.272C64.8006 113.272 38.4732 108.813 13.9727 99.4637L14.295 98.6577C45.4043 110.478 79.3613 114.4 124.494 111.392C132.876 110.854 141.526 109.78 150.66 108.705C179.352 105.32 209.064 101.774 234.371 111.983L234.048 112.789C208.957 102.634 179.405 106.18 150.821 109.565C141.634 110.639 132.983 111.66 124.601 112.251C114.93 112.896 105.742 113.218 97.0383 113.218L96.9308 113.272Z" fill="url(#paint76_radial_2462_25131)"/>
<path d="M63.8273 124.448C45.7742 124.448 27.4525 122.675 9.23828 117.785L9.4532 116.926C47.6548 127.081 86.0713 123.803 121.962 118.699C129.914 117.571 138.081 116.066 146.678 114.508C176.337 109.028 207.07 103.386 234.257 111.983L233.988 112.842C207.016 104.299 176.39 109.941 146.839 115.368C138.189 116.98 130.022 118.43 122.07 119.559C103.265 122.245 83.7072 124.394 63.8273 124.394V124.448Z" fill="url(#paint77_radial_2462_25131)"/>
<path d="M36.157 138.417C25.9484 138.417 15.7935 137.718 5.63867 136.053L5.79986 135.193C44.0552 141.372 83.2239 134.172 120.029 126.22C127.336 124.662 134.75 122.782 142.595 120.847C173.274 113.218 205.028 105.32 234.203 112.09L233.988 112.949C205.028 106.233 173.382 114.131 142.756 121.707C134.912 123.641 127.443 125.522 120.136 127.08C92.9489 132.937 64.5261 138.417 36.1032 138.417H36.157Z" fill="url(#paint78_radial_2462_25131)"/>
<path d="M18.0481 154.429C13.0513 154.429 8.10816 154.214 3.11133 153.73L3.21879 152.87C39.8085 156.47 76.6668 145.778 112.343 135.516L118.629 133.689C125.453 131.755 132.33 129.552 139.691 127.241C169.672 117.785 203.737 107.039 234.201 112.09L234.04 112.949C203.737 107.953 169.834 118.645 139.906 128.101C132.545 130.411 125.614 132.614 118.844 134.549L112.558 136.375C81.6637 145.295 49.8559 154.482 18.0481 154.482V154.429Z" fill="url(#paint79_radial_2462_25131)"/>
<path d="M5.90673 170.333C4.50977 170.333 3.05907 170.333 1.66211 170.279V169.419C36.5862 170.494 71.2416 157.921 104.769 145.778C109.175 144.166 113.473 142.608 117.771 141.104C124.058 138.847 130.398 136.483 137.168 133.904C167.578 122.406 202.073 109.35 234.203 112.09V112.95C202.234 110.263 167.847 123.266 137.49 134.71C130.774 137.235 124.38 139.653 118.094 141.91C113.795 143.414 109.443 145.026 105.091 146.584C72.8535 158.297 39.595 170.333 5.96046 170.333H5.90673Z" fill="url(#paint80_radial_2462_25131)"/>
<path d="M1.18068 185.377V184.517C35.0302 184.141 68.3424 169.634 100.526 155.611C106.383 153.085 111.917 150.668 117.451 148.303C123.361 145.832 129.218 143.253 135.45 140.513C165.861 127.188 200.248 112.036 233.506 112.036C233.721 112.036 233.883 112.036 234.097 112.036V112.896C200.946 112.735 166.345 127.886 135.826 141.265C129.594 144.005 123.684 146.584 117.773 149.056C112.239 151.366 106.705 153.784 100.849 156.363C68.5573 170.44 35.1914 184.947 1.12695 185.323L1.18068 185.377Z" fill="url(#paint81_radial_2462_25131)"/>
<path d="M1.8223 199.615L1.71484 198.755C36.5315 194.726 69.7362 178.661 101.813 163.079C107.078 160.554 112.505 157.921 117.77 155.449C124.11 152.441 130.45 149.324 137.22 145.993C168.491 130.519 200.89 114.508 234.148 112.036V112.896C201.104 115.367 168.813 131.325 137.596 146.745C130.88 150.077 124.54 153.193 118.146 156.202C112.881 158.673 107.454 161.306 102.242 163.831C70.0586 179.413 36.8001 195.532 1.8223 199.561V199.615Z" fill="url(#paint82_radial_2462_25131)"/>
<path d="M3.59869 213.692L3.4375 212.832C38.9526 205.149 72.2648 187.311 104.449 170.064C109.177 167.539 113.905 165.013 118.633 162.488C125.403 158.942 132.119 155.181 139.265 151.259C169.676 134.441 201.108 117.087 234.098 111.982L234.205 112.842C201.376 117.893 169.999 135.247 139.641 152.011C132.495 155.933 125.779 159.694 119.009 163.24C114.335 165.712 109.607 168.237 104.825 170.762C72.5872 188.009 39.2213 205.901 3.59869 213.638V213.692Z" fill="url(#paint83_radial_2462_25131)"/>
<path d="M6.55771 227.501L6.28906 226.641C42.2877 215.358 75.8148 195.585 108.214 176.458C112.136 174.147 116.058 171.837 119.98 169.527C127.073 165.389 134.111 161.037 141.58 156.47C171.023 138.417 201.488 119.773 234.048 112.036L234.263 112.896C201.864 120.579 171.453 139.169 142.063 157.223C134.595 161.79 127.556 166.088 120.464 170.279C116.542 172.589 112.619 174.899 108.697 177.21C76.2447 196.338 42.7176 216.164 6.61144 227.501H6.55771Z" fill="url(#paint84_radial_2462_25131)"/>
<path d="M10.6954 240.879L10.373 240.073C46.7478 225.19 80.4899 203.269 113.157 182.046C116.059 180.165 119.014 178.231 121.915 176.35C129.276 171.568 136.906 166.41 144.213 161.467C172.689 142.232 202.079 122.298 233.941 112.036L234.21 112.842C202.456 123.051 173.066 142.931 144.696 162.166C137.336 167.162 129.76 172.267 122.345 177.049C119.444 178.929 116.489 180.81 113.587 182.744C80.9197 203.967 47.0702 225.942 10.6417 240.879H10.6954Z" fill="url(#paint85_radial_2462_25131)"/>
<path d="M15.9542 253.882L15.5781 253.076C52.1678 234.647 86.1785 210.307 119.115 186.827L124.434 183.013C132.01 177.64 139.747 171.837 147.215 166.303C174.617 145.939 202.932 124.877 233.988 112.09L234.31 112.896C203.416 125.63 175.101 146.638 147.752 167.001C140.23 172.589 132.493 178.338 124.917 183.765L119.598 187.58C86.6621 211.113 52.5977 235.452 15.9542 253.935V253.882Z" fill="url(#paint86_radial_2462_25131)"/>
<path d="M22.2912 266.347L21.8613 265.595C58.451 243.619 92.6766 216.755 125.774 190.75L127.493 189.406C135.123 183.389 142.967 177.049 150.489 170.87C176.817 149.432 204.004 127.242 233.985 112.036L234.361 112.842C204.487 127.994 177.3 150.184 151.027 171.568C143.451 177.747 135.66 184.087 128.031 190.105L126.311 191.448C93.2139 217.453 58.9346 244.318 22.2912 266.347Z" fill="url(#paint87_radial_2462_25131)"/>
<path d="M29.6086 278.382L29.125 277.684C65.5535 252.109 100.316 222.128 130.996 195.639C138.625 189.03 146.416 182.099 153.938 175.383C179.137 152.924 205.196 129.659 233.941 112.09L234.371 112.842C205.68 130.358 179.675 153.569 154.476 176.028C146.953 182.744 139.163 189.675 131.533 196.284C100.854 222.772 66.0908 252.753 29.6086 278.382Z" fill="url(#paint88_radial_2462_25131)"/>
<path d="M37.7736 289.88L37.2363 289.182C70.1724 262.532 100.959 233.679 134.916 201.496C142.492 194.35 150.122 186.881 157.536 179.681C181.607 156.202 206.538 131.916 233.886 112.09L234.423 112.788C207.129 132.561 182.252 156.846 158.181 180.272C150.766 187.472 143.137 194.941 135.561 202.087C101.604 234.27 70.8172 263.123 37.8274 289.773L37.7736 289.88Z" fill="url(#paint89_radial_2462_25131)"/>
<path d="M46.8 300.841L46.209 300.196C77.8556 270.914 108.32 239.428 139.322 207.137C146.683 199.454 154.151 191.556 161.351 183.872C184.347 159.425 208.096 134.119 233.832 112.144L234.423 112.788C208.687 134.764 184.938 160.016 161.996 184.463C154.796 192.147 147.328 200.045 139.967 207.728C108.911 240.073 78.4466 271.505 46.8 300.841Z" fill="url(#paint90_radial_2462_25131)"/>
<path d="M56.5725 311.211L55.9277 310.62C82.8461 282.143 108.905 251.786 134.104 222.504C165.912 185.484 198.794 147.175 233.826 112.197L234.417 112.788C199.385 147.766 166.556 186.021 134.749 223.041C109.55 252.377 83.4909 282.681 56.5725 311.211Z" fill="url(#paint91_radial_2462_25131)"/>
<path d="M67.0032 320.99L66.3047 320.452C91.1814 290.418 115.682 259.201 139.377 229.005C169.787 190.266 201.273 150.238 233.779 112.197L234.424 112.788C201.918 150.829 170.486 190.857 140.075 229.542C116.38 259.738 91.8261 290.955 67.0032 320.99Z" fill="url(#paint92_radial_2462_25131)"/>
<path d="M78.0657 330.016L77.3672 329.479C100.578 297.402 124.058 264.681 146.732 233.035C175.155 193.382 204.598 152.387 233.773 112.197L234.472 112.735C205.297 152.87 175.907 193.92 147.43 233.572C124.756 265.218 101.277 297.94 78.0657 330.016Z" fill="url(#paint93_radial_2462_25131)"/>
<path d="M89.7249 338.29L88.9727 337.807C110.142 304.011 132.332 270.054 153.77 237.225C180.366 196.499 207.929 154.375 233.72 112.197L234.472 112.627C208.628 154.805 181.119 196.928 154.469 237.655C133.031 270.484 110.841 304.441 89.6711 338.183L89.7249 338.29Z" fill="url(#paint94_radial_2462_25131)"/>
<path d="M101.867 345.651L101.115 345.221C120.135 309.814 141.036 274.621 161.238 240.61C185.954 199.024 211.475 156.04 233.773 112.305L234.525 112.681C212.228 156.47 186.706 199.454 161.991 241.04C141.788 275.051 120.888 310.244 101.921 345.651H101.867Z" fill="url(#paint95_radial_2462_25131)"/>
<path d="M114.554 352.045L113.748 351.669C130.404 314.649 150.015 278.221 168.982 243.028C191.709 200.851 215.189 157.222 233.726 112.305L234.532 112.627C215.941 157.545 192.462 201.227 169.734 243.404C150.768 278.597 131.156 315.026 114.554 351.991V352.045Z" fill="url(#paint96_radial_2462_25131)"/>
<path d="M127.661 357.364L126.855 357.042C140.933 318.518 159.254 280.854 176.931 244.371C197.617 201.818 218.948 157.813 233.723 112.305L234.529 112.573C219.754 158.19 198.369 202.194 177.683 244.748C160.006 281.176 141.685 318.84 127.608 357.311L127.661 357.364Z" fill="url(#paint97_radial_2462_25131)"/>
<path d="M141.2 361.555L140.34 361.34C150.871 323.783 166.184 287.033 180.906 251.517C182.947 246.682 184.935 241.792 186.923 236.957C190.523 228.306 194.284 219.441 197.938 210.898C211.531 179.037 225.608 146.1 233.668 112.466L234.527 112.681C226.468 146.423 212.391 179.413 198.744 211.274C195.09 219.817 191.275 228.682 187.729 237.333C185.741 242.169 183.699 247.004 181.711 251.894C166.936 287.409 151.677 324.16 141.146 361.663L141.2 361.555Z" fill="url(#paint98_radial_2462_25131)"/>
<path d="M155.063 364.51L154.203 364.349C161.403 327.33 174.674 291.008 187.569 255.923C189.718 250.067 191.867 244.21 193.963 238.354C196.972 229.972 200.195 221.375 203.365 213.101C215.67 180.433 228.403 146.691 233.723 112.466L234.582 112.627C229.209 146.96 216.475 180.756 204.171 213.477C201.055 221.805 197.831 230.348 194.769 238.73C192.673 244.586 190.524 250.443 188.375 256.299C175.534 291.385 162.263 327.652 155.063 364.618V364.51Z" fill="url(#paint99_radial_2462_25131)"/>
<path d="M169.19 366.229L168.33 366.122C172.091 329.854 183.535 293.963 194.657 259.254C196.753 252.645 198.956 245.822 201.051 239.159C203.523 231.154 206.209 222.933 208.842 214.981C219.803 181.561 231.086 146.96 233.719 112.412H234.578C231.946 147.175 220.609 181.776 209.648 215.25C207.069 223.202 204.329 231.422 201.857 239.428C199.762 246.09 197.613 252.914 195.463 259.523C184.341 294.178 172.897 330.016 169.136 366.175L169.19 366.229Z" fill="url(#paint100_radial_2462_25131)"/>
</g>
<defs>
<radialGradient id="paint0_radial_2462_25131" cx="0" cy="0" r="1" gradientUnits="userSpaceOnUse" gradientTransform="translate(182.946 183.681) rotate(45.2066) scale(258.599 258.592)">
<stop stop-color="white" stop-opacity="0.35"/>
<stop offset="1" stop-color="white" stop-opacity="0"/>
</radialGradient>
<radialGradient id="paint1_radial_2462_25131" cx="0" cy="0" r="1" gradientUnits="userSpaceOnUse" gradientTransform="translate(183.296 183.338) rotate(45.1894) scale(246.285 246.28)">
<stop stop-color="white" stop-opacity="0.35"/>
<stop offset="1" stop-color="white" stop-opacity="0"/>
</radialGradient>
<radialGradient id="paint2_radial_2462_25131" cx="0" cy="0" r="1" gradientUnits="userSpaceOnUse" gradientTransform="translate(184.27 182.233) rotate(45.1578) scale(233.883 233.879)">
<stop stop-color="white" stop-opacity="0.35"/>
<stop offset="1" stop-color="white" stop-opacity="0"/>
</radialGradient>
<radialGradient id="paint3_radial_2462_25131" cx="0" cy="0" r="1" gradientUnits="userSpaceOnUse" gradientTransform="translate(185.847 180.329) rotate(45.1068) scale(221.458 221.456)">
<stop stop-color="white" stop-opacity="0.35"/>
<stop offset="1" stop-color="white" stop-opacity="0"/>
</radialGradient>
<radialGradient id="paint4_radial_2462_25131" cx="0" cy="0" r="1" gradientUnits="userSpaceOnUse" gradientTransform="translate(187.886 177.685) rotate(45.0743) scale(209.001 209.001)">
<stop stop-color="white" stop-opacity="0.35"/>
<stop offset="1" stop-color="white" stop-opacity="0"/>
</radialGradient>
<radialGradient id="paint5_radial_2462_25131" cx="0" cy="0" r="1" gradientUnits="userSpaceOnUse" gradientTransform="translate(190.307 174.428) rotate(45.0413) scale(196.641 196.641)">
<stop stop-color="white" stop-opacity="0.35"/>
<stop offset="1" stop-color="white" stop-opacity="0"/>
</radialGradient>
<radialGradient id="paint6_radial_2462_25131" cx="0" cy="0" r="1" gradientUnits="userSpaceOnUse" gradientTransform="translate(193.079 170.557) rotate(45.0271) scale(184.314 184.314)">
<stop stop-color="white" stop-opacity="0.35"/>
<stop offset="1" stop-color="white" stop-opacity="0"/>
</radialGradient>
<radialGradient id="paint7_radial_2462_25131" cx="0" cy="0" r="1" gradientUnits="userSpaceOnUse" gradientTransform="translate(196.22 166.079) rotate(45.0143) scale(172.074 172.074)">
<stop stop-color="white" stop-opacity="0.35"/>
<stop offset="1" stop-color="white" stop-opacity="0"/>
</radialGradient>
<radialGradient id="paint8_radial_2462_25131" cx="0" cy="0" r="1" gradientUnits="userSpaceOnUse" gradientTransform="translate(199.631 161.407) rotate(45.0081) scale(159.782 159.782)">
<stop stop-color="white" stop-opacity="0.35"/>
<stop offset="1" stop-color="white" stop-opacity="0"/>
</radialGradient>
<radialGradient id="paint9_radial_2462_25131" cx="0" cy="0" r="1" gradientUnits="userSpaceOnUse" gradientTransform="translate(203.149 156.468) rotate(45.0004) scale(147.564)">
<stop stop-color="white" stop-opacity="0.35"/>
<stop offset="1" stop-color="white" stop-opacity="0"/>
</radialGradient>
<radialGradient id="paint10_radial_2462_25131" cx="0" cy="0" r="1" gradientUnits="userSpaceOnUse" gradientTransform="translate(206.718 151.284) rotate(45) scale(135.291)">
<stop stop-color="white" stop-opacity="0.35"/>
<stop offset="1" stop-color="white" stop-opacity="0"/>
</radialGradient>
<radialGradient id="paint11_radial_2462_25131" cx="0" cy="0" r="1" gradientUnits="userSpaceOnUse" gradientTransform="translate(210.431 146.207) rotate(45.0088) scale(123.076 123.076)">
<stop stop-color="white" stop-opacity="0.35"/>
<stop offset="1" stop-color="white" stop-opacity="0"/>
</radialGradient>
<radialGradient id="paint12_radial_2462_25131" cx="0" cy="0" r="1" gradientUnits="userSpaceOnUse" gradientTransform="translate(213.947 140.996) rotate(44.9998) scale(110.786)">
<stop stop-color="white" stop-opacity="0.35"/>
<stop offset="1" stop-color="white" stop-opacity="0"/>
</radialGradient>
<radialGradient id="paint13_radial_2462_25131" cx="0" cy="0" r="1" gradientUnits="userSpaceOnUse" gradientTransform="translate(217.491 136.052) rotate(44.9994) scale(98.5533)">
<stop stop-color="white" stop-opacity="0.35"/>
<stop offset="1" stop-color="white" stop-opacity="0"/>
</radialGradient>
<radialGradient id="paint14_radial_2462_25131" cx="0" cy="0" r="1" gradientUnits="userSpaceOnUse" gradientTransform="translate(220.878 131.271) rotate(44.9992) scale(86.3199)">
<stop stop-color="white" stop-opacity="0.35"/>
<stop offset="1" stop-color="white" stop-opacity="0"/>
</radialGradient>
<radialGradient id="paint15_radial_2462_25131" cx="0" cy="0" r="1" gradientUnits="userSpaceOnUse" gradientTransform="translate(224.003 126.892) rotate(45.0138) scale(74.1053 74.1053)">
<stop stop-color="white" stop-opacity="0.35"/>
<stop offset="1" stop-color="white" stop-opacity="0"/>
</radialGradient>
<radialGradient id="paint16_radial_2462_25131" cx="0" cy="0" r="1" gradientUnits="userSpaceOnUse" gradientTransform="translate(226.868 122.835) rotate(44.9812) scale(61.872 61.872)">
<stop stop-color="white" stop-opacity="0.35"/>
<stop offset="1" stop-color="white" stop-opacity="0"/>
</radialGradient>
<radialGradient id="paint17_radial_2462_25131" cx="0" cy="0" r="1" gradientUnits="userSpaceOnUse" gradientTransform="translate(229.315 119.449) rotate(44.9999) scale(49.6197)">
<stop stop-color="white" stop-opacity="0.35"/>
<stop offset="1" stop-color="white" stop-opacity="0"/>
</radialGradient>
<radialGradient id="paint18_radial_2462_25131" cx="0" cy="0" r="1" gradientUnits="userSpaceOnUse" gradientTransform="translate(231.305 116.522) rotate(45.0275) scale(37.3286 37.3286)">
<stop stop-color="white" stop-opacity="0.35"/>
<stop offset="1" stop-color="white" stop-opacity="0"/>
</radialGradient>
<radialGradient id="paint19_radial_2462_25131" cx="0" cy="0" r="1" gradientUnits="userSpaceOnUse" gradientTransform="translate(232.838 114.367) rotate(45.0071) scale(25.1168)">
<stop stop-color="white" stop-opacity="0.35"/>
<stop offset="1" stop-color="white" stop-opacity="0"/>
</radialGradient>
<radialGradient id="paint20_radial_2462_25131" cx="0" cy="0" r="1" gradientUnits="userSpaceOnUse" gradientTransform="translate(233.772 112.949) rotate(45) scale(12.8414)">
<stop stop-color="white" stop-opacity="0.35"/>
<stop offset="1" stop-color="white" stop-opacity="0"/>
</radialGradient>
<radialGradient id="paint21_radial_2462_25131" cx="0" cy="0" r="1" gradientUnits="userSpaceOnUse" gradientTransform="translate(208.574 239.697) rotate(78.4434) scale(129.809 50.9565)">
<stop stop-color="white" stop-opacity="0.35"/>
<stop offset="1" stop-color="white" stop-opacity="0"/>
</radialGradient>
<radialGradient id="paint22_radial_2462_25131" cx="0" cy="0" r="1" gradientUnits="userSpaceOnUse" gradientTransform="translate(215.36 238.918) rotate(81.1616) scale(127.972 38.8582)">
<stop stop-color="white" stop-opacity="0.35"/>
<stop offset="1" stop-color="white" stop-opacity="0"/>
</radialGradient>
<radialGradient id="paint23_radial_2462_25131" cx="0" cy="0" r="1" gradientUnits="userSpaceOnUse" gradientTransform="translate(221.876 236.849) rotate(83.2199) scale(125.314 29.3818)">
<stop stop-color="white" stop-opacity="0.35"/>
<stop offset="1" stop-color="white" stop-opacity="0"/>
</radialGradient>
<radialGradient id="paint24_radial_2462_25131" cx="0" cy="0" r="1" gradientUnits="userSpaceOnUse" gradientTransform="translate(228.071 233.625) rotate(85.0524) scale(121.667 20.908)">
<stop stop-color="white" stop-opacity="0.35"/>
<stop offset="1" stop-color="white" stop-opacity="0"/>
</radialGradient>
<radialGradient id="paint25_radial_2462_25131" cx="0" cy="0" r="1" gradientUnits="userSpaceOnUse" gradientTransform="translate(234.238 229.354) rotate(86.5312) scale(117.21 14.1577)">
<stop stop-color="white" stop-opacity="0.35"/>
<stop offset="1" stop-color="white" stop-opacity="0"/>
</radialGradient>
<radialGradient id="paint26_radial_2462_25131" cx="0" cy="0" r="1" gradientUnits="userSpaceOnUse" gradientTransform="translate(239.267 224.41) rotate(87.1643) scale(112.19 11.0869)">
<stop stop-color="white" stop-opacity="0.35"/>
<stop offset="1" stop-color="white" stop-opacity="0"/>
</radialGradient>
<radialGradient id="paint27_radial_2462_25131" cx="0" cy="0" r="1" gradientUnits="userSpaceOnUse" gradientTransform="translate(241.305 218.931) rotate(85.9625) scale(106.891 15.015)">
<stop stop-color="white" stop-opacity="0.35"/>
<stop offset="1" stop-color="white" stop-opacity="0"/>
</radialGradient>
<radialGradient id="paint28_radial_2462_25131" cx="0" cy="0" r="1" gradientUnits="userSpaceOnUse" gradientTransform="translate(245.761 213.235) rotate(83.2336) scale(101.693 23.7964)">
<stop stop-color="white" stop-opacity="0.35"/>
<stop offset="1" stop-color="white" stop-opacity="0"/>
</radialGradient>
<radialGradient id="paint29_radial_2462_25131" cx="0" cy="0" r="1" gradientUnits="userSpaceOnUse" gradientTransform="translate(250.382 207.513) rotate(80.1192) scale(96.751 32.7122)">
<stop stop-color="white" stop-opacity="0.35"/>
<stop offset="1" stop-color="white" stop-opacity="0"/>
</radialGradient>
<radialGradient id="paint30_radial_2462_25131" cx="0" cy="0" r="1" gradientUnits="userSpaceOnUse" gradientTransform="translate(255.189 202.033) rotate(76.6268) scale(92.3394 41.5566)">
<stop stop-color="white" stop-opacity="0.35"/>
<stop offset="1" stop-color="white" stop-opacity="0"/>
</radialGradient>
<radialGradient id="paint31_radial_2462_25131" cx="0" cy="0" r="1" gradientUnits="userSpaceOnUse" gradientTransform="translate(260.159 196.848) rotate(72.7237) scale(88.6502 50.2792)">
<stop stop-color="white" stop-opacity="0.35"/>
<stop offset="1" stop-color="white" stop-opacity="0"/>
</radialGradient>
<radialGradient id="paint32_radial_2462_25131" cx="0" cy="0" r="1" gradientUnits="userSpaceOnUse" gradientTransform="translate(265.237 191.985) rotate(68.5153) scale(85.7462 58.4453)">
<stop stop-color="white" stop-opacity="0.35"/>
<stop offset="1" stop-color="white" stop-opacity="0"/>
</radialGradient>
<radialGradient id="paint33_radial_2462_25131" cx="0" cy="0" r="1" gradientUnits="userSpaceOnUse" gradientTransform="translate(270.499 187.472) rotate(64.076) scale(83.7566 65.864)">
<stop stop-color="white" stop-opacity="0.35"/>
<stop offset="1" stop-color="white" stop-opacity="0"/>
</radialGradient>
<radialGradient id="paint34_radial_2462_25131" cx="0" cy="0" r="1" gradientUnits="userSpaceOnUse" gradientTransform="translate(275.738 183.254) rotate(59.5382) scale(82.5606 72.1556)">
<stop stop-color="white" stop-opacity="0.35"/>
<stop offset="1" stop-color="white" stop-opacity="0"/>
</radialGradient>
<radialGradient id="paint35_radial_2462_25131" cx="0" cy="0" r="1" gradientUnits="userSpaceOnUse" gradientTransform="translate(280.896 179.225) rotate(54.9972) scale(81.9593 77.0193)">
<stop stop-color="white" stop-opacity="0.35"/>
<stop offset="1" stop-color="white" stop-opacity="0"/>
</radialGradient>
<radialGradient id="paint36_radial_2462_25131" cx="0" cy="0" r="1" gradientUnits="userSpaceOnUse" gradientTransform="translate(285.758 175.276) rotate(50.6191) scale(81.6772 80.1111)">
<stop stop-color="white" stop-opacity="0.35"/>
<stop offset="1" stop-color="white" stop-opacity="0"/>
</radialGradient>
<radialGradient id="paint37_radial_2462_25131" cx="0" cy="0" r="1" gradientUnits="userSpaceOnUse" gradientTransform="translate(290.216 170.977) rotate(46.3496) scale(81.4593 81.3689)">
<stop stop-color="white" stop-opacity="0.35"/>
<stop offset="1" stop-color="white" stop-opacity="0"/>
</radialGradient>
<radialGradient id="paint38_radial_2462_25131" cx="0" cy="0" r="1" gradientUnits="userSpaceOnUse" gradientTransform="translate(294.03 166.437) rotate(42.1752) scale(80.9462 80.553)">
<stop stop-color="white" stop-opacity="0.35"/>
<stop offset="1" stop-color="white" stop-opacity="0"/>
</radialGradient>
<radialGradient id="paint39_radial_2462_25131" cx="0" cy="0" r="1" gradientUnits="userSpaceOnUse" gradientTransform="translate(296.931 161.333) rotate(38.0609) scale(79.8752 77.5435)">
<stop stop-color="white" stop-opacity="0.35"/>
<stop offset="1" stop-color="white" stop-opacity="0"/>
</radialGradient>
<radialGradient id="paint40_radial_2462_25131" cx="0" cy="0" r="1" gradientUnits="userSpaceOnUse" gradientTransform="translate(298.785 155.369) rotate(33.827) scale(77.9369 72.0842)">
<stop stop-color="white" stop-opacity="0.35"/>
<stop offset="1" stop-color="white" stop-opacity="0"/>
</radialGradient>
<radialGradient id="paint41_radial_2462_25131" cx="0" cy="0" r="1" gradientUnits="userSpaceOnUse" gradientTransform="translate(299.456 148.706) rotate(29.294) scale(74.9458 63.9618)">
<stop stop-color="white" stop-opacity="0.35"/>
<stop offset="1" stop-color="white" stop-opacity="0"/>
</radialGradient>
<radialGradient id="paint42_radial_2462_25131" cx="0" cy="0" r="1" gradientUnits="userSpaceOnUse" gradientTransform="translate(299.16 141.56) rotate(24.4065) scale(71.4514 53.7718)">
<stop stop-color="white" stop-opacity="0.35"/>
<stop offset="1" stop-color="white" stop-opacity="0"/>
</radialGradient>
<radialGradient id="paint43_radial_2462_25131" cx="0" cy="0" r="1" gradientUnits="userSpaceOnUse" gradientTransform="translate(298.353 134.31) rotate(19.4263) scale(68.0825 42.7094)">
<stop stop-color="white" stop-opacity="0.35"/>
<stop offset="1" stop-color="white" stop-opacity="0"/>
</radialGradient>
<radialGradient id="paint44_radial_2462_25131" cx="0" cy="0" r="1" gradientUnits="userSpaceOnUse" gradientTransform="translate(297.039 126.986) rotate(14.5238) scale(65.0773 31.5973)">
<stop stop-color="white" stop-opacity="0.35"/>
<stop offset="1" stop-color="white" stop-opacity="0"/>
</radialGradient>
<radialGradient id="paint45_radial_2462_25131" cx="0" cy="0" r="1" gradientUnits="userSpaceOnUse" gradientTransform="translate(295.266 119.901) rotate(9.8385) scale(62.1385 20.9231)">
<stop stop-color="white" stop-opacity="0.35"/>
<stop offset="1" stop-color="white" stop-opacity="0"/>
</radialGradient>
<radialGradient id="paint46_radial_2462_25131" cx="0" cy="0" r="1" gradientUnits="userSpaceOnUse" gradientTransform="translate(292.876 113.175) rotate(5.7206) scale(59.1821 11.7395)">
<stop stop-color="white" stop-opacity="0.35"/>
<stop offset="1" stop-color="white" stop-opacity="0"/>
</radialGradient>
<radialGradient id="paint47_radial_2462_25131" cx="0" cy="0" r="1" gradientUnits="userSpaceOnUse" gradientTransform="translate(290.056 106.69) rotate(6.31009) scale(56.4624 12.3363)">
<stop stop-color="white" stop-opacity="0.35"/>
<stop offset="1" stop-color="white" stop-opacity="0"/>
</radialGradient>
<radialGradient id="paint48_radial_2462_25131" cx="0" cy="0" r="1" gradientUnits="userSpaceOnUse" gradientTransform="translate(286.752 100.269) rotate(13.445) scale(54.3043 24.5607)">
<stop stop-color="white" stop-opacity="0.35"/>
<stop offset="1" stop-color="white" stop-opacity="0"/>
</radialGradient>
<radialGradient id="paint49_radial_2462_25131" cx="0" cy="0" r="1" gradientUnits="userSpaceOnUse" gradientTransform="translate(282.857 94.1168) rotate(20.9237) scale(52.4318 34.9798)">
<stop stop-color="white" stop-opacity="0.35"/>
<stop offset="1" stop-color="white" stop-opacity="0"/>
</radialGradient>
<radialGradient id="paint50_radial_2462_25131" cx="0" cy="0" r="1" gradientUnits="userSpaceOnUse" gradientTransform="translate(278.586 88.4488) rotate(28.6201) scale(50.9251 42.8253)">
<stop stop-color="white" stop-opacity="0.35"/>
<stop offset="1" stop-color="white" stop-opacity="0"/>
</radialGradient>
<radialGradient id="paint51_radial_2462_25131" cx="0" cy="0" r="1" gradientUnits="userSpaceOnUse" gradientTransform="translate(273.921 82.6586) rotate(36.6099) scale(49.7324 47.6148)">
<stop stop-color="white" stop-opacity="0.35"/>
<stop offset="1" stop-color="white" stop-opacity="0"/>
</radialGradient>
<radialGradient id="paint52_radial_2462_25131" cx="0" cy="0" r="1" gradientUnits="userSpaceOnUse" gradientTransform="translate(268.514 78.3473) rotate(44.7996) scale(48.8775 48.8763)">
<stop stop-color="white" stop-opacity="0.35"/>
<stop offset="1" stop-color="white" stop-opacity="0"/>
</radialGradient>
<radialGradient id="paint53_radial_2462_25131" cx="0" cy="0" r="1" gradientUnits="userSpaceOnUse" gradientTransform="translate(262.793 74.0221) rotate(53.1492) scale(48.3779 46.4338)">
<stop stop-color="white" stop-opacity="0.35"/>
<stop offset="1" stop-color="white" stop-opacity="0"/>
</radialGradient>
<radialGradient id="paint54_radial_2462_25131" cx="0" cy="0" r="1" gradientUnits="userSpaceOnUse" gradientTransform="translate(256.749 70.2343) rotate(61.5804) scale(48.2625 40.4024)">
<stop stop-color="white" stop-opacity="0.35"/>
<stop offset="1" stop-color="white" stop-opacity="0"/>
</radialGradient>
<radialGradient id="paint55_radial_2462_25131" cx="0" cy="0" r="1" gradientUnits="userSpaceOnUse" gradientTransform="translate(250.319 67.0376) rotate(70.0331) scale(48.6193 31.2088)">
<stop stop-color="white" stop-opacity="0.35"/>
<stop offset="1" stop-color="white" stop-opacity="0"/>
</radialGradient>
<radialGradient id="paint56_radial_2462_25131" cx="0" cy="0" r="1" gradientUnits="userSpaceOnUse" gradientTransform="translate(243.71 64.2168) rotate(78.3359) scale(49.4309 19.5746)">
<stop stop-color="white" stop-opacity="0.35"/>
<stop offset="1" stop-color="white" stop-opacity="0"/>
</radialGradient>
<radialGradient id="paint57_radial_2462_25131" cx="0" cy="0" r="1" gradientUnits="userSpaceOnUse" gradientTransform="translate(236.887 61.9334) rotate(86.418) scale(50.7391 6.32768)">
<stop stop-color="white" stop-opacity="0.35"/>
<stop offset="1" stop-color="white" stop-opacity="0"/>
</radialGradient>
<radialGradient id="paint58_radial_2462_25131" cx="0" cy="0" r="1" gradientUnits="userSpaceOnUse" gradientTransform="translate(230.073 60.1869) rotate(82.6403) scale(52.8213 13.4211)">
<stop stop-color="white" stop-opacity="0.35"/>
<stop offset="1" stop-color="white" stop-opacity="0"/>
</radialGradient>
<radialGradient id="paint59_radial_2462_25131" cx="0" cy="0" r="1" gradientUnits="userSpaceOnUse" gradientTransform="translate(222.99 58.8709) rotate(77.057) scale(55.0473 24.0327)">
<stop stop-color="white" stop-opacity="0.35"/>
<stop offset="1" stop-color="white" stop-opacity="0"/>
</radialGradient>
<radialGradient id="paint60_radial_2462_25131" cx="0" cy="0" r="1" gradientUnits="userSpaceOnUse" gradientTransform="translate(215.742 58.0646) rotate(70.8604) scale(57.5841 35.6731)">
<stop stop-color="white" stop-opacity="0.35"/>
<stop offset="1" stop-color="white" stop-opacity="0"/>
</radialGradient>
<radialGradient id="paint61_radial_2462_25131" cx="0" cy="0" r="1" gradientUnits="userSpaceOnUse" gradientTransform="translate(208.573 57.8498) rotate(64.5607) scale(60.5395 46.9672)">
<stop stop-color="white" stop-opacity="0.35"/>
<stop offset="1" stop-color="white" stop-opacity="0"/>
</radialGradient>
<radialGradient id="paint62_radial_2462_25131" cx="0" cy="0" r="1" gradientUnits="userSpaceOnUse" gradientTransform="translate(201.401 57.6355) rotate(58.8469) scale(64.1333 56.7865)">
<stop stop-color="white" stop-opacity="0.35"/>
<stop offset="1" stop-color="white" stop-opacity="0"/>
</radialGradient>
<radialGradient id="paint63_radial_2462_25131" cx="0" cy="0" r="1" gradientUnits="userSpaceOnUse" gradientTransform="translate(194.23 57.2856) rotate(53.8767) scale(68.4463 65.1867)">
<stop stop-color="white" stop-opacity="0.35"/>
<stop offset="1" stop-color="white" stop-opacity="0"/>
</radialGradient>
<radialGradient id="paint64_radial_2462_25131" cx="0" cy="0" r="1" gradientUnits="userSpaceOnUse" gradientTransform="translate(187.08 56.8829) rotate(49.5994) scale(73.2001 72.2587)">
<stop stop-color="white" stop-opacity="0.35"/>
<stop offset="1" stop-color="white" stop-opacity="0"/>
</radialGradient>
<radialGradient id="paint65_radial_2462_25131" cx="0" cy="0" r="1" gradientUnits="userSpaceOnUse" gradientTransform="translate(180.123 56.5602) rotate(45.8356) scale(78.1587 78.1254)">
<stop stop-color="white" stop-opacity="0.35"/>
<stop offset="1" stop-color="white" stop-opacity="0"/>
</radialGradient>
<radialGradient id="paint66_radial_2462_25131" cx="0" cy="0" r="1" gradientUnits="userSpaceOnUse" gradientTransform="translate(173.305 56.5871) rotate(42.4956) scale(83.0357 82.7186)">
<stop stop-color="white" stop-opacity="0.35"/>
<stop offset="1" stop-color="white" stop-opacity="0"/>
</radialGradient>
<radialGradient id="paint67_radial_2462_25131" cx="0" cy="0" r="1" gradientUnits="userSpaceOnUse" gradientTransform="translate(166.727 57.1514) rotate(39.3376) scale(87.601 85.8954)">
<stop stop-color="white" stop-opacity="0.35"/>
<stop offset="1" stop-color="white" stop-opacity="0"/>
</radialGradient>
<radialGradient id="paint68_radial_2462_25131" cx="0" cy="0" r="1" gradientUnits="userSpaceOnUse" gradientTransform="translate(160.43 58.5752) rotate(36.2123) scale(91.7651 87.4815)">
<stop stop-color="white" stop-opacity="0.35"/>
<stop offset="1" stop-color="white" stop-opacity="0"/>
</radialGradient>
<radialGradient id="paint69_radial_2462_25131" cx="0" cy="0" r="1" gradientUnits="userSpaceOnUse" gradientTransform="translate(154.501 60.8323) rotate(32.9921) scale(95.4161 87.1562)">
<stop stop-color="white" stop-opacity="0.35"/>
<stop offset="1" stop-color="white" stop-opacity="0"/>
</radialGradient>
<radialGradient id="paint70_radial_2462_25131" cx="0" cy="0" r="1" gradientUnits="userSpaceOnUse" gradientTransform="translate(148.807 64.1363) rotate(29.6072) scale(98.4754 84.5992)">
<stop stop-color="white" stop-opacity="0.35"/>
<stop offset="1" stop-color="white" stop-opacity="0"/>
</radialGradient>
<radialGradient id="paint71_radial_2462_25131" cx="0" cy="0" r="1" gradientUnits="userSpaceOnUse" gradientTransform="translate(143.614 68.5957) rotate(25.9382) scale(101.034 79.4815)">
<stop stop-color="white" stop-opacity="0.35"/>
<stop offset="1" stop-color="white" stop-opacity="0"/>
</radialGradient>
<radialGradient id="paint72_radial_2462_25131" cx="0" cy="0" r="1" gradientUnits="userSpaceOnUse" gradientTransform="translate(138.757 74.2916) rotate(21.976) scale(103.161 71.5992)">
<stop stop-color="white" stop-opacity="0.35"/>
<stop offset="1" stop-color="white" stop-opacity="0"/>
</radialGradient>
<radialGradient id="paint73_radial_2462_25131" cx="0" cy="0" r="1" gradientUnits="userSpaceOnUse" gradientTransform="translate(134.321 80.9538) rotate(17.7073) scale(105.02 60.8576)">
<stop stop-color="white" stop-opacity="0.35"/>
<stop offset="1" stop-color="white" stop-opacity="0"/>
</radialGradient>
<radialGradient id="paint74_radial_2462_25131" cx="0" cy="0" r="1" gradientUnits="userSpaceOnUse" gradientTransform="translate(130.482 88.5293) rotate(13.1654) scale(106.745 47.347)">
<stop stop-color="white" stop-opacity="0.35"/>
<stop offset="1" stop-color="white" stop-opacity="0"/>
</radialGradient>
<radialGradient id="paint75_radial_2462_25131" cx="0" cy="0" r="1" gradientUnits="userSpaceOnUse" gradientTransform="translate(127.02 96.9112) rotate(8.47323) scale(108.482 31.62)">
<stop stop-color="white" stop-opacity="0.35"/>
<stop offset="1" stop-color="white" stop-opacity="0"/>
</radialGradient>
<radialGradient id="paint76_radial_2462_25131" cx="0" cy="0" r="1" gradientUnits="userSpaceOnUse" gradientTransform="translate(124.172 105.965) rotate(3.79368) scale(110.441 14.5824)">
<stop stop-color="white" stop-opacity="0.35"/>
<stop offset="1" stop-color="white" stop-opacity="0"/>
</radialGradient>
<radialGradient id="paint77_radial_2462_25131" cx="0" cy="0" r="1" gradientUnits="userSpaceOnUse" gradientTransform="translate(121.748 116.003) rotate(4.29243) scale(112.826 16.842)">
<stop stop-color="white" stop-opacity="0.35"/>
<stop offset="1" stop-color="white" stop-opacity="0"/>
</radialGradient>
<radialGradient id="paint78_radial_2462_25131" cx="0" cy="0" r="1" gradientUnits="userSpaceOnUse" gradientTransform="translate(119.921 123.968) rotate(7.20566) scale(115.192 28.6691)">
<stop stop-color="white" stop-opacity="0.35"/>
<stop offset="1" stop-color="white" stop-opacity="0"/>
</radialGradient>
<radialGradient id="paint79_radial_2462_25131" cx="0" cy="0" r="1" gradientUnits="userSpaceOnUse" gradientTransform="translate(118.656 132.64) rotate(10.7047) scale(117.591 42.9242)">
<stop stop-color="white" stop-opacity="0.35"/>
<stop offset="1" stop-color="white" stop-opacity="0"/>
</radialGradient>
<radialGradient id="paint80_radial_2462_25131" cx="0" cy="0" r="1" gradientUnits="userSpaceOnUse" gradientTransform="translate(117.932 141.027) rotate(14.1466) scale(119.907 56.8339)">
<stop stop-color="white" stop-opacity="0.35"/>
<stop offset="1" stop-color="white" stop-opacity="0"/>
</radialGradient>
<radialGradient id="paint81_radial_2462_25131" cx="0" cy="0" r="1" gradientUnits="userSpaceOnUse" gradientTransform="translate(117.612 148.706) rotate(17.4743) scale(122.121 69.956)">
<stop stop-color="white" stop-opacity="0.35"/>
<stop offset="1" stop-color="white" stop-opacity="0"/>
</radialGradient>
<radialGradient id="paint82_radial_2462_25131" cx="0" cy="0" r="1" gradientUnits="userSpaceOnUse" gradientTransform="translate(117.931 155.826) rotate(20.646) scale(124.193 81.9543)">
<stop stop-color="white" stop-opacity="0.35"/>
<stop offset="1" stop-color="white" stop-opacity="0"/>
</radialGradient>
<radialGradient id="paint83_radial_2462_25131" cx="0" cy="0" r="1" gradientUnits="userSpaceOnUse" gradientTransform="translate(118.821 162.837) rotate(23.7853) scale(126.094 93.0708)">
<stop stop-color="white" stop-opacity="0.35"/>
<stop offset="1" stop-color="white" stop-opacity="0"/>
</radialGradient>
<radialGradient id="paint84_radial_2462_25131" cx="0" cy="0" r="1" gradientUnits="userSpaceOnUse" gradientTransform="translate(120.276 169.768) rotate(26.8614) scale(127.773 103.006)">
<stop stop-color="white" stop-opacity="0.35"/>
<stop offset="1" stop-color="white" stop-opacity="0"/>
</radialGradient>
<radialGradient id="paint85_radial_2462_25131" cx="0" cy="0" r="1" gradientUnits="userSpaceOnUse" gradientTransform="translate(122.291 176.458) rotate(29.9253) scale(129.135 111.665)">
<stop stop-color="white" stop-opacity="0.35"/>
<stop offset="1" stop-color="white" stop-opacity="0"/>
</radialGradient>
<radialGradient id="paint86_radial_2462_25131" cx="0" cy="0" r="1" gradientUnits="userSpaceOnUse" gradientTransform="translate(124.944 183.013) rotate(32.963) scale(130.349 119.012)">
<stop stop-color="white" stop-opacity="0.35"/>
<stop offset="1" stop-color="white" stop-opacity="0"/>
</radialGradient>
<radialGradient id="paint87_radial_2462_25131" cx="0" cy="0" r="1" gradientUnits="userSpaceOnUse" gradientTransform="translate(128.111 189.191) rotate(35.986) scale(131.309 124.862)">
<stop stop-color="white" stop-opacity="0.35"/>
<stop offset="1" stop-color="white" stop-opacity="0"/>
</radialGradient>
<radialGradient id="paint88_radial_2462_25131" cx="0" cy="0" r="1" gradientUnits="userSpaceOnUse" gradientTransform="translate(131.748 195.236) rotate(39.0147) scale(132.079 129.207)">
<stop stop-color="white" stop-opacity="0.35"/>
<stop offset="1" stop-color="white" stop-opacity="0"/>
</radialGradient>
<radialGradient id="paint89_radial_2462_25131" cx="0" cy="0" r="1" gradientUnits="userSpaceOnUse" gradientTransform="translate(135.83 200.985) rotate(42.0389) scale(132.752 132.043)">
<stop stop-color="white" stop-opacity="0.35"/>
<stop offset="1" stop-color="white" stop-opacity="0"/>
</radialGradient>
<radialGradient id="paint90_radial_2462_25131" cx="0" cy="0" r="1" gradientUnits="userSpaceOnUse" gradientTransform="translate(140.316 206.492) rotate(45.0735) scale(133.258 133.258)">
<stop stop-color="white" stop-opacity="0.35"/>
<stop offset="1" stop-color="white" stop-opacity="0"/>
</radialGradient>
<radialGradient id="paint91_radial_2462_25131" cx="0" cy="0" r="1" gradientUnits="userSpaceOnUse" gradientTransform="translate(145.172 211.704) rotate(48.1121) scale(133.664 132.877)">
<stop stop-color="white" stop-opacity="0.35"/>
<stop offset="1" stop-color="white" stop-opacity="0"/>
</radialGradient>
<radialGradient id="paint92_radial_2462_25131" cx="0" cy="0" r="1" gradientUnits="userSpaceOnUse" gradientTransform="translate(150.364 216.593) rotate(51.159) scale(134.032 130.946)">
<stop stop-color="white" stop-opacity="0.35"/>
<stop offset="1" stop-color="white" stop-opacity="0"/>
</radialGradient>
<radialGradient id="paint93_radial_2462_25131" cx="0" cy="0" r="1" gradientUnits="userSpaceOnUse" gradientTransform="translate(155.92 221.107) rotate(54.1985) scale(134.282 127.419)">
<stop stop-color="white" stop-opacity="0.35"/>
<stop offset="1" stop-color="white" stop-opacity="0"/>
</radialGradient>
<radialGradient id="paint94_radial_2462_25131" cx="0" cy="0" r="1" gradientUnits="userSpaceOnUse" gradientTransform="translate(161.722 225.244) rotate(57.2373) scale(134.432 122.353)">
<stop stop-color="white" stop-opacity="0.35"/>
<stop offset="1" stop-color="white" stop-opacity="0"/>
</radialGradient>
<radialGradient id="paint95_radial_2462_25131" cx="0" cy="0" r="1" gradientUnits="userSpaceOnUse" gradientTransform="translate(167.82 228.978) rotate(60.2423) scale(134.396 115.818)">
<stop stop-color="white" stop-opacity="0.35"/>
<stop offset="1" stop-color="white" stop-opacity="0"/>
</radialGradient>
<radialGradient id="paint96_radial_2462_25131" cx="0" cy="0" r="1" gradientUnits="userSpaceOnUse" gradientTransform="translate(174.14 232.175) rotate(63.2606) scale(134.224 107.867)">
<stop stop-color="white" stop-opacity="0.35"/>
<stop offset="1" stop-color="white" stop-opacity="0"/>
</radialGradient>
<radialGradient id="paint97_radial_2462_25131" cx="0" cy="0" r="1" gradientUnits="userSpaceOnUse" gradientTransform="translate(180.692 234.835) rotate(66.2804) scale(133.836 98.5779)">
<stop stop-color="white" stop-opacity="0.35"/>
<stop offset="1" stop-color="white" stop-opacity="0"/>
</radialGradient>
<radialGradient id="paint98_radial_2462_25131" cx="0" cy="0" r="1" gradientUnits="userSpaceOnUse" gradientTransform="translate(187.434 237.064) rotate(69.2952) scale(133.201 88.1044)">
<stop stop-color="white" stop-opacity="0.35"/>
<stop offset="1" stop-color="white" stop-opacity="0"/>
</radialGradient>
<radialGradient id="paint99_radial_2462_25131" cx="0" cy="0" r="1" gradientUnits="userSpaceOnUse" gradientTransform="translate(194.393 238.542) rotate(72.3191) scale(132.327 76.5823)">
<stop stop-color="white" stop-opacity="0.35"/>
<stop offset="1" stop-color="white" stop-opacity="0"/>
</radialGradient>
<radialGradient id="paint100_radial_2462_25131" cx="0" cy="0" r="1" gradientUnits="userSpaceOnUse" gradientTransform="translate(201.454 239.32) rotate(75.3717) scale(131.16 64.1008)">
<stop stop-color="white" stop-opacity="0.35"/>
<stop offset="1" stop-color="white" stop-opacity="0"/>
</radialGradient>
<clipPath id="clip0_2462_25131">
<rect width="364.5" height="367.025" fill="white" transform="translate(0.75 0.170898)"/>
</clipPath>
</defs>
</svg>
