<svg width="997" height="554" viewBox="0 0 997 554" fill="none" xmlns="http://www.w3.org/2000/svg">
<g clip-path="url(#clip0_459_27761)">
<path d="M471.637 166.016L495.838 323.775L520.054 334.073L544.608 344.524L561.167 339.152" stroke="#F4F4F6" stroke-width="1.53463" stroke-linecap="round" stroke-linejoin="round"/>
<path d="M497.74 45.916L471.636 166.016L445.547 222.214L419.904 332.661L393.324 342.36L366.391 352.212L339.09 362.187L315.733 351.491L291.486 291.272L268.605 278.642L246.476 280.591L246.199 280.806L245.939 281.021L237.544 287.512L219.236 301.677L218.239 302.183L206.667 307.938L191.429 315.55L190.155 316.563L163.591 337.71L135.277 355.757L106.395 369.323L84.6493 358.504L63.2106 347.854L42.0942 337.357L21.2846 327.013L0.766624 316.808" stroke="#F4F4F6" stroke-width="1.53463" stroke-linecap="round" stroke-linejoin="round"/>
<path d="M473.447 47.558L468.382 69.1349L448.202 155.166" stroke="#F4F4F6" stroke-width="1.53463" stroke-linecap="round" stroke-linejoin="round"/>
<path d="M318.082 243.883L343.004 341.654L366.392 352.212L390.133 362.924L414.226 373.804L438.688 384.853L463.503 396.056L488.717 407.443L515.803 396.839L532.086 381.815L541.646 372.975L567.812 380.587L594.622 373.559L621.478 368.924L647.797 369.676L674.223 346.933L700.265 328.134L726.231 301.83L750.954 305.268L775.524 301.569L799.556 301.83L800.783 303.273L809.454 313.417L825.736 332.461L849.324 331.495L872.604 329.668L899.506 347.056L922.71 338.554L945.637 329.331L968.242 320.553L995.819 330.804" stroke="#F4F4F6" stroke-width="1.53463" stroke-linecap="round" stroke-linejoin="round"/>
<path d="M521.665 241.612L495.838 323.775L469.948 333.367L443.706 343.081L417.111 352.933L390.132 362.924L362.785 373.068L335.07 383.334L311.406 372.316L288.095 361.45L264.447 326.814L241.35 303.564L219.237 301.677L197.583 308.414L176.543 309.488L155.181 299.544L127.466 308.813L106.472 298.868L78.4499 308.122L57.7939 298.193L29.4646 307.432" stroke="#F4F4F6" stroke-width="1.53463" stroke-linecap="round" stroke-linejoin="round"/>
<path d="M421.178 142.643L432.535 179.751L445.548 222.214L469.949 333.367L494.134 343.802L518.673 354.407L544.608 344.524L569.822 272.273L570.866 269.327L584.417 252.83L596.156 238.558L596.356 238.466L596.555 238.051L604.29 232.281L610.49 227.662L612.147 226.419L621.647 219.329L622.322 218.822L648.15 222.628L664.831 242.118L673.793 252.569L680.714 256.896L700.081 269.005L725.034 268.805L734.917 272.289L749.297 277.353L755.911 283.169L770.091 296.566L775.524 301.569L801.459 340.702L827.931 372.699L855.293 390.961L879.54 380.587L903.435 370.351L927.006 360.269L950.256 350.309L973.199 340.487L995.819 330.804" stroke="#F4F4F6" stroke-width="1.53463" stroke-linecap="round" stroke-linejoin="round"/>
<path d="M473.447 47.558L449.951 126.039L441.511 152.066" stroke="#F4F4F6" stroke-width="1.53463" stroke-linecap="round" stroke-linejoin="round"/>
<path d="M371.027 157.499L322.149 212.024L312.849 226.833L295.615 254.456" stroke="#F4F4F6" stroke-width="1.53463" stroke-linecap="round" stroke-linejoin="round"/>
<path d="M421.178 142.643L401.504 191.69L395.089 207.681L419.904 332.661L443.706 343.081L467.861 353.67L494.134 343.802L520.054 334.073L545.851 290.735L521.665 241.612L497.74 45.916" stroke="#F4F4F6" stroke-width="1.53463" stroke-linecap="round" stroke-linejoin="round"/>
<path d="M624.331 310.823L648.318 256.098L673.792 252.569L699.451 227.739" stroke="#F4F4F6" stroke-width="1.53463" stroke-linecap="round" stroke-linejoin="round"/>
<path d="M371.026 157.499L395.089 207.681L368.755 256.82L343.004 341.654L315.734 351.491L288.095 361.45L260.073 371.564L231.667 381.815L208.617 365.793L185.812 348.007L163.591 337.71L141.968 333.612L113.516 346.519L92.0466 336.636L70.9301 327.704L50.0591 317.499L29.4645 307.432L0.76694 316.808" stroke="#F4F4F6" stroke-width="1.53463" stroke-linecap="round" stroke-linejoin="round"/>
<path d="M318.082 243.883L291.487 291.272L264.447 326.814L236.793 349.127L208.617 365.793L179.981 379.513L157.376 365.517L135.277 355.757L113.516 346.519L84.6498 358.504" stroke="#F4F4F6" stroke-width="1.53463" stroke-linecap="round" stroke-linejoin="round"/>
<path d="M499.428 0.767334L493.52 11.4176L473.447 47.5581L445.64 136.766L439.808 151.283" stroke="#F4F4F6" stroke-width="1.53463" stroke-linecap="round" stroke-linejoin="round"/>
<path d="M421.177 142.643L398.143 187.93" stroke="#F4F4F6" stroke-width="1.53463" stroke-linecap="round" stroke-linejoin="round"/>
<path d="M594.621 373.559L621.139 415.669L648.056 448.479L675.603 467.907" stroke="#F4F4F6" stroke-width="1.53463" stroke-linecap="round" stroke-linejoin="round"/>
<path d="M567.136 397.207L593.762 434.499L620.833 460.725L648.395 479.555" stroke="#F4F4F6" stroke-width="1.53463" stroke-linecap="round" stroke-linejoin="round"/>
<path d="M371.026 157.499L398.143 187.93" stroke="#F4F4F6" stroke-width="1.53463" stroke-linecap="round" stroke-linejoin="round"/>
<path d="M213.497 319.156L185.813 348.007L157.376 365.517L128.464 380.296" stroke="#F4F4F6" stroke-width="1.53463" stroke-linecap="round" stroke-linejoin="round"/>
<path d="M213.497 319.156L236.793 349.127L260.073 371.564L283.338 382.567L306.956 393.739L330.927 405.095L355.266 416.605L379.973 428.314L405.08 440.192L430.585 452.254L456.459 460.725L482.778 463.825L509.542 482.21L536.705 500.702L565.157 487.351L593.194 474.276L620.833 460.725L648.057 448.479L674.913 435.665L701.37 423.802L727.459 411.802L753.21 399.218L778.531 388.89L803.407 380.756L827.931 372.699L852.178 362.97L876.01 355.005L899.506 347.056L927.006 360.269" stroke="#F4F4F6" stroke-width="1.53463" stroke-linecap="round" stroke-linejoin="round"/>
<path d="M780.495 422.989L753.209 399.218L726.553 365.886L700.265 328.134L674.821 264.063" stroke="#F4F4F6" stroke-width="1.53463" stroke-linecap="round" stroke-linejoin="round"/>
<path d="M584.416 252.83L572.676 218.654L567.289 206.637L555.549 180.411L549.211 166.261L541.431 146.802" stroke="#F4F4F6" stroke-width="1.53463" stroke-linecap="round" stroke-linejoin="round"/>
<path d="M555.089 166.906L538.27 135.799" stroke="#F4F4F6" stroke-width="1.53463" stroke-linecap="round" stroke-linejoin="round"/>
<path d="M754.836 433.977L727.458 411.802L700.464 388.199L674.222 346.933L648.379 296.275" stroke="#F4F4F6" stroke-width="1.53463" stroke-linecap="round" stroke-linejoin="round"/>
<path d="M618.761 314.184L595.864 287.896" stroke="#F4F4F6" stroke-width="1.53463" stroke-linecap="round" stroke-linejoin="round"/>
<path d="M728.808 445.118L701.369 423.802L674.421 397.207L647.795 369.676L621.784 324.681" stroke="#F4F4F6" stroke-width="1.53463" stroke-linecap="round" stroke-linejoin="round"/>
<path d="M538.01 466.327L565.157 487.351L592.765 503.373L620.787 491.372" stroke="#F4F4F6" stroke-width="1.53463" stroke-linecap="round" stroke-linejoin="round"/>
<path d="M830.709 401.489L803.408 380.756L776.951 346.166L750.954 305.268L729.224 274.698L725.034 268.805L709.872 244.481L701.171 229.841L699.452 227.739" stroke="#F4F4F6" stroke-width="1.53463" stroke-linecap="round" stroke-linejoin="round"/>
<path d="M545.851 290.735L568.318 271.491" stroke="#F4F4F6" stroke-width="1.53463" stroke-linecap="round" stroke-linejoin="round"/>
<path d="M879.54 380.587L852.177 362.97L825.736 332.461" stroke="#F4F4F6" stroke-width="1.53463" stroke-linecap="round" stroke-linejoin="round"/>
<path d="M368.878 499.828L398.496 487.09L424.738 499.26L451.425 512.995L480.691 497.679L507.838 513.164L536.705 500.702L564.312 515.542L592.764 503.373" stroke="#F4F4F6" stroke-width="1.53463" stroke-linecap="round" stroke-linejoin="round"/>
<path d="M343.096 487.014L372.684 475.258L401.842 463.672L427.685 472.742L453.958 483.254L480.691 497.679L509.542 482.21L538.009 466.327" stroke="#F4F4F6" stroke-width="1.53463" stroke-linecap="round" stroke-linejoin="round"/>
<path d="M903.434 370.351L876.01 355.005L849.323 331.495L822.789 312.128" stroke="#F4F4F6" stroke-width="1.53463" stroke-linecap="round" stroke-linejoin="round"/>
<path d="M243.99 437.737L273.394 426.703L297.625 438.55L322.256 450.597L347.27 462.828L372.684 475.258L398.496 487.09L427.685 472.742L456.459 460.725L484.819 449.753L512.811 425.153L530.413 410.221L540.48 401.658L559.724 386.833L567.812 380.587L594.959 350.048L621.784 324.681L648.379 296.275L674.821 264.063" stroke="#F4F4F6" stroke-width="1.53463" stroke-linecap="round" stroke-linejoin="round"/>
<path d="M220.172 425.889L249.514 415.024L278.442 404.313L302.367 415.822L326.66 427.501L351.321 439.363L376.397 451.426L401.841 463.672L430.585 452.254L458.899 441.005L486.798 429.358L491.724 425.736L514.329 409.147L526.929 392.481L534.264 382.766L541.646 372.976L549.35 362.924L558.864 350.478L568.747 337.556L571.141 336.728L595.864 287.896L609.476 260.042L622.475 233.478L648.149 222.628L672.872 238.772L699.451 227.739" stroke="#F4F4F6" stroke-width="1.53463" stroke-linecap="round" stroke-linejoin="round"/>
<path d="M173.627 402.747L202.847 392.204L231.667 381.815L254.871 392.972L278.442 404.313L306.956 393.739L335.07 383.334L359.087 394.522L383.472 405.878L408.226 417.403L433.363 429.112L458.899 441.006L484.819 449.753L511.214 450.689L538.009 466.327L566.062 451.41L593.762 434.499L621.14 415.669L648.088 400.921L674.422 397.207L700.465 388.199L726.553 365.886L752.12 350.064L776.95 346.166L801.458 340.702L825.736 332.461" stroke="#F4F4F6" stroke-width="1.53463" stroke-linecap="round" stroke-linejoin="round"/>
<path d="M596.156 238.558L572.676 218.654L558.158 190.171L548.367 170.927L523.384 122.601L497.74 45.916" stroke="#F4F4F6" stroke-width="1.53463" stroke-linecap="round" stroke-linejoin="round"/>
<path d="M448.77 539.544L476.302 553.233L506.089 540.48" stroke="#F4F4F6" stroke-width="1.53463" stroke-linecap="round" stroke-linejoin="round"/>
<path d="M421.699 526.085L448.77 539.544L478.527 526.499L506.088 540.48L535.43 527.911" stroke="#F4F4F6" stroke-width="1.53463" stroke-linecap="round" stroke-linejoin="round"/>
<path d="M950.256 350.309L922.71 338.554L895.669 324.543L868.967 311.606L860.787 308.475L842.495 301.431L816.329 293.374L790.517 285.962L765.042 279.655L746.611 272.611" stroke="#F4F4F6" stroke-width="1.53463" stroke-linecap="round" stroke-linejoin="round"/>
<path d="M395.074 512.841L421.699 526.085L451.425 512.995L478.527 526.499L507.838 513.164L535.431 527.911L564.312 515.542" stroke="#F4F4F6" stroke-width="1.53463" stroke-linecap="round" stroke-linejoin="round"/>
<path d="M973.198 340.488L945.636 329.331L918.458 318.68L895.669 324.543L872.603 329.668L851.963 314.23L846.146 309.872L822.789 312.128L802.486 303.119L799.555 301.83L787.8 299.728L772.73 297.027L755.91 283.169L749.296 277.353L743.495 271.429L741.577 269.465L728.256 255.884L723.453 250.973L715.765 243.53L714.844 242.64L701.17 229.841L699.451 227.739" stroke="#F4F4F6" stroke-width="1.53463" stroke-linecap="round" stroke-linejoin="round"/>
<path d="M568.747 337.556L594.959 350.048L621.477 368.924L632.818 382.567L648.087 400.921L674.913 435.665L702.398 456.429" stroke="#F4F4F6" stroke-width="1.53463" stroke-linecap="round" stroke-linejoin="round"/>
<path d="M968.241 320.553L941.063 310.44L914.268 300.48L887.857 290.658L861.799 280.959L836.125 271.414L810.788 261.991L785.805 252.707L761.159 243.53L736.835 234.491L712.849 225.575L689.185 216.766L665.828 208.08L642.777 199.517L620.096 206.116L600.207 214.188L597.076 213.513L585.966 210.842L577.034 203.568L573.274 200.514L565.724 189.787L562.133 184.677L558.526 179.521L552.618 171.111" stroke="#F4F4F6" stroke-width="1.53463" stroke-linecap="round" stroke-linejoin="round"/>
<path d="M568.364 270.954L546.971 251.786L523.384 122.601L499.429 0.767334" stroke="#F4F4F6" stroke-width="1.53463" stroke-linecap="round" stroke-linejoin="round"/>
<path d="M317.729 474.399L343.096 487.014L368.878 499.828L395.074 512.841L424.739 499.26L453.958 483.254L482.778 463.825L511.215 450.689L539.314 424.432L567.136 397.207" stroke="#F4F4F6" stroke-width="1.53463" stroke-linecap="round" stroke-linejoin="round"/>
<path d="M571.142 336.728L595.297 328.395L621.493 317.315L648.38 296.275" stroke="#F4F4F6" stroke-width="1.53463" stroke-linecap="round" stroke-linejoin="round"/>
<path d="M273.655 274.13L273.516 274.161L264.401 276.325L251.663 279.363L246.476 280.591L230.838 286.039L224.93 288.095L211.318 298.285L197.921 308.306L180.288 313.724L169.898 316.885L148.705 317.238L127.466 308.813L99.3364 316.992L70.9304 327.704L42.0948 337.357" stroke="#F4F4F6" stroke-width="1.53463" stroke-linecap="round" stroke-linejoin="round"/>
<path d="M292.76 461.984L317.728 474.399L347.27 462.828L376.397 451.426L405.079 440.192L433.362 429.112L461.231 418.201L488.716 407.443L514.329 409.147L540.479 401.658L567.136 397.207L581.745 384.639L594.621 373.559" stroke="#F4F4F6" stroke-width="1.53463" stroke-linecap="round" stroke-linejoin="round"/>
<path d="M268.191 449.768L292.76 461.984L322.256 450.597L351.321 439.363L379.973 428.314L408.225 417.403L436.064 406.661L463.503 396.056L490.573 385.621L509.388 393.985" stroke="#F4F4F6" stroke-width="1.53463" stroke-linecap="round" stroke-linejoin="round"/>
<path d="M595.297 328.395L621.784 324.681" stroke="#F4F4F6" stroke-width="1.53463" stroke-linecap="round" stroke-linejoin="round"/>
<path d="M196.723 414.226L220.172 425.889L243.99 437.737L268.191 449.768L297.625 438.55L326.66 427.501L355.265 416.605L383.472 405.878L411.264 395.289L438.688 384.853L465.712 374.556L492.384 364.412L517.261 375.308L529.706 380.756" stroke="#F4F4F6" stroke-width="1.53463" stroke-linecap="round" stroke-linejoin="round"/>
<path d="M347.132 218.454L321.964 212.223L306.311 224.101L299.88 228.966L294.586 238.143L280.529 262.482" stroke="#F4F4F6" stroke-width="1.53463" stroke-linecap="round" stroke-linejoin="round"/>
<path d="M321.965 212.223L345.046 223.81L368.756 256.82L393.325 342.36L417.112 352.933L441.236 363.676L465.713 374.556L490.574 385.621L517.261 375.308L531.18 369.937L543.58 365.149L547.279 361.604" stroke="#F4F4F6" stroke-width="1.53463" stroke-linecap="round" stroke-linejoin="round"/>
<path d="M471.636 166.016L447.681 157.33L441.005 153.631L439.256 152.665L421.178 142.643L371.026 157.499L347.132 218.454L345.045 223.81L318.082 243.883L295.615 254.456L273.977 273.839L273.654 274.13L268.605 278.642L241.35 303.564L213.497 319.156L191.429 315.55L169.898 316.885L161.105 322.164L141.968 333.612L120.453 324.328L99.3362 316.992L78.4499 308.122L50.0593 317.499L21.2851 327.013" stroke="#F4F4F6" stroke-width="1.53463" stroke-linecap="round" stroke-linejoin="round"/>
<path d="M150.869 391.437L173.627 402.747L196.723 414.226L226.004 403.53L254.87 392.972L283.338 382.567L311.406 372.316L339.091 362.187L362.785 373.068L386.848 384.086L414.226 373.804L441.235 363.676L467.861 353.67L492.384 364.412L518.672 354.407L536.812 362.233" stroke="#F4F4F6" stroke-width="1.53463" stroke-linecap="round" stroke-linejoin="round"/>
<path d="M290.857 237.944L267.101 245.786L241.181 254.349L214.939 263.02L188.344 271.813L161.396 280.698L134.11 289.722L106.472 298.868L85.7544 289.062" stroke="#F4F4F6" stroke-width="1.53463" stroke-linecap="round" stroke-linejoin="round"/>
<path d="M106.396 369.323L128.464 380.296L150.869 391.437L179.981 379.513L202.847 392.204L226.004 403.53L249.515 415.024L273.394 426.703L302.367 415.822L330.927 405.095L359.087 394.522L386.849 384.086L411.264 395.289L436.064 406.661L461.232 418.201L486.799 429.358L512.811 425.153L539.314 424.432L566.062 451.41L593.194 474.276L620.787 491.372L648.395 479.555L675.604 467.908L702.398 456.429L728.809 445.118L754.837 433.977L780.496 422.989L805.786 412.17L830.709 401.489L855.293 390.961" stroke="#F4F4F6" stroke-width="1.53463" stroke-linecap="round" stroke-linejoin="round"/>
<path d="M497.74 45.916L473.447 47.5581" stroke="#F4F4F6" stroke-width="1.53463" stroke-linecap="round" stroke-linejoin="round"/>
<path d="M642.778 199.517L620.035 191.046L597.583 182.697L574.902 189.311L567.413 189.695" stroke="#F4F4F6" stroke-width="1.53463" stroke-linecap="round" stroke-linejoin="round"/>
<path d="M715.764 243.53L716.378 243.76L738.431 252.062L763.108 260.349L788.061 270.769L813.443 279.118L839.179 288.003L865.175 299.252L891.663 308.107L918.458 318.68L941.063 310.439" stroke="#F4F4F6" stroke-width="1.53463" stroke-linecap="round" stroke-linejoin="round"/>
<path d="M914.268 300.48L891.663 308.107L868.966 311.606L846.146 309.872L819.551 301.692L793.248 296.091L784.991 294.725" stroke="#F4F4F6" stroke-width="1.53463" stroke-linecap="round" stroke-linejoin="round"/>
<path d="M620.034 191.046L597.353 197.783L578.538 203.138" stroke="#F4F4F6" stroke-width="1.53463" stroke-linecap="round" stroke-linejoin="round"/>
<path d="M597.583 182.697L575.407 174.456L555.089 166.906" stroke="#F4F4F6" stroke-width="1.53463" stroke-linecap="round" stroke-linejoin="round"/>
<path d="M665.828 208.08L643.147 214.648L620.204 218.485L600.208 214.188" stroke="#F4F4F6" stroke-width="1.53463" stroke-linecap="round" stroke-linejoin="round"/>
<path d="M714.844 242.64L736.835 234.491" stroke="#F4F4F6" stroke-width="1.53463" stroke-linecap="round" stroke-linejoin="round"/>
<path d="M793.248 296.091L816.329 293.375L839.179 288.003L861.8 280.959" stroke="#F4F4F6" stroke-width="1.53463" stroke-linecap="round" stroke-linejoin="round"/>
<path d="M667.577 224.562L689.185 216.766" stroke="#F4F4F6" stroke-width="1.53463" stroke-linecap="round" stroke-linejoin="round"/>
<path d="M167.458 262.39L188.344 271.813L209.507 281.374L228.705 285.579" stroke="#F4F4F6" stroke-width="1.53463" stroke-linecap="round" stroke-linejoin="round"/>
<path d="M140.586 271.168L161.396 280.698L182.374 286.576L203.752 295.231L224.991 288.049L225.574 287.819" stroke="#F4F4F6" stroke-width="1.53463" stroke-linecap="round" stroke-linejoin="round"/>
<path d="M194.007 253.72L214.94 263.02L236.148 272.457L248.456 277.936" stroke="#F4F4F6" stroke-width="1.53463" stroke-linecap="round" stroke-linejoin="round"/>
<path d="M220.218 245.172L241.181 254.349L262.451 263.664L264.2 264.447" stroke="#F4F4F6" stroke-width="1.53463" stroke-linecap="round" stroke-linejoin="round"/>
<path d="M246.093 236.716L267.102 245.786L278.166 250.558" stroke="#F4F4F6" stroke-width="1.53463" stroke-linecap="round" stroke-linejoin="round"/>
<path d="M742.713 268.989L763.108 260.349L785.805 252.707" stroke="#F4F4F6" stroke-width="1.53463" stroke-linecap="round" stroke-linejoin="round"/>
<path d="M271.644 228.368L291.84 236.962" stroke="#F4F4F6" stroke-width="1.53463" stroke-linecap="round" stroke-linejoin="round"/>
<path d="M439.808 151.283L421.177 142.643" stroke="#F4F4F6" stroke-width="1.53463" stroke-linecap="round" stroke-linejoin="round"/>
<path d="M802.486 303.119L819.551 301.692L842.494 301.431L865.176 299.252L887.858 290.658" stroke="#F4F4F6" stroke-width="1.53463" stroke-linecap="round" stroke-linejoin="round"/>
<path d="M610.49 227.662L596.969 219.774L585.966 210.842" stroke="#F4F4F6" stroke-width="1.53463" stroke-linecap="round" stroke-linejoin="round"/>
<path d="M575.407 174.456L561.442 178.646" stroke="#F4F4F6" stroke-width="1.53463" stroke-linecap="round" stroke-linejoin="round"/>
<path d="M604.29 232.281L596.97 219.774" stroke="#F4F4F6" stroke-width="1.53463" stroke-linecap="round" stroke-linejoin="round"/>
<path d="M778.592 291.61L790.516 285.962L813.443 279.118L836.125 271.414" stroke="#F4F4F6" stroke-width="1.53463" stroke-linecap="round" stroke-linejoin="round"/>
<path d="M701.493 229.718L712.849 225.575" stroke="#F4F4F6" stroke-width="1.53463" stroke-linecap="round" stroke-linejoin="round"/>
<path d="M728.579 255.761L738.431 252.062L761.159 243.53" stroke="#F4F4F6" stroke-width="1.53463" stroke-linecap="round" stroke-linejoin="round"/>
<path d="M296.873 220.142L306.311 224.101" stroke="#F4F4F6" stroke-width="1.53463" stroke-linecap="round" stroke-linejoin="round"/>
<path d="M758.09 281.635L765.042 279.655L788.061 270.769L810.789 261.991" stroke="#F4F4F6" stroke-width="1.53463" stroke-linecap="round" stroke-linejoin="round"/>
<path d="M266.273 262.39L262.452 263.664L236.148 272.457L209.507 281.374L182.375 286.576L155.181 299.544L134.111 289.722L113.347 280.054" stroke="#F4F4F6" stroke-width="1.53463" stroke-linecap="round" stroke-linejoin="round"/>
<path d="M254.625 276.263L252.016 276.555L251.31 276.862L248.625 278.013L241.504 281.036L230.117 285.885L225.575 287.819L224.992 288.049L203.752 295.231L176.544 309.488L148.705 317.238L120.453 324.328L92.047 336.636L63.2113 347.854" stroke="#F4F4F6" stroke-width="1.53463" stroke-linecap="round" stroke-linejoin="round"/>
<path d="M621.646 219.329L620.204 218.485" stroke="#F4F4F6" stroke-width="1.53463" stroke-linecap="round" stroke-linejoin="round"/>
<path d="M322.333 211.824L321.796 211.993L296.873 220.142L271.644 228.368L246.093 236.716L220.219 245.172L194.007 253.72L167.458 262.39L140.587 271.168L113.347 280.054L85.7547 289.062L57.7939 298.193" stroke="#F4F4F6" stroke-width="1.53463" stroke-linecap="round" stroke-linejoin="round"/>
<path d="M538.27 135.799L504.14 17.1418L499.428 0.767334" stroke="#F4F4F6" stroke-width="1.53463" stroke-linecap="round" stroke-linejoin="round"/>
<path d="M570.574 269.005L552.788 190.432L548.368 170.927L530.843 122.064L524.673 104.892L499.429 0.767334" stroke="#F4F4F6" stroke-width="1.53463" stroke-linecap="round" stroke-linejoin="round"/>
<path d="M574.242 319.862L588.928 266.012L596.371 238.742L596.355 238.466L596.555 238.051L622.475 233.478L648.318 256.098L674.821 264.063L700.081 269.005L726.231 301.83L752.12 350.064L778.531 388.89L805.786 412.17" stroke="#F4F4F6" stroke-width="1.53463" stroke-linecap="round" stroke-linejoin="round"/>
<path d="M570.865 269.327L568.64 271.214L568.179 271.368L546.971 251.786L521.665 241.612" stroke="#F4F4F6" stroke-width="1.53463" stroke-linecap="round" stroke-linejoin="round"/>
<path d="M560.859 346.135L568.686 337.526L569.254 336.896L569.729 336.39L594.744 289.983L595.864 287.896" stroke="#F4F4F6" stroke-width="1.53463" stroke-linecap="round" stroke-linejoin="round"/>
<path d="M664.953 224.301L654.794 219.804L643.146 214.648L620.096 206.116L597.353 197.783L574.901 189.311L565.325 185.828" stroke="#F4F4F6" stroke-width="1.53463" stroke-linecap="round" stroke-linejoin="round"/>
<path d="M612.147 226.419L598.612 214.832L597.077 213.513" stroke="#F4F4F6" stroke-width="1.53463" stroke-linecap="round" stroke-linejoin="round"/>
<path d="M596.294 238.373L578.446 209.031L575.408 204.029L573.275 200.514" stroke="#F4F4F6" stroke-width="1.53463" stroke-linecap="round" stroke-linejoin="round"/>
</g>
<defs>
<clipPath id="clip0_459_27761">
<rect width="996.586" height="554" fill="white" transform="matrix(-1 0 0 1 996.586 0)"/>
</clipPath>
</defs>
</svg>
