<svg width="32" height="32" viewBox="0 0 32 32" fill="none" xmlns="http://www.w3.org/2000/svg">
  <!-- Background -->
  <rect width="32" height="32" fill="#000000"/>
  
  <!-- Outer circle -->
  <circle cx="16" cy="16" r="15" stroke="#ffffff" stroke-width="2" fill="none"/>
  
  <!-- Inner circle -->
  <circle cx="16" cy="16" r="10" stroke="#ffffff" stroke-width="1.5" fill="none"/>
  
  <!-- Center pupil -->
  <circle cx="16" cy="16" r="3" fill="#ffffff"/>
  
  <!-- Three tomoe (comma shapes) -->
  <!-- Top tomoe -->
  <path d="M 16 6 Q 20 8 20 12 Q 20 14 18 14 Q 16 12 16 10 Q 16 8 16 6 Z" fill="#ffffff"/>
  <circle cx="18" cy="11" r="1.5" fill="#000000"/>
  
  <!-- Bottom right tomoe -->
  <path d="M 26 16 Q 24 20 20 20 Q 18 20 18 18 Q 20 16 22 16 Q 24 16 26 16 Z" fill="#ffffff"/>
  <circle cx="22" cy="18" r="1.5" fill="#000000"/>
  
  <!-- Bottom left tomoe -->
  <path d="M 6 16 Q 8 20 12 20 Q 14 20 14 18 Q 12 16 10 16 Q 8 16 6 16 Z" fill="#ffffff"/>
  <circle cx="10" cy="18" r="1.5" fill="#000000"/>
</svg>
